<?xml version="1.0" standalone="no"?>
<!DOCTYPE svg PUBLIC "-//W3C//DTD SVG 20010904//EN"
 "http://www.w3.org/TR/2001/REC-SVG-20010904/DTD/svg10.dtd">
<svg version="1.0" xmlns="http://www.w3.org/2000/svg"
 width="1200.000000pt" height="1600.000000pt" viewBox="0 0 1200.000000 1600.000000"
 preserveAspectRatio="xMidYMid meet">

<g transform="translate(0.000000,1600.000000) scale(0.100000,-0.100000)"
fill="#000000" stroke="none">
<path d="M0 8000 l0 -8000 6000 0 6000 0 0 431 c0 365 -2 433 -15 445 -15 16
-24 17 -40 5 -13 -10 -165 -1 -165 9 0 4 -7 10 -14 13 -11 4 -13 1 -9 -11 6
-14 4 -15 -8 -5 -8 6 -39 12 -69 13 -30 0 -71 3 -90 5 -19 3 -87 9 -150 14
-63 6 -135 13 -160 15 -25 3 -67 8 -95 12 -27 3 -75 7 -105 10 -72 5 -118 10
-210 23 -41 5 -97 12 -125 15 -362 36 -395 40 -391 51 2 6 -2 12 -10 12 -7 0
-11 -4 -8 -9 3 -4 -6 -8 -21 -8 -14 0 -28 7 -31 15 -4 8 -10 12 -15 9 -5 -3
-9 0 -9 6 0 6 -4 9 -9 6 -11 -7 -21 18 -21 55 0 19 9 37 25 51 14 12 25 29 25
37 1 22 22 55 39 59 7 1 20 -3 28 -9 11 -10 13 -10 11 1 -4 19 23 20 45 2 16
-14 19 -13 21 15 2 20 21 10 20 -9 -1 -10 2 -15 6 -13 5 3 7 13 5 23 -1 9 1
22 6 27 4 6 3 17 -2 25 -8 13 -9 12 -7 -2 2 -9 -1 -17 -7 -17 -5 0 -9 8 -7 17
2 14 1 14 -7 3 -7 -11 -10 -10 -14 5 -3 10 -3 -3 -1 -29 3 -43 1 -47 -12 -36
-8 7 -13 21 -11 31 3 10 1 16 -3 13 -5 -3 -10 5 -12 17 -3 21 -4 21 -9 -4 -4
-15 -2 -25 2 -22 5 3 9 -2 9 -12 0 -14 -2 -15 -17 -3 -15 12 -16 12 -8 -1 8
-13 7 -13 -8 -1 -20 16 -22 22 -6 18 7 -1 16 13 21 32 5 19 13 30 16 25 10
-14 37 -10 34 5 -1 7 2 10 7 7 5 -4 12 0 14 6 4 10 6 10 6 0 1 -7 5 -11 11 -7
5 3 8 11 6 18 -1 7 -1 9 1 5 9 -16 18 -7 19 17 1 14 -2 23 -6 20 -5 -3 -11 -2
-14 3 -2 4 6 8 19 8 16 0 21 -5 18 -16 -3 -10 0 -9 11 4 10 12 16 15 16 7 0
-7 6 -11 13 -8 8 3 13 -4 14 -22 0 -14 -1 -18 -4 -8 -2 9 -8 17 -13 17 -5 0
-7 -8 -4 -17 5 -15 3 -15 -10 1 -16 20 -21 13 -17 -24 2 -13 1 -13 -8 0 -8 11
-11 11 -11 2 0 -7 -4 -11 -9 -7 -5 3 -12 1 -16 -5 -4 -6 -10 -8 -15 -5 -5 3
-12 0 -15 -6 -5 -7 3 -9 24 -6 20 3 31 1 31 -6 0 -7 5 -6 10 3 7 10 10 11 11
3 3 -28 4 -32 12 -40 5 -4 8 -3 6 2 -4 17 12 45 23 39 5 -3 4 -12 -3 -20 -6
-8 -9 -17 -5 -21 3 -3 6 -1 6 6 0 7 5 9 13 5 6 -4 9 -4 5 1 -4 4 -2 15 5 23 7
10 8 13 1 9 -9 -5 -11 8 -8 44 3 41 1 50 -11 45 -10 -3 -12 0 -9 12 4 10 2 13
-3 7 -4 -6 -19 -10 -33 -10 -20 0 -25 5 -24 23 1 17 -2 20 -9 13 -27 -27 -28
-8 -1 21 28 32 28 32 -9 -2 -21 -19 -41 -35 -45 -35 -4 0 -8 -7 -9 -16 -1 -9
4 -16 12 -16 18 0 19 9 5 23 -7 7 -6 11 4 11 8 0 13 -5 9 -10 -3 -5 5 -3 18 3
l24 12 -24 -23 c-33 -31 -47 -32 -67 -2 -9 14 -11 22 -5 19 6 -4 11 -3 11 3 0
5 -3 11 -7 14 -5 2 -2 2 5 1 6 -2 12 1 12 6 0 6 -4 10 -10 10 -5 0 -10 10 -10
23 0 18 2 19 11 7 7 -11 9 -2 6 32 -3 39 -2 46 10 37 18 -15 17 -4 -3 26 -16
25 -12 61 5 51 5 -3 11 1 14 9 4 9 1 12 -9 8 -16 -6 -20 12 -4 22 6 3 10 19
10 35 0 16 4 32 10 35 6 4 8 -10 6 -35 -2 -22 1 -40 5 -40 5 0 9 9 9 21 0 11
5 17 10 14 6 -4 10 7 9 27 -1 31 -1 32 -9 8 -7 -21 -8 -17 -9 21 -1 49 26 149
40 149 5 0 8 10 8 23 -1 12 13 81 30 152 23 94 34 167 39 265 7 138 5 1092 -3
1505 -10 474 -7 665 10 750 44 216 54 407 36 660 -8 106 -7 111 16 138 27 34
29 62 8 192 -15 94 -15 95 6 124 20 28 21 38 16 128 -19 292 -44 468 -89 623
l-31 105 2 255 c2 239 0 268 -28 455 -17 110 -35 225 -41 255 -6 30 -17 136
-25 235 -14 175 -41 352 -110 725 -19 102 -41 239 -49 306 -8 66 -19 131 -24
144 -15 41 -244 285 -320 341 -246 182 -680 364 -1141 479 -94 23 -183 52
-208 66 -34 20 -51 24 -80 20 -28 -5 -49 -1 -80 14 -23 11 -59 20 -79 20 -28
0 -48 9 -83 37 -25 21 -49 42 -53 48 -17 23 -6 57 27 91 19 19 35 38 35 43 0
5 18 43 41 85 31 58 37 76 25 76 -19 0 -21 11 -4 28 8 8 8 15 -2 27 -8 10 -9
15 -1 15 6 0 11 7 11 15 0 8 -7 15 -15 15 -25 0 -17 19 25 59 22 21 40 46 40
55 0 9 4 14 10 11 5 -3 13 12 16 35 4 23 13 44 20 47 8 3 14 9 14 15 0 18 29
38 56 38 22 0 25 2 14 15 -11 13 -8 15 14 15 22 0 25 3 18 18 -5 9 -7 23 -4
31 3 9 -1 11 -15 7 -14 -4 -19 -1 -20 14 -1 14 4 20 20 20 12 0 28 4 35 9 10
6 8 10 -8 14 -25 7 -22 27 6 42 27 14 103 89 83 82 -13 -4 -15 -1 -12 13 3 11
10 18 16 17 6 -1 16 8 22 21 6 14 19 22 35 23 25 0 25 0 2 9 -12 5 -29 7 -38
3 -14 -5 -15 -3 -5 15 6 11 8 28 5 36 -4 10 0 18 10 22 11 4 13 10 7 18 -5 6
-11 16 -13 21 -1 6 -9 9 -15 9 -19 -2 -16 5 22 69 19 31 32 57 29 57 -3 0 3
15 14 33 18 27 74 177 103 272 5 16 20 52 33 80 48 100 78 239 71 328 -3 40
-2 45 4 22 9 -30 9 -30 12 10 1 22 2 49 1 60 -3 48 22 291 31 303 9 11 20 251
20 422 0 46 -25 153 -40 172 -7 7 -14 34 -17 58 -4 35 -3 38 3 15 l8 -30 7 26
c6 20 2 32 -16 52 -13 14 -34 46 -46 71 -17 34 -29 46 -46 46 -12 0 -31 8 -42
18 -16 16 -22 17 -32 5 -15 -15 -36 -18 -27 -3 4 6 1 17 -5 25 -7 8 -10 20 -7
27 3 8 6 5 6 -6 1 -18 2 -17 20 3 l20 22 16 -28 c14 -24 15 -24 12 -5 -3 12
-1 22 4 22 9 0 13 -22 10 -47 -1 -7 5 -13 14 -13 13 0 15 6 11 28 -3 15 -8 44
-11 66 -9 72 -13 80 -95 162 -25 24 -55 47 -67 50 -13 4 -23 10 -23 14 0 4 -8
10 -17 14 -10 3 -31 14 -48 25 -35 23 -61 26 -68 9 -6 -15 -36 19 -37 40 0 7
-16 29 -36 47 -24 22 -34 40 -30 50 3 10 2 13 -4 10 -6 -4 -23 5 -38 20 -15
14 -39 32 -53 38 -13 7 -28 22 -34 35 -5 12 -15 20 -21 18 -6 -2 -17 7 -24 20
-8 13 -18 23 -24 22 -10 -3 -64 34 -105 72 -10 8 -28 16 -42 18 -13 1 -28 8
-34 16 -5 7 -15 11 -22 9 -7 -3 -27 2 -45 10 -54 24 -68 27 -147 33 -42 4 -83
10 -91 14 -8 4 -51 12 -95 19 -71 10 -197 43 -233 60 -8 3 -20 24 -28 46 -7
22 -22 47 -33 56 -18 15 -18 18 -5 23 8 3 12 11 9 17 -5 7 -11 7 -17 1 -30
-30 -105 61 -77 94 11 14 9 15 -27 9 -21 -4 -45 -12 -52 -18 -7 -5 -15 -7 -19
-4 -3 4 -13 2 -22 -2 -9 -5 -44 -12 -77 -15 -34 -3 -69 -9 -78 -12 -18 -7 -56
21 -56 41 0 7 -17 24 -37 37 -21 14 -58 42 -83 63 -58 49 -141 85 -210 92 -53
5 -195 47 -215 63 -5 4 -68 25 -140 45 -118 34 -142 38 -255 39 -69 1 -115 0
-102 -2 26 -4 29 -20 5 -29 -10 -3 -31 -15 -47 -26 -15 -11 -31 -16 -35 -11
-19 27 -76 13 -93 -23 -14 -29 -98 -82 -98 -62 0 7 -10 3 -23 -9 -13 -12 -28
-22 -35 -22 -34 0 -230 -106 -218 -118 3 -3 23 7 43 21 33 23 83 33 83 17 0
-3 -23 -27 -50 -52 -34 -32 -50 -54 -50 -72 0 -28 -13 -40 -50 -45 -5 0 -10
-6 -10 -12 0 -5 -19 -33 -42 -60 -24 -27 -43 -57 -43 -67 0 -10 -8 -17 -20
-17 -13 0 -21 -9 -25 -31 -9 -40 -33 -94 -42 -94 -5 0 -8 -7 -8 -16 0 -8 4
-13 8 -10 4 2 7 -8 6 -22 -1 -15 -3 -35 -3 -44 -1 -10 -7 -18 -15 -18 -9 0
-12 -7 -9 -20 3 -12 8 -18 11 -15 3 2 12 0 19 -7 11 -9 16 -9 23 2 5 9 8 4 7
-14 -2 -21 -6 -26 -20 -22 -16 4 -16 2 -5 -12 7 -9 19 -22 27 -28 8 -6 11 -16
8 -22 -4 -5 -3 -21 2 -34 7 -16 10 -18 10 -6 1 9 5 20 11 23 5 3 7 0 4 -9 -3
-9 7 -27 25 -45 36 -35 41 -37 41 -16 0 15 12 20 23 9 9 -10 -4 -34 -18 -34
-8 0 -17 -5 -21 -12 -4 -6 -3 -8 4 -4 14 8 25 -11 15 -26 -4 -7 -8 -17 -8 -23
-1 -5 -6 -9 -13 -8 -14 3 -16 -23 -3 -32 6 -3 15 3 20 14 13 23 46 38 38 17
-4 -9 1 -16 11 -19 12 -2 5 -8 -20 -20 -41 -17 -50 -28 -17 -20 13 4 -8 -23
-56 -73 -99 -101 -187 -219 -231 -309 -20 -38 -39 -74 -45 -79 -5 -6 -9 -19
-9 -30 0 -11 -9 -38 -19 -60 -22 -46 -34 -76 -116 -291 -32 -82 -70 -175 -84
-205 -20 -42 -27 -75 -29 -141 -4 -89 4 -120 71 -259 25 -52 26 -124 4 -167
-8 -15 -20 -40 -26 -55 -6 -17 -18 -28 -30 -28 -26 0 -51 -10 -51 -21 0 -5 22
-9 49 -9 34 0 51 -5 55 -15 3 -8 12 -12 21 -9 8 4 15 1 15 -6 0 -7 10 -26 22
-42 16 -24 22 -46 23 -99 1 -63 -2 -71 -29 -100 -16 -17 -44 -61 -62 -98 -46
-90 -115 -215 -123 -221 -11 -8 -71 -109 -71 -120 0 -6 -5 -10 -11 -10 -7 0
-9 -10 -5 -27 4 -18 3 -23 -2 -14 -12 17 -40 -62 -48 -134 -7 -60 11 -108 57
-153 31 -30 121 -72 154 -72 21 0 19 -39 -3 -59 -19 -17 -46 -57 -73 -106 -19
-36 -32 -185 -15 -182 7 1 10 -13 9 -35 -1 -21 2 -38 7 -38 6 0 10 6 10 13 1
22 29 -38 30 -63 0 -18 3 -21 9 -12 8 14 29 -54 49 -160 l9 -46 -96 -31 c-190
-59 -275 -81 -380 -97 -124 -18 -238 -45 -336 -80 -38 -14 -101 -28 -138 -31
-66 -6 -68 -7 -82 -41 -8 -19 -15 -44 -15 -56 0 -19 -46 -92 -89 -143 -34 -39
-117 -218 -155 -333 -25 -74 -65 -193 -89 -265 -50 -148 -72 -264 -86 -447
-18 -241 -33 -310 -155 -743 -46 -162 -83 -360 -111 -586 -8 -70 -21 -142 -29
-160 -24 -60 -30 -133 -12 -168 15 -29 15 -37 -9 -140 -14 -60 -25 -119 -25
-129 0 -11 18 -36 40 -54 27 -24 38 -40 35 -54 -2 -10 -11 -48 -19 -84 -81
-357 -86 -396 -96 -790 -5 -190 -14 -394 -19 -455 -16 -166 -40 -391 -51 -470
-5 -38 -17 -146 -25 -240 -16 -164 -32 -257 -75 -415 -56 -203 -62 -253 -72
-580 -17 -524 -15 -712 13 -1180 11 -196 14 -428 6 -436 -3 -4 -52 -1 -109 5
-144 16 -355 39 -408 44 -25 3 -155 19 -290 35 -266 33 -479 56 -660 72 -63 6
-132 13 -152 16 -35 6 -40 3 -100 -57 -35 -35 -93 -97 -128 -136 -35 -40 -71
-73 -80 -72 -10 0 -11 2 -2 6 16 6 42 57 42 83 0 11 5 20 10 20 6 0 10 6 10
13 0 6 6 24 14 38 15 29 30 80 27 92 -1 5 3 5 9 2 7 -4 10 0 8 11 -2 11 3 19
12 20 30 2 32 4 21 17 -6 8 -8 17 -4 20 3 4 1 7 -6 7 -8 0 -11 -7 -7 -15 10
-26 -2 -16 -18 15 -8 17 -10 27 -4 24 7 -5 9 -1 5 9 -3 9 1 23 9 32 9 8 11 15
5 15 -6 0 -11 9 -11 21 0 13 4 18 12 13 7 -4 8 -3 4 4 -4 6 -12 9 -19 6 -15
-5 -21 33 -6 41 5 4 9 11 9 16 0 6 -6 7 -13 3 -7 -5 -6 0 3 11 9 11 10 16 2
11 -8 -5 -11 -1 -8 16 2 13 0 33 -5 45 -5 12 -5 24 0 27 14 9 5 68 -13 81 -13
10 -14 14 -4 18 10 4 10 6 1 6 -7 1 -13 6 -13 12 0 5 4 8 8 5 5 -3 9 1 9 9 0
8 -4 12 -8 9 -12 -7 -1 36 13 54 11 13 11 14 -2 7 -13 -7 -13 -6 -2 7 11 14
10 18 -6 30 -26 18 -27 20 -13 45 9 18 9 23 -1 23 -9 0 -9 3 2 10 13 9 13 10
0 10 -12 0 -12 2 -2 9 11 7 11 9 -1 14 -8 3 -21 0 -28 -6 -11 -10 -11 -9 0 5
7 10 18 15 25 11 6 -3 0 5 -13 20 -23 25 -23 26 -2 20 13 -3 21 -1 21 6 0 7
-5 9 -13 5 -6 -4 -3 3 8 16 11 13 15 20 9 17 -7 -4 -15 0 -18 9 -3 8 -2 12 3
9 5 -3 13 0 17 6 5 8 3 9 -6 4 -10 -6 -12 0 -8 23 2 17 1 29 -4 26 -4 -3 -8 2
-8 11 0 10 5 13 13 9 6 -4 5 1 -4 12 -8 10 -15 26 -14 34 0 8 -4 18 -10 22 -6
5 -6 8 3 8 6 0 12 5 12 11 0 5 -3 8 -7 6 -5 -3 -7 14 -6 36 0 23 -2 46 -5 52
-10 15 -10 55 0 49 4 -3 8 -1 8 5 0 5 -6 12 -12 14 -10 4 -10 6 0 6 6 1 12 6
12 12 0 5 -6 7 -13 3 -9 -5 -9 -4 -1 5 9 10 8 19 -2 39 -8 15 -14 41 -14 59 0
17 -5 35 -10 38 -6 4 -10 21 -10 38 0 18 -1 70 -3 117 -2 69 1 85 13 85 10 0
15 -12 15 -37 1 -21 4 -40 7 -44 4 -3 5 9 4 28 -2 18 2 39 8 47 8 11 8 13 0 8
-7 -4 -17 0 -24 8 -10 12 -10 15 1 15 11 0 11 2 -1 9 -8 6 -17 8 -20 6 -4 -2
-7 2 -7 10 0 8 4 12 9 9 4 -3 8 0 8 6 0 6 4 9 8 6 7 -4 8 33 2 42 -3 3 -7 19
-9 32 0 6 -6 10 -12 10 -8 0 -8 -4 -1 -13 8 -9 8 -17 0 -27 -8 -12 -9 -12 -4
2 3 10 1 20 -4 23 -10 6 -8 24 5 45 14 22 15 43 4 56 -12 15 -9 105 4 97 6 -3
7 -1 3 5 -4 7 -14 12 -22 12 -8 0 -15 11 -15 28 -2 23 -2 24 -6 5 -2 -13 2
-31 9 -42 16 -23 12 -105 -5 -94 -6 3 -7 1 -3 -6 12 -19 18 -63 7 -57 -9 6 -5
-43 5 -53 2 -2 -3 -16 -12 -29 -14 -21 -14 -24 -2 -20 8 4 15 0 15 -8 0 -7 -4
-11 -9 -8 -4 3 -8 0 -8 -5 0 -6 4 -11 9 -11 6 0 8 -9 6 -21 -12 -64 -17 -141
-8 -136 5 3 10 0 10 -8 0 -8 -4 -12 -9 -9 -4 3 -8 -2 -8 -11 0 -9 4 -14 8 -11
4 2 8 -11 8 -29 0 -18 -3 -32 -7 -29 -4 2 -9 -6 -11 -18 -2 -13 -7 117 -11
287 -23 962 -28 1140 -37 1340 -5 121 -12 321 -15 445 -3 124 -12 421 -20 660
-8 239 -17 527 -20 640 -9 331 -24 843 -30 1010 -3 85 -10 310 -15 500 -6 190
-15 467 -20 615 -6 149 -14 403 -20 565 -5 162 -12 347 -15 410 -2 63 -7 183
-10 265 -25 714 -51 1348 -85 2125 -5 124 -14 331 -20 460 -5 129 -17 377 -25
550 -17 364 -43 952 -50 1155 -3 77 -7 183 -10 235 -2 52 -7 271 -11 485 -4
215 -8 393 -10 396 -2 3 -4 100 -4 215 -1 114 -4 239 -7 276 l-6 68 -133 0
-134 0 0 -8000z m5970 6690 c-8 -5 -19 -10 -25 -10 -5 0 -3 5 5 10 8 5 20 10
25 10 6 0 3 -5 -5 -10z m-552 -309 c-7 -12 -16 -21 -21 -21 -8 0 -2 14 16 38
16 20 20 6 5 -17z m-117 -178 c-5 -10 -17 -27 -25 -38 -13 -16 -13 -13 1 17
10 21 22 38 26 38 4 0 3 -8 -2 -17z m-71 -153 c0 -5 -5 -10 -11 -10 -5 0 -7 5
-4 10 3 6 8 10 11 10 2 0 4 -4 4 -10z m25 -210 c-3 -5 -1 -10 6 -10 7 0 10 -3
6 -6 -3 -4 -14 -3 -24 0 -15 6 -15 8 -3 16 19 12 23 12 15 0z m35 -40 c0 -5
-5 -10 -11 -10 -5 0 -7 5 -4 10 3 6 8 10 11 10 2 0 4 -4 4 -10z m-14 -78 c-4
-3 -14 2 -24 12 -16 18 -16 18 6 6 13 -6 21 -14 18 -18z m3279 -132 c3 -5 2
-10 -4 -10 -5 0 -13 5 -16 10 -3 6 -2 10 4 10 5 0 13 -4 16 -10z m59 4 c23 -9
20 -27 -4 -21 -11 3 -20 0 -20 -6 0 -6 -2 -8 -5 -5 -5 5 4 38 10 38 2 0 10 -3
19 -6z m-2650 -51 c3 -14 -1 -19 -15 -18 -10 1 -22 5 -26 9 -5 4 -1 6 7 4 8
-1 15 3 16 10 1 6 2 15 3 19 2 11 11 -3 15 -24z m161 -47 c11 -3 23 -5 26 -5
12 -2 5 -30 -9 -36 -18 -7 -32 2 -32 22 0 23 -14 7 -17 -21 -3 -18 4 -26 28
-36 19 -8 33 -9 37 -4 8 12 22 12 41 0 10 -6 12 -5 7 2 -10 16 7 15 23 0 10
-11 12 -10 9 2 -2 8 -7 18 -13 22 -6 5 -5 8 4 8 11 0 11 3 0 18 -13 15 -12 16
2 4 9 -7 21 -12 25 -10 19 4 154 -24 149 -32 -3 -4 4 -6 15 -3 13 3 20 0 20
-8 0 -11 2 -11 10 1 5 8 10 11 10 5 0 -5 5 -3 10 5 9 13 10 13 10 0 0 -8 10
-20 23 -26 12 -6 48 -25 79 -42 44 -23 58 -26 62 -16 6 16 52 19 60 5 3 -5 7
-32 8 -60 2 -41 6 -51 20 -51 21 0 24 -16 6 -23 -10 -3 -10 -7 0 -20 15 -18 9
-34 -20 -55 -18 -13 -25 -52 -10 -52 4 0 16 -13 26 -27 16 -22 17 -25 3 -20
-29 11 -8 -17 26 -34 22 -11 31 -22 28 -35 -1 -11 -4 -39 -5 -63 -1 -35 3 -45
16 -47 10 -1 20 2 24 7 3 5 0 9 -5 9 -13 0 -14 69 -2 88 11 19 64 5 57 -15 -3
-8 -6 -22 -6 -30 0 -11 -7 -14 -25 -11 -34 7 -32 -12 5 -37 43 -29 36 -54 -12
-46 -10 1 -10 -7 1 -46 6 -21 5 -35 -2 -42 -9 -9 -8 -14 3 -21 10 -6 2 -7 -23
-3 -33 5 -37 3 -31 -11 5 -12 9 -14 14 -6 5 8 9 7 14 -5 9 -25 7 -37 -5 -29
-8 4 -9 -1 -3 -17 5 -13 8 -37 9 -54 0 -16 3 -33 7 -36 9 -6 -13 -59 -25 -59
-5 0 -5 5 -2 10 10 16 -35 11 -52 -5 -8 -9 -16 -33 -16 -55 -1 -46 -10 -44
-11 2 -1 22 -6 32 -19 34 -10 1 -14 -2 -10 -9 11 -17 10 -58 -2 -64 -5 -4 -7
-3 -3 2 4 4 3 16 -2 26 -7 11 -6 19 0 22 6 3 5 4 -2 3 -7 -2 -11 -10 -10 -17
9 -34 9 -46 0 -69 -7 -20 -11 -22 -19 -10 -9 12 -10 12 -5 -3 3 -10 1 -28 -5
-39 -8 -15 -8 -18 0 -14 7 5 9 1 5 -8 -3 -9 -9 -14 -14 -11 -9 6 -35 -43 -27
-52 11 -11 -14 -32 -31 -26 -13 4 -14 3 -4 -5 8 -5 14 -13 14 -18 0 -5 3 -15
8 -23 10 -19 50 21 51 52 0 12 3 16 6 9 2 -6 8 -10 12 -8 4 3 8 -1 8 -9 0 -8
-5 -12 -11 -9 -6 3 -2 -2 9 -11 11 -9 19 -19 17 -23 -2 -4 4 -8 12 -10 11 -2
16 4 16 18 0 12 -4 19 -9 16 -5 -3 -12 1 -15 10 -4 10 -2 13 7 8 9 -6 9 -5 0
8 -7 8 -9 19 -5 23 4 5 1 4 -7 0 -11 -6 -13 -4 -7 11 15 37 18 75 5 72 -6 -2
-13 5 -14 15 -2 9 1 15 6 11 5 -3 6 -11 2 -17 -4 -7 1 -6 11 2 12 10 14 17 6
25 -5 5 -10 17 -9 26 0 13 1 13 6 0 4 -8 12 -21 20 -28 11 -11 13 -11 13 4 0
13 3 14 13 5 8 -6 17 -8 21 -4 4 4 4 0 0 -10 -3 -9 -10 -17 -16 -17 -5 0 -7
-4 -4 -9 4 -5 1 -11 -6 -13 -8 -3 -9 -11 -3 -24 4 -10 9 -21 9 -24 1 -3 5 -11
9 -17 10 -16 -5 -17 -20 -2 -8 8 -13 7 -18 -2 -5 -8 -4 -10 3 -5 7 4 13 2 13
-3 4 -32 6 -36 15 -34 11 2 13 -56 2 -72 -3 -6 7 -10 24 -11 29 -1 52 -20 42
-35 -2 -4 0 -10 5 -13 4 -3 8 4 7 17 0 12 4 21 10 20 6 -1 10 9 8 23 -1 14 1
23 4 19 7 -7 9 -13 11 -46 0 -11 5 -18 10 -15 5 4 7 -3 4 -14 -3 -11 -2 -28 3
-37 4 -10 8 -27 10 -37 1 -11 13 -28 27 -38 16 -11 24 -25 20 -34 -4 -10 0
-12 11 -8 12 5 15 2 10 -10 -4 -9 4 -28 19 -46 19 -22 26 -26 31 -15 6 17 26
20 26 5 0 -14 50 -61 59 -55 5 2 17 -5 27 -17 11 -12 13 -18 7 -14 -8 4 -13 2
-13 -5 0 -7 -6 -4 -14 7 -17 22 -23 19 -30 -19 -3 -16 -1 -25 5 -22 5 4 6 12
3 18 -4 7 -4 9 1 5 14 -13 12 -66 -2 -61 -7 3 -13 0 -13 -6 0 -6 3 -10 8 -10
19 3 29 -2 29 -16 0 -8 -5 -11 -10 -8 -6 4 -8 -1 -4 -11 4 -9 3 -15 -2 -12 -5
3 -14 -1 -21 -9 -7 -8 -17 -12 -23 -8 -6 4 -8 -2 -5 -15 4 -12 2 -22 -2 -22
-5 0 -7 -8 -5 -17 1 -10 8 -17 15 -15 8 2 11 -4 7 -17 -3 -13 -1 -18 8 -14 14
5 15 -20 2 -33 -4 -4 1 -13 11 -21 16 -12 16 -13 0 -7 -13 4 -18 1 -18 -11 0
-9 -6 -23 -14 -31 -15 -14 -11 -54 5 -54 5 0 9 -7 9 -16 0 -8 -4 -12 -10 -9
-5 3 -10 -1 -10 -9 0 -8 -5 -18 -12 -22 -7 -5 -8 -2 -3 7 5 8 4 11 0 6 -11
-10 -46 23 -38 36 4 6 1 7 -6 2 -9 -5 -9 -11 -3 -17 6 -6 8 -17 5 -24 -7 -20
6 -66 17 -59 5 3 8 -3 7 -14 0 -11 -5 -17 -11 -14 -5 4 -7 -1 -2 -12 5 -15 4
-16 -9 -5 -8 7 -12 17 -8 23 3 5 1 7 -4 4 -6 -4 -13 -16 -16 -27 -3 -13 -1
-18 6 -13 7 4 6 -1 -2 -10 -11 -14 -11 -17 0 -17 11 0 11 -2 -1 -10 -13 -9
-13 -10 0 -10 13 0 13 -1 0 -10 -11 -7 -12 -10 -2 -10 10 0 9 -4 -2 -16 -9 -8
-14 -20 -10 -25 3 -6 2 -15 -4 -22 -5 -7 -8 -24 -7 -39 2 -23 -1 -26 -12 -16
-8 6 -13 7 -11 2 2 -5 0 -9 -3 -9 -4 0 -16 -8 -26 -18 -11 -9 -24 -14 -28 -10
-5 5 -4 1 3 -9 11 -13 10 -19 -7 -30 -12 -8 -18 -18 -14 -22 4 -4 -1 -4 -11 0
-12 5 -17 4 -13 -2 3 -6 2 -16 -4 -24 -6 -12 -9 -12 -9 -2 0 10 -4 9 -16 -2
-8 -9 -20 -14 -24 -11 -5 3 -13 -9 -18 -27 -4 -19 -17 -37 -30 -43 -12 -5 -22
-15 -22 -22 0 -6 -7 -19 -16 -27 -8 -9 -12 -22 -8 -28 4 -7 4 -10 -1 -6 -14
13 -45 -11 -38 -29 4 -11 3 -14 -5 -9 -8 5 -10 1 -5 -10 4 -11 3 -15 -5 -10
-6 3 -14 1 -19 -6 -12 -21 -12 -35 2 -35 8 0 11 7 8 16 -4 10 0 9 10 -4 14
-18 14 -22 0 -37 -9 -10 -20 -15 -24 -12 -5 3 -9 -2 -9 -10 0 -9 -5 -16 -11
-16 -6 0 -9 6 -6 14 6 15 -16 30 -27 19 -12 -13 -5 -29 17 -38 23 -11 30 -41
13 -63 -5 -8 -10 -28 -11 -45 -1 -35 -12 -60 -24 -53 -4 3 -8 -1 -8 -8 0 -7 6
-13 14 -13 7 0 13 5 13 11 0 6 4 4 10 -4 5 -9 5 -19 -2 -27 -8 -11 -7 -12 8
-6 17 6 17 5 5 -10 -12 -15 -12 -17 3 -11 9 3 16 2 16 -4 0 -5 11 -7 25 -4 19
3 27 -1 34 -19 8 -21 16 -12 12 13 0 4 6 5 15 1 13 -5 13 -7 2 -14 -10 -7 -10
-9 2 -9 8 -1 5 -5 -8 -11 -13 -5 -26 -18 -29 -29 -3 -11 -9 -17 -14 -14 -15 9
-10 -30 7 -54 8 -12 24 -22 34 -22 11 0 21 -9 25 -22 3 -13 11 -33 17 -46 9
-17 9 -25 -2 -35 -8 -7 -11 -8 -7 -1 4 7 0 14 -8 18 -8 3 -15 1 -15 -5 0 -6
-4 -8 -10 -4 -5 3 -5 -7 2 -25 12 -35 9 -40 -20 -43 -11 0 -19 -4 -16 -8 2 -4
0 -9 -6 -11 -6 -2 -6 -8 0 -18 8 -13 10 -13 10 2 0 9 4 20 10 23 7 4 7 -3 0
-19 -5 -14 -7 -26 -4 -26 4 0 1 -6 -5 -13 -6 -8 -8 -17 -4 -20 3 -4 1 -7 -5
-7 -5 0 -12 6 -15 13 -8 23 -16 1 -19 -55 -2 -31 -6 -54 -10 -51 -5 2 -8 -2
-8 -10 0 -8 -8 -21 -17 -28 -15 -11 -16 -11 -5 1 17 20 15 26 -10 27 -13 0
-17 -1 -11 -4 22 -8 -5 -45 -30 -41 -13 2 -21 -2 -20 -9 2 -7 -1 -12 -5 -10
-5 1 -28 -17 -52 -41 -52 -52 -83 -71 -73 -46 4 11 2 15 -4 11 -6 -4 -13 -1
-16 5 -2 7 -17 -7 -33 -32 -16 -25 -35 -45 -41 -46 -29 -2 -34 -4 -29 -13 10
-16 -21 -20 -42 -5 -19 13 -20 12 -16 -16 3 -18 1 -30 -6 -30 -6 0 -9 4 -5 9
3 5 1 13 -5 16 -6 4 -9 1 -8 -6 2 -7 -8 -13 -24 -14 -15 -1 -34 -8 -43 -15 -9
-8 -31 -14 -48 -15 -18 0 -37 -3 -42 -7 -16 -10 -107 -1 -115 12 -6 9 -9 9
-14 1 -4 -6 -12 -9 -17 -6 -5 4 -9 1 -9 -6 0 -7 -2 -10 -5 -7 -3 3 -2 13 1 22
5 14 9 15 15 4 6 -9 9 -9 9 -1 0 29 -21 20 -40 -17 -21 -40 -40 -53 -40 -25 0
18 -11 19 -29 3 -11 -11 -12 -10 -6 2 8 13 7 13 -8 1 -14 -11 -17 -11 -17 0 0
12 -2 12 -9 1 -5 -8 -21 -14 -37 -13 -105 3 -131 -2 -104 -19 19 -12 4 -12
-38 -1 -27 8 -32 7 -32 -7 -1 -14 -5 -12 -21 7 -11 13 -22 21 -25 18 -6 -6 16
-48 31 -59 5 -4 1 -7 -10 -6 -11 0 -33 -2 -49 -5 -24 -5 -34 -1 -58 26 -23 27
-30 30 -38 17 -8 -12 -10 -10 -8 9 2 13 -3 26 -9 28 -8 3 -13 -4 -13 -18 0
-18 -3 -20 -12 -11 -20 20 -28 14 -29 -20 l-1 -33 -10 28 c-5 15 -14 25 -19
21 -9 -5 -11 1 -13 36 -1 8 -19 23 -41 34 -22 10 -46 27 -53 38 -8 10 -24 29
-37 42 -19 19 -24 34 -23 75 1 27 5 48 10 45 4 -3 11 2 14 10 3 9 9 14 14 11
14 -9 38 21 44 56 8 47 -17 79 -90 114 -33 16 -52 30 -48 37 4 6 3 8 -4 4 -16
-10 -26 14 -12 27 10 9 11 9 6 -3 -4 -8 0 -6 9 5 9 11 18 19 20 18 12 -7 36
-2 31 5 -3 5 1 9 9 9 8 0 12 -4 9 -9 -8 -13 13 -9 25 5 6 7 26 13 46 12 20 -1
38 2 41 7 3 4 11 5 17 1 19 -12 47 -14 47 -4 0 14 43 0 68 -22 12 -11 22 -26
22 -33 0 -6 9 -22 21 -35 l20 -24 -6 23 c-8 28 2 28 32 0 17 -15 23 -18 23 -7
1 8 8 1 16 -14 9 -16 13 -35 10 -42 -5 -13 89 -100 108 -100 6 0 30 19 55 43
29 29 51 42 63 39 17 -5 17 -3 -2 23 -11 15 -20 32 -20 37 0 5 -9 26 -20 48
-11 22 -20 53 -20 71 0 17 -5 55 -10 85 -12 61 -57 139 -70 119 -11 -18 -30
20 -30 59 0 17 -2 31 -4 31 -2 0 -11 3 -19 6 -10 3 -17 -1 -20 -13 -4 -20 -4
-20 -23 35 -4 11 -8 13 -11 4 -7 -18 -23 -4 -23 20 0 11 -9 31 -20 45 l-19 25
-12 -26 c-15 -32 -29 -24 -29 17 0 28 -5 34 -40 49 -22 9 -40 12 -40 7 0 -20
-15 -8 -17 14 0 12 -4 41 -8 65 -8 42 -6 45 35 87 24 24 47 42 51 40 10 -7 19
22 13 40 -7 17 11 21 21 5 3 -5 12 -10 20 -10 10 0 14 12 12 44 -1 24 -5 42
-8 40 -4 -2 -6 7 -6 21 0 16 4 22 11 18 7 -4 6 -1 -1 9 -7 8 -10 17 -7 20 3 3
-1 9 -8 14 -7 4 -10 4 -6 -1 4 -4 2 -15 -5 -23 -6 -9 -7 -13 -2 -10 6 4 11 -2
11 -13 0 -20 -16 -11 -19 12 -2 8 -7 20 -11 28 -6 10 -5 12 2 7 20 -12 13 2
-14 29 -14 14 -22 30 -18 37 4 6 3 8 -3 5 -6 -4 -14 0 -17 9 -3 8 -10 13 -15
9 -5 -3 -13 0 -16 6 -4 5 -14 8 -22 5 -8 -3 -12 -2 -9 3 6 9 -18 23 -46 26
-15 1 -16 -1 -5 -14 11 -14 10 -14 -5 -2 -10 7 -18 20 -18 27 0 8 -8 14 -19
14 -21 0 -44 23 -33 34 4 4 3 7 -3 6 -5 -1 -12 -1 -15 0 -3 1 -19 3 -35 4 -25
1 -30 -2 -31 -21 -1 -12 1 -22 5 -21 18 2 31 -3 31 -13 0 -5 -4 -8 -9 -4 -5 3
-13 1 -16 -5 -4 -6 -1 -9 6 -8 6 2 14 -3 17 -11 3 -9 0 -11 -8 -6 -7 4 -4 -4
5 -18 9 -15 13 -32 9 -38 -4 -7 -3 -9 4 -5 6 4 12 -4 14 -21 2 -16 8 -28 13
-28 15 -1 43 -19 47 -30 2 -5 7 -9 11 -7 5 1 5 -3 0 -10 -4 -7 -7 -22 -6 -33
1 -16 1 -16 -3 -2 -3 9 -9 17 -12 18 -41 5 -50 4 -46 -3 7 -11 -7 -10 -44 3
-20 7 -29 15 -25 22 4 7 -1 6 -10 -2 -9 -7 -17 -9 -17 -4 0 5 -16 7 -35 5 -23
-3 -42 2 -58 15 -16 12 -38 18 -68 17 -53 -2 -118 -13 -141 -25 -26 -14 -47 0
-70 44 -24 48 -26 112 -4 136 9 10 16 24 16 32 0 8 9 32 20 54 11 22 20 45 20
52 0 7 7 13 15 13 8 0 15 7 15 16 0 10 5 14 16 10 8 -3 13 -2 10 3 -5 8 27 80
41 90 17 13 53 71 53 86 0 8 5 15 10 15 6 0 10 9 10 21 0 11 4 17 10 14 5 -3
19 15 31 40 12 25 25 45 29 45 9 0 36 69 32 82 -1 4 5 5 13 2 10 -4 16 0 17
12 0 11 2 24 3 29 2 6 3 18 4 28 0 10 6 15 11 12 6 -3 10 3 10 14 0 11 5 23
10 26 6 3 10 16 10 28 1 21 39 102 40 84 0 -5 10 -1 22 7 12 9 31 16 41 16 14
0 18 5 14 19 -6 23 28 56 40 38 4 -7 8 -14 9 -17 2 -10 16 -45 23 -60 5 -9 12
-30 16 -48 3 -18 10 -32 14 -32 5 0 7 -11 6 -25 -4 -30 21 -48 47 -34 10 6 18
21 18 37 0 15 4 22 8 16 4 -6 23 -10 42 -9 19 0 43 -6 54 -15 77 -62 73 -56
54 -88 -10 -16 -14 -33 -10 -37 4 -4 -2 -6 -12 -4 -18 4 -23 15 -28 61 -1 9
-6 14 -10 12 -5 -3 -6 -10 -3 -15 3 -5 8 -25 9 -45 3 -21 12 -41 23 -49 11 -8
20 -27 21 -49 3 -36 30 -94 63 -131 10 -11 18 -23 18 -28 1 -18 31 -77 39 -77
5 0 17 -18 28 -40 10 -22 24 -40 31 -40 6 0 19 -13 29 -29 16 -27 74 -70 74
-55 0 4 8 0 19 -10 22 -20 35 -7 40 39 4 37 20 58 38 51 8 -3 11 -2 8 3 -3 5
0 13 6 16 5 4 8 12 6 19 -8 20 37 13 54 -8 22 -27 40 -13 29 24 -7 24 -5 30 6
30 9 0 12 -5 8 -12 -5 -7 -3 -8 7 -2 8 5 22 7 31 6 15 -3 17 1 8 23 -8 22 -6
30 15 51 14 14 25 31 25 38 0 8 14 19 30 25 17 5 38 17 46 26 22 22 96 19 138
-6 48 -28 68 -15 91 57 11 37 31 71 54 93 19 20 31 30 27 22 -7 -10 -5 -12 3
-7 7 5 10 14 7 22 -3 8 0 11 10 7 11 -4 14 -1 12 10 -2 9 0 16 5 16 21 2 27 0
27 -10 0 -5 -4 -7 -10 -4 -16 10 -11 -1 7 -16 9 -8 14 -9 11 -4 -3 6 -3 18 1
28 6 17 8 17 30 -2 14 -12 18 -21 11 -21 -7 0 -11 -2 -8 -5 8 -9 58 17 58 29
0 6 12 -2 26 -19 l25 -30 -6 40 c-8 53 -25 96 -36 89 -5 -3 -9 0 -9 5 0 17 13
13 42 -14 32 -29 34 -30 42 -9 3 8 2 13 -3 10 -10 -6 -24 30 -22 55 1 9 -9 25
-21 35 -27 22 -53 78 -43 93 3 6 0 11 -7 11 -10 0 -10 2 -1 8 10 6 9 14 -1 34
-8 15 -12 28 -10 31 2 2 -3 4 -11 4 -8 0 -15 -4 -15 -9 0 -19 -18 3 -22 26 -3
16 0 27 9 30 9 4 13 0 11 -11 -2 -10 4 -19 14 -21 20 -4 19 25 -2 38 -7 4 -11
17 -7 29 3 12 1 19 -5 15 -5 -3 -12 3 -15 15 -3 12 -8 21 -12 22 -3 0 -14 2
-24 4 -9 2 -15 -1 -11 -6 3 -5 10 -6 16 -3 7 5 8 2 4 -5 -5 -7 -15 -10 -25 -7
-12 5 -11 2 3 -9 11 -8 14 -15 8 -15 -7 0 -12 -7 -12 -16 0 -8 4 -13 8 -10 4
3 13 -8 19 -25 10 -25 9 -29 -5 -30 -13 0 -12 -2 3 -9 12 -4 27 -15 34 -24 11
-13 11 -17 -3 -22 -9 -3 -14 -10 -11 -14 3 -5 -3 -7 -12 -5 -10 1 -23 -2 -30
-7 -7 -6 -14 -5 -19 3 -4 7 -3 9 4 5 6 -3 13 -2 16 3 3 5 -3 11 -14 14 -16 4
-20 0 -20 -20 l0 -25 -31 26 c-17 14 -34 26 -38 26 -5 0 -20 12 -35 27 -15 15
-27 23 -25 18 5 -31 -1 -38 -20 -21 -17 16 -19 16 -25 -6 -7 -21 -9 -19 -27
21 -13 30 -24 41 -34 37 -8 -3 -18 1 -22 8 -5 7 -19 15 -31 19 -20 5 -17 -1
17 -33 23 -22 41 -47 41 -57 -1 -14 -7 -11 -31 15 -16 18 -34 30 -39 27 -6 -3
-10 3 -10 15 0 12 -4 19 -9 16 -12 -8 -31 48 -32 93 -1 35 -1 36 -9 8 -5 -17
-4 -40 2 -58 10 -28 5 -50 -7 -37 -11 11 -45 113 -45 135 0 12 -3 30 -7 40 -6
14 -9 10 -13 -17 l-6 -35 -18 53 c-19 56 -30 65 -39 30 -6 -21 -7 -21 -26 -4
-19 18 -20 17 -30 -15 l-9 -34 -1 31 c-1 24 -7 33 -23 37 -29 8 -57 -17 -52
-46 4 -22 -1 -12 -18 32 -7 18 -11 21 -22 12 -11 -9 -23 -8 -50 3 -20 8 -36
11 -36 5 0 -11 -57 -12 -64 0 -3 4 -39 7 -80 6 -41 -1 -81 2 -88 6 -7 5 -20 1
-30 -8 -17 -15 -18 -15 -18 1 0 10 5 14 12 10 7 -5 8 -3 3 6 -6 10 -11 10 -20
-3 -7 -10 -22 -17 -33 -17 -11 0 -24 -5 -27 -10 -4 -7 -14 -3 -25 10 -11 12
-21 17 -24 11 -4 -6 -22 -10 -41 -9 -19 1 -41 -4 -48 -11 -12 -9 -16 -8 -21 4
-3 10 -11 13 -18 9 -7 -4 -10 -4 -6 1 4 4 0 14 -10 22 -9 8 -11 12 -4 8 19
-10 14 -1 -12 24 l-24 22 1 -29 c1 -18 6 -28 12 -24 5 3 1 -5 -10 -18 -12 -14
-14 -20 -5 -15 12 6 13 5 3 -5 -9 -9 -9 -17 -2 -26 7 -8 5 -17 -6 -27 -8 -9
-15 -22 -15 -29 0 -8 -5 -6 -11 5 -6 9 -14 15 -20 12 -5 -4 -9 -3 -10 2 -4 55
-13 101 -22 117 -6 12 -10 25 -9 29 1 5 -2 6 -7 3 -15 -10 -23 12 -11 33 5 11
6 22 1 25 -4 3 -11 19 -14 36 -5 22 -10 28 -23 23 -14 -5 -15 -3 -5 15 8 15 8
23 0 28 -8 4 -7 9 2 15 12 7 11 9 -1 9 -12 1 -11 3 3 11 9 5 17 15 17 22 0 7
-4 6 -10 -3 -8 -12 -10 -11 -10 8 0 14 9 26 25 34 14 6 25 15 25 19 0 4 9 6
20 4 11 -2 18 0 15 5 -3 5 -2 11 3 14 4 2 14 -4 21 -16 8 -13 9 -18 1 -13 -7
5 -7 0 1 -14 13 -20 14 -20 34 -1 12 11 37 20 63 21 57 4 72 22 43 52 -21 24
-28 47 -13 47 5 0 9 6 10 13 1 6 4 30 7 52 3 22 6 45 7 51 1 7 11 11 23 9 12
-1 22 3 23 9 8 85 8 103 -2 115 -8 11 -8 13 0 8 7 -4 17 0 24 8 8 10 17 12 24
6 11 -9 16 5 19 60 1 9 7 16 13 16 7 0 10 -7 7 -16 -3 -9 5 -5 17 9 20 23 20
23 10 3 -9 -19 -8 -23 5 -23 9 0 13 -5 10 -10 -5 -8 -11 -8 -19 -1 -9 8 -13 7
-13 -2 0 -7 11 -13 23 -13 12 0 21 3 18 7 -2 4 3 12 10 18 11 10 16 8 24 -5 9
-17 42 -29 41 -16 -3 22 2 42 10 38 4 -3 7 5 7 17 -1 12 2 28 7 35 6 8 5 12
-2 12 -6 0 -11 -4 -11 -10 0 -5 -6 -7 -14 -4 -8 3 -18 -7 -26 -25 -7 -17 -16
-28 -21 -26 -4 3 1 22 12 43 12 20 14 29 6 19 -11 -14 -16 -15 -21 -5 -3 7 -3
2 0 -11 4 -15 2 -21 -4 -17 -7 4 -10 -1 -7 -12 2 -11 -3 -19 -11 -19 -10 0
-11 4 -4 11 6 6 5 15 -6 27 -12 13 -12 19 -3 25 7 4 10 3 5 -4 -3 -6 -2 -13 4
-17 8 -5 15 27 12 56 -1 3 6 6 14 6 8 0 13 -6 10 -14 -4 -11 -1 -11 14 -3 15
8 20 8 18 -1 -2 -6 3 -14 11 -17 9 -3 11 0 6 8 -6 9 -3 9 13 1 16 -9 21 -7 27
7 6 16 7 16 19 0 12 -16 14 -16 24 6 8 17 17 23 36 21 14 -2 26 2 26 7 0 6 9
3 19 -6 14 -13 21 -14 27 -5 4 7 3 10 -3 6 -6 -4 -13 0 -17 8 -3 8 0 17 6 21
6 4 8 3 5 -3 -3 -5 0 -10 8 -10 19 0 19 13 1 20 -9 4 -12 14 -9 26 3 12 1 27
-5 34 -9 10 -3 14 26 15 20 2 43 9 52 17 14 12 49 29 75 35 6 1 19 9 30 16 11
8 28 14 38 14 11 0 15 4 11 12 -5 8 -2 9 9 5 10 -3 17 -2 17 4 0 6 4 8 9 4 5
-3 12 -1 16 5 4 6 11 7 17 4 7 -5 9 0 6 12 -5 19 -1 20 44 14 27 -4 51 -3 54
2 4 5 12 7 20 4 7 -3 15 -2 18 2 5 8 -25 13 -81 15 -22 1 -33 6 -34 17 0 10
-3 9 -9 -5 -8 -19 -9 -19 -9 2 -1 19 3 22 29 19 16 -2 32 2 35 8 2 6 2 0 -1
-14 -4 -22 -4 -23 6 -7 7 10 9 24 7 31 -4 10 8 12 51 9 31 -2 66 -5 77 -7z
m2535 -11 c0 -8 -2 -15 -4 -15 -2 0 -6 7 -10 15 -3 8 -1 15 4 15 6 0 10 -7 10
-15z m-2450 -32 c0 -7 -9 -13 -20 -13 -12 0 -17 5 -14 13 3 8 11 14 19 14 8 0
15 -6 15 -14z m2490 -8 c0 -8 -2 -15 -4 -15 -2 0 -6 7 -10 15 -3 8 -1 15 4 15
6 0 10 -7 10 -15z m59 -18 c6 -8 8 -17 4 -21 -4 -4 -2 -11 6 -15 11 -7 10 -12
-1 -30 -14 -23 -29 -23 -36 -1 -3 9 1 11 12 7 18 -7 19 -3 10 31 -4 12 -10 22
-15 22 -5 0 -6 -7 -3 -15 4 -9 0 -15 -8 -15 -24 0 -29 12 -11 32 19 22 27 22
42 5z m-59 -58 c0 -6 -4 -7 -10 -4 -5 3 -10 11 -10 16 0 6 5 7 10 4 6 -3 10
-11 10 -16z m-1917 -54 c21 -45 21 -51 0 -34 -10 8 -14 9 -10 2 4 -6 3 -14 -2
-18 -12 -7 -54 69 -44 79 16 16 41 3 56 -29z m-1177 -88 c-3 -13 -12 -24 -20
-24 -15 0 -11 21 7 45 14 18 21 7 13 -21z m3264 -17 c13 -8 13 -10 -2 -10 -9
0 -20 5 -23 10 -8 13 5 13 25 0z m-2074 -13 c4 -4 -2 -7 -14 -7 -11 0 -23 4
-26 8 -6 10 30 9 40 -1z m-6 -81 c0 -11 -5 -28 -10 -36 -8 -13 -14 -10 -35 14
-22 26 -26 54 -5 41 5 -3 11 -1 15 4 10 17 35 0 35 -23z m2150 -30 c0 -12 -5
-7 -19 24 -11 24 -11 24 3 6 9 -11 16 -24 16 -30z m-3516 -35 c-12 -24 -19
-29 -25 -20 -10 17 19 75 32 62 6 -6 3 -22 -7 -42z m1406 25 c0 -8 -5 -18 -10
-21 -6 -4 -8 -11 -5 -16 4 -5 2 -9 -3 -9 -16 0 -22 30 -9 45 16 18 27 19 27 1z
m75 -35 c-8 -14 -25 -14 -25 0 0 5 5 7 10 4 6 -3 10 -1 10 6 0 7 3 10 6 6 3
-3 3 -10 -1 -16z m-1943 -73 c-7 -7 -12 -8 -12 -2 0 14 12 26 19 19 2 -3 -1
-11 -7 -17z m248 -8 c9 0 5 -88 -4 -97 -2 -3 -4 16 -3 41 0 25 -2 49 -6 52 -4
4 -6 14 -6 23 1 13 2 13 6 -1 2 -10 8 -18 13 -18z m-354 -251 c-18 -41 -21
-29 -4 18 7 19 14 30 16 25 1 -4 -4 -24 -12 -43z m229 -67 c-2 -3 -12 -1 -22
2 -15 6 -15 9 -3 16 13 8 35 -8 25 -18z m-100 -1 c-3 -6 -11 -8 -17 -5 -6 4
-5 9 3 15 16 10 23 4 14 -10z m1862 -40 c0 -11 -5 -18 -9 -15 -4 3 -5 11 -1
19 7 21 12 19 10 -4z m-1783 -426 c-4 -8 -8 -15 -10 -15 -2 0 -4 7 -4 15 0 8
4 15 10 15 5 0 7 -7 4 -15z m1419 -115 c3 -11 1 -18 -4 -14 -5 3 -9 -1 -10 -8
0 -7 -4 -4 -8 7 -5 11 -7 23 -4 28 8 13 21 7 26 -13z m424 0 c-1 -12 -8 -20
-18 -20 -15 0 -18 12 -10 38 1 1 7 2 15 2 9 0 14 -9 13 -20z m83 -130 c0 -13
-1 -13 -10 0 -5 8 -10 22 -10 30 0 13 1 13 10 0 5 -8 10 -22 10 -30z m-1150
-68 c0 -5 18 -16 40 -25 22 -8 40 -20 40 -26 0 -18 -14 -13 -58 19 -43 31 -50
40 -32 40 6 0 10 -4 10 -8z m1320 -202 c-1 -12 -4 -11 -15 4 -8 10 -12 23 -8
29 7 11 23 -12 23 -33z m802 -275 c7 -7 -14 -55 -24 -55 -4 0 -9 4 -13 9 -3 5
-17 -2 -31 -16 -24 -24 -27 -25 -36 -9 -6 11 -6 22 2 32 7 7 9 14 4 15 -10 1
65 27 82 28 6 1 13 -1 16 -4z m-971 -87 c11 -21 11 -22 -4 -9 -10 7 -17 17
-17 22 0 15 9 10 21 -13z m1045 -90 c5 -7 3 -8 -5 -3 -9 5 -9 0 1 -16 9 -14
13 -40 11 -64 -6 -60 -6 -86 0 -130 3 -24 -5 -91 -19 -164 -23 -115 -28 -127
-61 -162 -20 -21 -41 -36 -45 -33 -4 3 -8 1 -8 -4 0 -11 -48 -27 -70 -23 -8 2
-42 0 -76 -4 -45 -5 -64 -11 -69 -23 -12 -28 -15 -91 -4 -97 5 -4 4 -15 -3
-28 -7 -12 -11 -26 -9 -32 1 -5 -1 -7 -5 -3 -4 4 -14 2 -23 -4 -9 -7 -7 -1 5
12 27 32 42 62 16 33 -11 -12 -23 -19 -27 -15 -5 4 -5 2 -1 -5 3 -6 2 -14 -4
-18 -5 -3 -7 -18 -4 -33 4 -21 3 -24 -5 -12 -9 13 -11 12 -11 -4 0 -15 -3 -16
-14 -7 -11 9 -15 8 -20 -4 -3 -9 -2 -13 4 -10 6 3 10 0 10 -8 0 -20 -40 -29
-79 -17 -23 6 -30 6 -25 -3 3 -7 0 -5 -8 3 -7 8 -20 16 -28 18 -36 8 -40 52
-5 52 16 0 25 6 25 15 0 18 16 20 26 3 5 -7 2 -8 -7 -3 -8 4 -5 -1 6 -12 31
-30 53 -35 64 -14 6 10 7 21 4 25 -3 3 0 6 8 6 10 1 9 4 -4 11 -13 8 -15 14
-8 23 8 10 5 18 -11 32 -13 12 -18 13 -13 4 8 -13 7 -13 -9 0 -10 8 -25 15
-33 16 -28 4 -42 26 -40 62 2 34 5 37 32 38 58 2 175 46 175 65 0 10 49 4 90
-10 38 -14 120 -20 126 -9 3 5 12 7 20 4 36 -14 76 113 61 194 -10 56 -12 88
-6 120 3 19 -2 27 -18 35 -13 5 -23 13 -23 17 0 5 -8 8 -17 8 -21 1 -113 66
-113 80 0 6 11 10 23 10 13 0 27 3 31 8 7 7 12 8 39 11 12 1 31 14 91 63 24
20 52 23 62 6z m-2969 -172 c0 -14 -21 -16 -34 -2 -4 4 -3 6 2 4 6 -1 11 2 12
7 0 6 -2 9 -6 8 -4 -1 -8 5 -8 13 0 12 3 12 17 -1 9 -8 17 -21 17 -29z m38
-14 c-3 -3 0 -11 6 -19 17 -20 5 -16 -14 5 -15 16 -15 19 -2 19 8 0 13 -3 10
-5z m-42 -27 c4 -8 3 -16 -1 -19 -4 -3 -9 4 -9 15 -2 23 3 25 10 4z m27 -20
c-5 -6 -6 -16 -2 -20 4 -5 1 -5 -6 -1 -9 6 -10 12 -3 20 7 9 7 17 -2 26 -10
12 -9 12 6 1 12 -10 14 -17 7 -26z m1787 0 c0 -8 -4 -12 -9 -9 -5 3 -6 10 -3
15 9 13 12 11 12 -6z m-1806 -32 c10 -11 10 -14 2 -9 -9 5 -13 -1 -14 -21 l-1
-28 -7 30 c-11 45 -3 56 20 28z m2527 -11 c2 -7 -2 -10 -12 -6 -9 3 -16 1 -16
-5 0 -6 7 -11 16 -11 12 0 14 -7 9 -32 -10 -43 -9 -43 -44 -22 -30 18 -40 39
-22 46 5 2 11 10 13 18 6 30 47 39 56 12z m233 1 c1 -5 2 -34 4 -66 1 -31 8
-64 15 -72 7 -8 9 -15 5 -15 -4 0 -2 -7 5 -15 19 -23 5 -48 -22 -40 -17 5 -19
4 -9 -4 12 -8 9 -11 -15 -16 -16 -4 -33 -8 -39 -10 -5 -1 -23 5 -40 13 -16 9
-46 15 -65 15 -27 0 -28 1 -8 4 20 3 28 12 33 34 4 17 4 33 1 36 -8 9 24 43
41 43 7 0 18 11 23 25 5 14 12 25 15 25 4 0 3 -5 -1 -11 -4 -7 -1 -10 7 -7 8
3 14 11 15 19 2 33 31 68 35 42z m-2746 -22 c3 -5 2 -12 -3 -15 -5 -3 -9 1 -9
9 0 17 3 19 12 6z m3505 -11 c-8 -5 -19 -10 -25 -10 -5 0 -3 5 5 10 8 5 20 10
25 10 6 0 3 -5 -5 -10z m-1049 -60 c24 -13 24 -35 1 -52 -20 -14 -84 -103 -95
-130 -3 -10 -11 -18 -16 -18 -10 0 -9 8 5 45 4 11 9 27 10 35 11 56 18 77 32
93 8 9 12 17 8 17 -4 0 -4 5 -1 10 8 13 31 13 56 0z m-2501 -156 c0 -8 -5 -12
-10 -9 -6 4 -8 11 -5 16 9 14 15 11 15 -7z m131 -77 c-16 -16 -26 0 -10 19 9
11 15 12 17 4 2 -6 -1 -17 -7 -23z m29 -77 c0 -5 -5 -10 -11 -10 -5 0 -7 5 -4
10 3 6 8 10 11 10 2 0 4 -4 4 -10z m2690 1 c0 -7 -27 -20 -53 -25 -4 0 -11 -7
-16 -14 -7 -11 -9 -11 -14 2 -6 16 25 41 36 30 3 -3 14 -1 24 5 22 13 23 13
23 2z m-1330 -86 c0 -25 -4 -45 -8 -45 -5 0 -7 17 -6 38 3 49 3 52 9 52 3 0 5
-20 5 -45z m407 -6 c-7 -11 -15 -15 -20 -10 -12 12 -2 28 17 28 11 0 12 -4 3
-18z m-1497 -185 c0 -8 -4 -14 -10 -14 -5 0 -10 9 -10 21 0 11 5 17 10 14 6
-3 10 -13 10 -21z m-628 -100 c-2 -11 -8 -23 -14 -29 -8 -7 -9 -5 -4 5 4 8 0
6 -8 -4 -15 -19 -22 -12 -17 17 1 4 -6 10 -14 13 -24 10 -10 19 27 18 27 -1
32 -5 30 -20z m3388 -24 c0 -5 -7 -10 -16 -10 -8 0 -12 5 -9 10 3 6 10 10 16
10 5 0 9 -4 9 -10z m-1242 -1023 c18 7 43 -17 40 -36 -1 -9 0 -21 4 -26 11
-18 -66 -5 -81 13 -12 15 -13 15 -7 -3 6 -19 5 -19 -8 -2 -15 19 -31 24 -20 5
4 -7 3 -8 -5 -4 -18 11 30 66 49 56 8 -4 21 -5 28 -3z m-53 -77 c8 -13 -5 -13
-25 0 -13 8 -13 10 2 10 9 0 20 -4 23 -10z m0 -22 c5 4 5 1 1 -6 -6 -10 -11
-10 -22 -1 -8 6 -14 14 -14 16 0 3 6 0 13 -6 8 -6 18 -7 22 -3z m25 -83 c-7
-8 -16 -13 -20 -10 -5 3 -6 -3 -3 -14 3 -10 0 -22 -6 -25 -6 -4 -9 -1 -5 7 3
8 -2 17 -10 20 -20 8 -10 34 15 40 10 3 17 1 13 -4 -3 -5 0 -9 5 -9 6 0 12 10
12 23 1 17 2 18 6 4 3 -10 -1 -24 -7 -32z m121 -88 c-10 -9 -11 -8 -5 6 3 10
9 15 12 12 3 -3 0 -11 -7 -18z m-41 -6 c0 -13 -15 -21 -47 -27 l-26 -5 24 20
c26 22 49 27 49 12z m-989 -21 c6 0 7 -4 4 -10 -3 -6 1 -7 10 -4 25 10 169
-54 213 -93 7 -7 20 -13 28 -13 8 0 14 -3 14 -8 0 -4 14 -13 30 -20 17 -8 30
-19 30 -25 0 -7 20 -21 44 -31 25 -11 43 -24 40 -28 -3 -4 7 -13 23 -19 15 -6
23 -13 16 -16 -8 -3 -7 -10 5 -22 9 -10 20 -16 24 -14 3 2 5 -5 3 -14 -4 -25
13 -43 32 -36 11 4 14 2 9 -6 -5 -7 -2 -10 5 -9 7 2 18 -7 24 -20 8 -19 16
-23 42 -20 17 2 30 1 28 -3 -3 -3 8 -12 23 -18 18 -9 28 -9 30 -2 2 6 9 8 15
5 7 -4 2 3 -10 15 -13 12 -23 27 -23 34 0 7 -4 6 -10 -3 -8 -12 -10 -9 -10 13
0 15 -7 30 -15 33 -8 4 -12 11 -8 18 4 6 -1 5 -10 -3 -15 -12 -17 -11 -17 7 0
19 -29 53 -31 36 0 -5 -4 1 -9 14 -5 12 -15 22 -22 22 -9 0 -9 -3 -2 -8 10 -7
25 -35 30 -59 1 -7 -3 -16 -9 -20 -16 -10 -41 -13 -32 -5 4 4 11 7 16 7 12 0
12 20 -1 21 -22 3 -24 4 -12 16 15 15 16 32 2 23 -6 -4 -9 -1 -8 7 2 7 -4 12
-12 10 -8 -2 -11 0 -7 5 8 8 13 9 40 12 7 0 18 11 26 24 7 12 10 19 6 15 -5
-4 -15 -2 -24 5 -14 10 -14 10 -3 -5 11 -13 11 -18 0 -24 -7 -4 -10 -3 -5 1 4
5 -1 17 -10 28 -10 11 -13 18 -8 14 6 -3 17 -2 25 4 13 7 13 9 0 9 -13 0 -13
1 0 10 8 5 11 10 5 10 -5 0 -10 11 -10 25 0 27 10 33 18 13 3 -7 6 -4 7 7 2
17 3 16 10 -5 7 -21 8 -22 9 -5 1 11 6 27 12 35 9 13 10 12 5 -2 -3 -10 -1
-17 3 -15 5 1 8 -2 8 -8 -1 -5 -6 -9 -10 -7 -5 1 -5 -2 -2 -8 5 -8 12 -7 23 3
29 24 40 28 48 16 4 -7 3 -9 -4 -5 -6 3 -13 2 -16 -3 -6 -10 12 -10 29 0 21
12 46 18 41 11 -2 -4 5 -9 17 -9 16 -2 18 0 8 6 -10 7 -8 11 10 16 13 5 40 18
59 29 19 12 46 22 60 21 14 0 29 4 33 10 5 6 7 4 4 -5 -2 -8 0 -24 5 -35 7
-15 4 -13 -11 5 -12 14 -19 18 -15 9 3 -10 0 -20 -5 -24 -6 -3 -8 -11 -5 -17
4 -7 2 -8 -5 -4 -9 6 -9 12 1 24 12 15 11 16 -4 4 -10 -8 -16 -19 -15 -25 1
-7 -3 -11 -8 -10 -6 1 -12 -10 -13 -25 -1 -14 -7 -31 -13 -37 -7 -7 -8 -4 -3
10 8 21 6 20 -14 -6 -10 -14 -7 -16 31 -14 23 1 59 -4 79 -11 33 -12 36 -11
31 4 -5 14 -4 15 8 6 21 -16 51 -26 44 -14 -3 6 -4 10 0 10 3 0 10 -12 15 -26
6 -14 15 -22 20 -19 6 4 7 11 4 17 -4 7 -2 8 5 4 6 -4 9 -11 6 -16 -3 -5 4
-19 16 -31 15 -15 18 -23 9 -29 -8 -5 -7 -9 5 -14 11 -4 15 -12 11 -22 -6 -15
-4 -15 11 -3 9 8 14 9 10 2 -9 -14 2 -43 15 -43 6 0 8 7 5 15 -4 8 -1 17 5 21
7 4 8 3 4 -4 -4 -7 -1 -12 8 -12 8 0 18 5 22 12 4 7 3 8 -4 4 -7 -4 -12 -4
-13 1 0 4 -2 16 -4 26 -3 14 0 16 9 8 7 -6 17 -7 21 -3 5 4 5 0 0 -8 -4 -8 2
-5 14 7 11 12 21 30 21 39 0 10 3 15 6 12 8 -9 40 25 59 62 9 17 23 34 30 37
8 3 12 9 9 14 -3 5 -1 9 5 9 5 0 12 9 16 20 5 15 54 50 71 50 1 0 -2 -15 -7
-32 -5 -18 -8 -49 -8 -68 1 -19 3 -27 6 -17 2 9 9 17 14 17 15 0 -16 -65 -96
-203 -41 -71 -75 -132 -75 -137 0 -5 -52 -75 -116 -157 -76 -96 -177 -207
-290 -318 -96 -93 -174 -165 -174 -159 0 12 -54 54 -69 54 -6 0 -15 8 -20 19
-6 10 -22 22 -36 25 -14 4 -25 11 -25 17 0 5 -21 31 -46 57 -25 26 -52 61 -60
77 -31 64 -43 78 -90 101 -36 17 -41 22 -19 17 28 -6 27 -4 -20 35 -27 24 -54
47 -60 53 -5 5 -24 23 -41 40 -40 38 -110 179 -119 239 -4 25 -13 59 -20 75
-50 115 -74 250 -51 283 6 8 6 12 0 11 -21 -4 -35 2 -29 12 4 6 14 8 22 5 8
-3 19 -6 24 -6z m631 -69 c8 11 9 11 6 1 -4 -16 -22 -18 -25 -2 -1 7 0 6 4 -1
4 -8 8 -7 15 2z m245 -46 c0 -8 -4 -12 -9 -9 -5 3 -6 10 -3 15 9 13 12 11 12
-6z m-24 -8 c3 -8 2 -20 -3 -26 -5 -9 -7 -4 -7 13 0 29 2 32 10 13z m-478 -49
c5 4 5 1 1 -6 -6 -10 -11 -10 -22 -1 -8 6 -14 14 -14 16 0 3 6 0 13 -6 8 -6
18 -7 22 -3z m203 -144 c-3 -14 -5 -12 -10 9 -3 19 -2 25 4 19 6 -6 8 -18 6
-28z m-21 -30 c-7 -7 15 -34 24 -28 3 2 6 -4 6 -12 0 -11 -6 -9 -23 7 -21 19
-24 39 -7 39 4 0 4 -3 0 -6z m-3350 -2125 c10 -1 21 -1 26 0 4 0 7 -5 7 -11 1
-8 6 -5 15 5 11 15 21 17 47 12 29 -7 31 -9 13 -17 -17 -7 -16 -7 6 -3 25 4
84 -7 124 -25 11 -5 67 -22 125 -38 183 -52 304 -89 335 -102 41 -18 43 -18
105 -31 30 -6 66 -18 80 -27 14 -9 33 -15 44 -13 10 1 15 -2 12 -7 -3 -6 8
-15 25 -21 17 -6 28 -15 24 -20 -3 -6 -6 -26 -7 -45 -1 -19 -4 -33 -8 -31 -4
2 -7 -2 -7 -10 0 -8 3 -12 7 -10 4 2 7 -2 7 -10 0 -8 -4 -12 -8 -9 -4 2 -10 0
-14 -6 -3 -5 0 -10 7 -10 9 0 9 -3 -2 -10 -13 -9 -13 -10 0 -10 9 0 11 -3 5
-8 -12 -9 -16 -54 -4 -46 5 3 7 9 4 14 -3 5 -1 11 4 14 17 11 5 -26 -13 -39
-13 -10 -14 -14 -4 -18 8 -3 5 -6 -7 -6 -17 -1 -17 -3 -5 -11 13 -9 13 -10 0
-10 -13 0 -13 -1 0 -10 12 -8 12 -10 -5 -11 l-20 0 20 -9 20 -9 -20 0 c-11 -1
-16 -5 -10 -9 6 -4 10 -21 11 -38 0 -28 -2 -31 -28 -29 -27 3 -56 -24 -41 -38
10 -10 23 3 17 17 -3 7 2 13 10 13 8 0 12 -6 9 -15 -3 -7 -6 -23 -7 -35 -1
-14 -8 -22 -18 -21 -10 1 -14 -4 -11 -12 3 -8 10 -11 17 -7 6 3 7 2 3 -3 -5
-5 -14 -9 -20 -9 -7 0 -13 -6 -13 -12 -1 -7 -3 -16 -4 -20 -1 -5 -2 -11 -1
-15 0 -5 -3 -8 -7 -8 -4 0 -9 -12 -10 -27 -1 -15 -7 -30 -14 -34 -6 -4 -8 -14
-5 -23 3 -8 1 -18 -5 -22 -6 -4 -8 -3 -4 4 3 6 2 13 -2 16 -15 9 -31 -37 -28
-79 3 -46 -10 -71 -29 -55 -8 7 -10 2 -7 -19 3 -23 -1 -32 -19 -42 -13 -7 -26
-11 -29 -10 -15 6 -9 -33 7 -44 21 -16 34 -10 26 10 -3 8 0 15 5 15 6 0 9 -12
6 -26 -3 -16 1 -33 10 -43 9 -10 12 -22 7 -30 -6 -10 -10 -9 -15 4 -3 9 -10
14 -15 10 -5 -3 -12 -1 -16 5 -18 29 -41 -20 -24 -52 7 -13 6 -18 -3 -19 -10
0 -10 -2 1 -6 9 -4 10 -7 2 -12 -17 -11 -21 -43 -11 -87 6 -23 5 -43 -1 -50
-5 -6 -10 -28 -11 -48 -1 -22 -6 -36 -14 -36 -7 0 -20 -10 -29 -22 -8 -13 -18
-21 -22 -18 -3 3 -7 -2 -8 -11 -2 -9 3 -16 11 -16 11 0 11 4 2 16 -10 13 -10
14 2 3 8 -7 15 -24 16 -37 0 -14 -1 -23 -4 -20 -11 10 -33 -36 -27 -55 6 -20
-1 -24 -35 -21 -9 1 -11 -1 -5 -6 6 -4 11 -19 13 -31 3 -21 0 -23 -30 -20 -28
2 -33 0 -30 -17 2 -11 3 -29 4 -40 0 -11 2 -14 5 -7 3 6 9 12 15 12 6 0 5 -6
-2 -15 -7 -9 -15 -13 -18 -10 -3 3 -12 -1 -20 -8 -10 -8 -13 -8 -9 -1 4 7 0
14 -8 18 -8 3 -17 1 -20 -4 -4 -6 -1 -10 6 -10 9 0 8 -4 -1 -15 -9 -11 -17
-12 -31 -4 -14 7 -19 6 -19 -2 0 -8 -5 -7 -17 2 -12 10 -15 11 -9 1 9 -14 -12
-45 -24 -37 -5 3 -16 -2 -25 -12 -14 -14 -15 -18 -4 -27 8 -6 15 -17 17 -25 3
-12 0 -12 -13 -1 -13 11 -14 10 -9 -5 6 -14 4 -16 -6 -10 -10 6 -12 4 -7 -8 5
-13 1 -17 -18 -17 -14 0 -25 5 -25 10 0 6 -5 10 -11 10 -11 0 -40 -26 -39 -34
1 -3 5 -18 9 -34 7 -24 5 -29 -15 -39 -16 -7 -24 -8 -24 -1 0 6 -8 4 -17 -3
-14 -12 -16 -12 -9 1 4 8 0 6 -9 -5 -9 -11 -20 -19 -24 -18 -19 5 -5 -30 16
-38 13 -5 23 -11 23 -13 0 -3 -7 -3 -15 0 -9 4 -15 0 -15 -7 0 -12 -2 -12 -9
0 -9 14 -17 -2 -26 -48 -6 -27 -6 -27 -15 -6 -8 18 -9 19 -9 1 -1 -11 -6 -16
-15 -13 -7 3 -19 0 -25 -6 -6 -6 -11 -7 -11 -3 0 12 -34 -33 -54 -71 -18 -36
-20 -33 33 -37 8 -1 16 -7 17 -14 1 -7 0 -8 -3 -2 -3 7 -11 3 -20 -9 -8 -12
-23 -21 -34 -21 -10 0 -19 -4 -19 -8 0 -4 -13 -13 -29 -19 -25 -9 -29 -8 -27
6 2 8 14 18 27 21 21 5 24 11 24 57 0 28 3 54 7 58 4 4 4 -2 1 -14 -3 -13 -1
-21 6 -21 7 0 9 4 6 10 -3 6 -2 10 4 10 7 0 7 9 1 28 -9 25 -9 26 5 8 8 -11
15 -16 15 -11 0 5 -10 19 -21 31 -15 16 -19 28 -13 41 12 28 12 52 0 50 -6 -1
-10 4 -8 11 1 8 -2 11 -8 7 -6 -3 -8 -11 -5 -16 4 -5 -5 -9 -19 -9 -35 0 -33
8 11 50 20 19 33 30 30 24 -4 -7 0 -15 9 -18 10 -4 13 -2 8 6 -5 8 -1 9 12 4
18 -7 18 -6 -1 12 -11 11 -23 18 -26 16 -3 -2 -6 3 -6 11 0 7 11 16 24 20 32
8 30 35 -3 35 -20 0 -25 4 -20 17 6 16 6 16 -11 1 -10 -9 -31 -19 -47 -22
l-29 -5 21 22 c27 29 33 62 10 61 -9 -1 -14 4 -12 10 3 7 -2 24 -9 39 -15 28
-12 77 4 77 5 0 9 7 9 15 0 8 -4 15 -9 15 -13 0 -8 25 8 44 12 14 12 16 -3 10
-13 -5 -16 0 -16 24 0 28 21 48 44 43 5 -1 6 6 2 15 -5 12 -2 15 11 10 11 -4
9 1 -6 13 l-25 19 27 -5 c16 -3 27 -12 27 -21 0 -8 3 -13 6 -9 14 13 -8 47
-31 47 -16 0 -24 7 -27 24 -6 28 8 47 28 39 17 -6 19 13 2 23 -7 5 -9 2 -4 -7
4 -8 1 -5 -8 5 -8 10 -13 23 -9 29 3 6 1 7 -6 3 -6 -4 -9 -11 -6 -16 3 -4 -2
-11 -10 -14 -13 -4 -13 -2 -5 14 13 25 27 33 35 20 12 -19 24 0 20 30 -2 17 1
30 6 30 5 0 9 9 9 20 0 11 4 20 9 20 5 0 8 15 8 34 -1 31 -3 33 -20 24 -14 -7
-22 -7 -28 3 -10 17 -10 17 23 21 15 2 31 7 35 12 4 4 1 6 -7 4 -8 -2 -14 2
-15 9 0 18 -12 25 -21 12 -4 -7 -3 -10 3 -6 5 3 10 0 10 -8 0 -11 -4 -12 -14
-4 -7 6 -10 15 -7 20 3 5 0 17 -6 28 -9 17 -7 19 10 16 16 -3 20 2 21 28 1 18
1 35 0 40 0 4 5 7 12 7 8 0 7 4 -3 10 -8 5 -10 10 -5 10 6 0 10 15 10 34 0 23
-4 32 -13 29 -10 -4 -10 -9 0 -22 8 -11 5 -10 -10 3 -12 11 -22 16 -22 11 0
-4 -6 -2 -13 4 -8 6 -16 9 -18 7 -2 -3 -3 15 -2 39 1 35 -1 43 -13 38 -8 -3
-14 -1 -14 4 0 17 13 23 27 12 7 -6 13 -8 13 -4 0 4 6 2 14 -4 15 -13 51 -10
51 3 0 5 10 12 23 17 24 9 26 16 13 38 -8 12 -12 12 -25 2 -13 -11 -16 -11
-16 3 0 9 -5 16 -11 16 -5 0 -8 4 -5 9 8 12 -4 42 -13 36 -4 -2 -8 2 -8 10 0
8 4 12 8 10 9 -6 20 58 17 108 -1 31 -5 37 -24 37 -13 0 -26 5 -30 11 -4 7 0
9 12 5 17 -5 19 -1 18 29 -1 20 4 42 12 50 10 9 11 16 3 20 -7 5 -8 10 0 18 7
7 7 16 0 29 -5 10 -6 18 -2 17 21 -3 24 2 12 18 -10 11 -10 14 -1 9 6 -4 12
-2 12 3 0 6 -3 11 -7 12 -5 0 -16 2 -25 4 -10 2 -20 -1 -24 -6 -8 -14 -24 0
-17 16 3 8 0 15 -6 15 -6 0 -10 -3 -9 -7 1 -5 -2 -30 -6 -58 -7 -38 -10 -45
-16 -30 -4 11 -3 26 2 32 6 7 8 26 6 43 -3 21 0 30 9 30 10 0 12 11 9 40 -3
22 -1 40 4 40 5 0 9 -15 9 -32 -1 -18 4 -44 10 -58 11 -24 11 -24 5 5 -7 36
-7 35 -4 65 1 23 2 23 10 5 5 -11 9 -14 9 -7 1 6 8 12 16 12 16 0 21 35 6 44
-5 3 -8 -2 -7 -11 1 -12 -7 -18 -21 -19 -13 -1 -23 3 -23 9 0 5 10 7 23 4 21
-6 22 -6 2 9 -17 13 -18 17 -7 35 8 12 9 18 4 15 -5 -3 -12 24 -15 61 -5 72 5
102 36 97 9 -1 17 2 17 7 0 6 5 7 12 3 8 -5 8 -3 2 7 -11 17 -13 59 -2 53 4
-3 8 0 8 5 0 6 -4 11 -8 11 -11 0 -9 31 3 49 7 12 10 10 16 -7 5 -12 16 -23
26 -23z m20 15 c-3 -3 -12 -4 -19 -1 -8 3 -5 6 6 6 11 1 17 -2 13 -5z m-140
-741 c-3 -10 -5 -4 -5 12 0 17 2 24 5 18 2 -7 2 -21 0 -30z m34 18 c-7 -11 -7
-30 -1 -50 5 -17 5 -33 0 -36 -14 -9 -22 66 -11 103 1 1 6 2 11 2 7 0 7 -6 1
-19z m-25 -86 c10 -24 11 -41 5 -53 -9 -17 -11 -24 -11 -42 0 -5 -4 -10 -10
-10 -5 0 -9 30 -8 70 0 39 3 70 5 70 2 0 11 -16 19 -35z m827 -365 c3 -11 3
-20 1 -20 -2 0 -8 9 -14 20 -6 11 -7 20 -2 20 6 0 12 -9 15 -20z m611 -115
c54 -23 200 -50 566 -104 254 -38 379 -37 760 9 91 11 209 28 262 37 95 16
100 16 215 -6 235 -45 261 -54 488 -161 290 -136 795 -216 1330 -209 220 3
325 12 366 33 18 9 35 16 38 16 13 -1 -46 -41 -86 -59 -35 -16 -46 -29 -72
-85 -17 -36 -31 -69 -31 -74 0 -4 -12 -32 -26 -62 -26 -54 -34 -77 -38 -115
-2 -11 -9 -20 -17 -20 -9 0 -14 -11 -14 -33 0 -22 -7 -39 -19 -48 -11 -8 -14
-14 -8 -14 7 0 12 -7 12 -15 0 -8 -5 -15 -11 -15 -5 0 -7 -4 -4 -10 3 -5 2
-10 -4 -10 -5 0 -8 -9 -6 -20 2 -13 -2 -20 -11 -20 -8 0 -15 -7 -15 -15 -1 -8
-2 -21 -3 -27 -1 -7 -5 -16 -11 -20 -6 -5 -5 -8 3 -8 18 0 -11 -30 -30 -30
-11 0 -11 -2 0 -9 10 -6 9 -10 -7 -14 -12 -3 -21 -11 -21 -19 0 -10 3 -9 11 2
9 13 10 13 6 0 -2 -8 -11 -14 -20 -14 -9 1 -13 -4 -10 -12 3 -8 9 -12 13 -9 5
3 7 -3 6 -12 -2 -10 2 -22 8 -26 7 -6 6 -7 -4 -4 -8 2 -14 9 -13 14 1 5 -5 10
-13 10 -8 0 -12 -3 -9 -5 9 -9 -17 -32 -29 -25 -6 3 -7 2 -3 -2 9 -11 37 -16
36 -7 -3 19 3 23 16 12 13 -11 12 -15 -6 -31 -15 -13 -17 -19 -8 -19 11 0 12
-2 1 -9 -8 -4 -13 -11 -13 -15 3 -22 -1 -28 -19 -23 -11 3 -20 1 -20 -4 0 -5
4 -9 9 -9 5 0 8 -8 6 -17 -2 -10 -4 -22 -4 -26 -1 -5 -6 -5 -13 -1 -8 5 -9 2
-5 -9 4 -10 2 -16 -5 -14 -7 1 -12 -2 -13 -8 -1 -23 -17 -36 -30 -25 -14 11
-26 -13 -29 -59 -1 -14 -9 -25 -19 -27 -13 -2 -15 2 -7 16 7 13 5 21 -5 30
-13 11 -14 10 -9 -3 3 -9 1 -24 -5 -34 -6 -10 -11 -13 -11 -6 0 7 -9 10 -21 8
-16 -3 -18 -1 -10 9 6 7 7 16 3 20 -4 4 -1 6 7 4 16 -3 17 22 7 92 -4 25 -3
29 3 15 5 -11 6 -24 3 -29 -3 -5 0 -6 6 -2 6 4 9 13 5 21 -3 9 1 23 8 33 13
15 12 16 -3 3 -14 -10 -18 -10 -18 -1 0 9 -3 10 -13 1 -10 -8 -14 -7 -14 4 0
8 4 12 9 9 4 -3 8 -1 8 3 0 5 7 18 15 29 11 14 14 15 9 3 -3 -10 1 -20 8 -25
7 -4 10 -3 5 1 -4 5 5 22 20 38 16 17 22 27 16 23 -14 -8 -18 14 -5 30 4 5 5
8 3 7 -2 -2 -10 2 -17 8 -8 7 -14 6 -20 -2 -4 -7 -3 -9 4 -5 6 3 13 2 16 -3 3
-5 -4 -11 -15 -14 -13 -4 -18 -10 -13 -18 4 -8 3 -10 -5 -5 -6 4 -8 13 -4 19
4 7 8 15 9 20 1 4 3 10 4 15 6 18 4 37 -3 43 -5 3 -1 13 8 23 9 9 12 16 6 16
-14 0 -29 -31 -25 -54 1 -11 0 -25 -4 -30 -3 -6 -7 -17 -8 -24 -3 -18 -14 -29
-14 -13 0 7 -5 9 -10 6 -6 -4 -8 -12 -4 -18 3 -7 -5 -1 -17 13 -22 24 -22 25
-16 2 3 -12 2 -20 -3 -17 -4 3 -11 -2 -14 -11 -3 -8 -10 -13 -15 -10 -5 4 -11
3 -14 -1 -2 -5 -2 -3 -1 4 2 7 0 14 -4 17 -4 2 -9 -7 -10 -21 -2 -31 -11 -45
-23 -38 -5 4 -9 -3 -9 -14 0 -23 -16 -36 -25 -21 -4 6 -12 7 -18 3 -7 -4 -16
-8 -22 -8 -5 -1 -9 -6 -8 -12 1 -6 -5 -10 -15 -8 -9 1 -20 -5 -24 -14 -6 -13
-7 -12 -5 4 1 11 8 20 16 20 7 0 20 11 28 25 14 23 14 24 -1 6 -9 -11 -16 -16
-16 -12 0 5 -6 3 -13 -3 -8 -6 -17 -7 -21 -3 -4 4 -7 2 -6 -3 6 -28 -2 -45
-20 -45 -23 0 -90 -40 -90 -54 0 -5 10 -1 23 10 12 10 16 12 10 4 -10 -11 -10
-17 0 -29 11 -14 10 -14 -5 -2 -15 11 -18 11 -18 0 -1 -8 -7 -3 -15 11 -8 14
-14 19 -15 12 0 -7 -4 -11 -9 -8 -5 4 -7 -3 -4 -13 3 -11 -2 -30 -11 -42 -10
-15 -12 -27 -6 -34 7 -8 5 -12 -4 -12 -9 0 -12 8 -9 21 2 12 5 26 5 33 1 7 4
10 8 8 4 -2 7 2 7 10 0 10 -4 12 -12 5 -7 -5 -14 -8 -16 -5 -3 2 -5 -8 -6 -23
-2 -47 -7 -71 -14 -66 -4 2 -10 -3 -13 -12 -5 -14 -9 -14 -23 -3 -15 13 -15
12 -5 -7 9 -16 8 -21 -3 -21 -8 0 -12 4 -9 9 3 4 0 8 -6 8 -6 0 -8 5 -4 12 4
7 3 8 -4 4 -14 -9 2 -52 18 -48 6 1 9 -2 5 -8 -4 -7 -12 -7 -18 -2 -7 4 -23 8
-37 7 -14 0 -28 4 -32 10 -5 6 -8 6 -8 -2 0 -6 5 -15 10 -18 17 -10 2 -24 -20
-18 -12 3 -20 0 -20 -6 0 -7 -5 -9 -12 -5 -8 5 -9 2 -4 -11 5 -14 4 -16 -8 -6
-11 9 -21 4 -49 -24 -22 -22 -38 -31 -42 -25 -5 8 -14 5 -27 -7 -11 -10 -23
-17 -27 -17 -11 2 -51 -19 -51 -28 0 -4 -6 -8 -14 -8 -8 0 -22 -8 -33 -17 -10
-10 -12 -13 -3 -8 13 9 13 8 2 -7 -8 -10 -20 -14 -29 -11 -10 4 -14 2 -10 -4
3 -5 1 -10 -6 -10 -14 -1 -66 -11 -119 -22 -21 -5 -38 -7 -38 -5 0 3 -8 0 -18
-5 -11 -6 -38 -11 -61 -12 -23 -2 -45 -7 -47 -11 -3 -4 -24 -8 -48 -8 -23 0
-46 -3 -50 -7 -4 -5 -13 -8 -18 -8 -6 0 -13 -7 -15 -15 -4 -13 -3 -13 6 0 9
12 11 13 11 1 0 -8 3 -11 7 -8 3 4 12 2 19 -3 13 -12 41 -19 93 -25 19 -2 39
-10 45 -16 8 -9 7 -10 -4 -4 -8 5 -12 4 -7 0 4 -5 20 -11 35 -13 15 -2 30 -9
34 -15 6 -9 12 -9 28 1 32 20 68 -9 61 -50 -1 -7 23 -12 42 -9 5 1 6 -3 3 -8
-3 -5 1 -12 10 -15 8 -3 13 -10 9 -15 -3 -5 0 -13 6 -17 7 -4 9 -3 5 4 -3 6
-1 14 5 18 7 4 9 3 5 -4 -3 -6 -2 -13 3 -17 6 -3 7 -13 4 -22 -5 -12 -3 -14 7
-8 9 6 11 4 5 -5 -6 -10 -3 -12 11 -7 18 7 18 6 2 -6 -12 -10 -14 -17 -7 -24
8 -8 7 -13 -2 -18 -7 -5 -10 -4 -5 3 3 6 2 13 -4 17 -6 4 -8 10 -6 14 3 4 -1
8 -9 8 -8 0 -13 -3 -10 -5 9 -9 -17 -32 -28 -25 -6 4 -7 1 -3 -6 6 -9 13 -8
26 4 18 16 19 16 17 -2 -1 -15 -7 -19 -26 -17 -14 1 -32 -3 -40 -9 -12 -10
-13 -9 -6 3 8 13 7 13 -8 1 -9 -7 -17 -10 -17 -6 0 4 -12 0 -26 -10 -15 -9
-24 -13 -20 -7 3 5 -3 12 -14 15 -13 3 -18 1 -13 -5 4 -7 1 -8 -8 -2 -8 4 -48
9 -89 10 -45 2 -87 9 -105 18 -16 9 -38 16 -47 16 -10 0 -18 5 -18 11 0 5 -4
8 -10 4 -21 -13 -194 88 -274 160 -13 11 -48 37 -79 59 -31 21 -57 42 -57 46
0 11 -47 58 -90 90 -18 14 -58 48 -88 77 -31 29 -60 49 -65 46 -6 -4 -7 -1 -2
6 9 16 -61 81 -87 81 -10 0 -18 5 -18 12 0 6 -3 8 -7 5 -3 -4 -13 2 -21 14
-11 16 -17 17 -28 8 -8 -6 -14 -8 -14 -4 0 5 -10 0 -22 -11 -13 -10 -18 -12
-12 -4 6 8 10 23 8 33 -2 17 -1 17 15 3 15 -14 18 -14 18 -1 0 8 -3 12 -7 10
-4 -3 -15 4 -25 15 -10 11 -21 17 -26 15 -4 -3 -10 -1 -14 5 -4 6 -10 8 -15 5
-5 -3 -13 3 -19 12 -6 10 -11 13 -11 7 0 -16 25 -35 35 -26 5 4 5 1 1 -6 -6
-9 -11 -10 -20 -3 -7 6 -16 7 -20 3 -4 -4 -7 -2 -6 3 1 6 2 19 1 30 -1 17 -3
18 -11 5 -8 -12 -10 -12 -10 5 0 17 -2 17 -10 5 -7 -11 -10 -12 -10 -2 0 7 -7
20 -15 28 -15 16 -21 6 -7 -12 4 -5 -3 1 -16 13 -27 27 -40 30 -21 6 12 -16
12 -17 -2 -6 -9 7 -19 10 -23 6 -4 -4 -4 0 -1 9 4 9 1 19 -6 24 -7 4 -10 3 -6
-3 3 -5 0 -10 -8 -10 -8 0 -14 3 -13 6 2 18 -3 31 -13 31 -5 0 -7 -6 -3 -12 4
-7 -5 -2 -19 11 -15 14 -27 32 -27 40 0 14 -1 14 -10 1 -5 -8 -10 -10 -10 -5
0 6 -9 16 -21 23 -15 10 -19 10 -14 1 6 -8 4 -10 -4 -4 -7 4 -11 18 -8 31 5
30 -1 31 -14 2 -9 -22 -9 -21 -6 4 2 15 1 25 -4 23 -4 -3 -9 0 -12 7 -2 7 -2
3 -1 -9 2 -12 -1 -25 -8 -29 -6 -4 -8 -3 -5 4 10 15 -3 43 -16 35 -6 -4 -7 -1
-1 8 5 8 9 19 9 24 2 14 -26 45 -39 45 -6 0 -5 -4 2 -9 11 -7 10 -9 -3 -14 -9
-4 -14 -3 -11 1 2 4 -2 18 -11 32 -8 14 -12 17 -9 7 4 -11 2 -16 -5 -11 -6 3
-8 18 -5 33 5 19 4 22 -4 11 -8 -13 -10 -12 -11 5 -1 11 -1 23 0 27 0 5 -5 7
-12 5 -6 -1 -11 4 -9 11 1 8 -2 11 -8 7 -8 -5 -6 -13 6 -26 9 -11 14 -22 11
-26 -4 -3 -7 -1 -7 6 0 7 -5 9 -12 5 -6 -4 -8 -3 -4 4 3 6 1 14 -5 17 -5 4 -8
14 -4 22 4 12 2 13 -7 5 -10 -7 -18 -3 -32 16 l-20 27 21 -18 c17 -15 23 -16
29 -5 4 7 3 10 -1 5 -5 -4 -16 0 -25 8 -10 9 -24 15 -31 13 -8 -2 -13 4 -11
13 1 9 -6 23 -15 30 -17 13 -17 13 -3 -6 14 -18 14 -19 -1 -7 -9 7 -15 23 -13
37 1 14 -2 23 -7 19 -5 -3 -9 3 -10 13 0 12 -2 13 -6 5 -4 -10 -11 -8 -29 9
-13 12 -24 28 -24 36 0 7 -8 13 -17 13 -15 0 -16 2 -3 10 12 7 12 10 1 10 -8
0 -11 6 -7 16 3 8 2 13 -3 10 -13 -9 -56 29 -56 49 0 18 -13 28 -49 39 -16 5
-16 9 -5 23 10 12 10 14 2 9 -8 -4 -13 -1 -13 9 0 9 -4 14 -9 11 -5 -3 -11 1
-14 8 -3 8 -1 17 6 20 8 3 6 5 -3 5 -8 1 -23 15 -32 32 -11 19 -22 27 -30 23
-8 -5 -9 -2 -5 9 3 9 2 19 -4 22 -12 8 -36 64 -61 145 -11 36 -28 91 -39 122
-10 32 -22 82 -25 113 -4 31 -11 58 -15 61 -5 3 -9 20 -9 38 0 41 -17 94 -42
125 -30 39 -20 45 19 11 20 -18 50 -38 67 -45z m-588 -9 c1 -8 -5 -13 -15 -12
-15 3 -22 22 -13 39 5 11 25 -8 28 -27z m299 -388 c-4 -22 -3 -28 3 -20 7 11
11 9 15 -8 3 -13 12 -20 23 -18 9 2 19 -4 21 -12 4 -13 3 -13 -6 0 -6 8 -11
10 -11 4 0 -28 38 -19 67 16 10 12 12 -16 12 -145 -1 -88 -3 -152 -6 -142 -2
9 -9 14 -15 11 -5 -3 -26 -8 -46 -9 -20 -2 -41 -4 -45 -4 -5 -1 -5 -5 -2 -11
3 -5 1 -10 -4 -10 -6 0 -11 -9 -11 -19 0 -26 59 -61 104 -61 41 0 48 -10 50
-67 1 -35 0 -36 -44 -40 -68 -7 -72 -19 -20 -63 25 -22 53 -46 63 -55 9 -8 19
-15 22 -15 14 0 105 -86 105 -99 0 -13 -90 -38 -160 -45 -143 -14 -170 -18
-170 -24 0 -7 261 -8 295 -1 12 2 19 -1 18 -8 -2 -7 3 -13 10 -13 8 0 22 -10
33 -21 10 -12 30 -26 44 -31 l25 -10 -23 -9 c-14 -5 -59 -3 -120 6 -123 19
-189 19 -208 1 -7 -8 -19 -16 -26 -19 -31 -11 3 -17 43 -8 24 6 71 10 104 9
33 0 49 -3 35 -5 -26 -5 -40 -19 -40 -41 0 -8 5 -10 13 -6 8 5 9 4 2 -4 -5 -6
-22 -13 -37 -16 -14 -2 -35 -9 -45 -14 -10 -6 -21 -10 -25 -11 -13 -2 -12 -5
1 -26 11 -18 12 -18 7 -1 -5 15 -4 16 6 8 8 -6 52 -12 100 -13 48 -2 85 -6 82
-9 -3 -3 -7 -3 -8 0 -2 3 -11 -2 -21 -10 -11 -9 -16 -10 -11 -2 4 6 2 12 -3
12 -6 0 -11 -7 -11 -15 0 -8 -5 -15 -11 -15 -5 0 -7 6 -3 13 6 9 5 9 -8 0 -8
-7 -18 -11 -21 -8 -4 3 -5 2 -2 -2 3 -3 -1 -13 -8 -21 -9 -13 -9 -14 1 -8 7 4
12 1 12 -8 0 -9 -4 -16 -10 -16 -5 0 -12 0 -15 0 -3 0 -32 -13 -65 -30 -42
-21 -58 -34 -54 -45 5 -11 -1 -15 -19 -15 -14 0 -60 -18 -103 -39 -43 -22 -80
-38 -82 -36 -2 1 -6 75 -9 163 -6 164 5 324 33 457 8 39 28 135 44 215 44 213
111 488 126 512 11 18 15 6 9 -24z m4674 -248 c12 -112 50 -370 75 -510 9 -47
16 -98 16 -115 l-1 -30 -13 30 c-7 17 -11 33 -9 38 2 4 -3 10 -11 13 -9 3 -13
11 -9 17 4 6 0 8 -10 4 -9 -3 -21 1 -29 11 -12 15 -11 16 4 4 13 -11 18 -11
24 0 4 7 4 10 -1 6 -4 -4 -14 -3 -22 4 -11 9 -15 7 -19 -10 -3 -11 -17 -23
-30 -26 -13 -4 -24 -10 -24 -15 0 -5 -14 -23 -31 -40 -17 -17 -28 -35 -25 -40
7 -11 -44 -62 -55 -55 -5 3 -12 -2 -15 -10 -3 -9 -10 -14 -14 -11 -11 7 -20
-9 -26 -43 -3 -23 -2 -24 7 -9 7 12 15 15 22 9 17 -13 70 -9 75 6 6 20 62 44
87 38 14 -4 27 0 34 8 7 8 30 17 52 21 31 5 39 11 40 28 1 20 2 20 9 -3 12
-38 12 -119 0 -100 -7 11 -10 11 -10 2 0 -7 -4 -11 -9 -8 -10 7 -88 -42 -150
-94 -25 -21 -64 -47 -86 -59 -22 -12 -47 -25 -55 -30 -56 -31 -59 -31 -69 -12
-8 15 -5 25 12 47 12 16 25 30 29 32 5 2 2 13 -6 23 -16 24 -10 59 10 59 12 0
12 4 2 20 -9 14 -14 16 -20 7 -5 -8 -8 -7 -8 5 0 11 -6 15 -20 11 -35 -9 -21
11 21 31 50 23 60 46 64 161 2 62 1 75 -3 40 l-7 -50 -8 65 c-4 36 -9 110 -12
165 -5 91 -4 104 14 126 11 14 23 50 27 80 7 55 19 81 91 204 23 39 47 88 54
109 l14 39 7 -44 c4 -24 12 -91 17 -149z m-5189 112 c0 -15 -2 -15 -10 -2 -13
20 -13 33 0 25 6 -3 10 -14 10 -23z m-620 -518 c0 -8 -5 -12 -10 -9 -6 4 -8
11 -5 16 9 14 15 11 15 -7z m2086 -190 c2 -12 -1 -13 -12 -3 -7 6 -11 16 -8
21 7 11 17 3 20 -18z m2774 -8 c0 -3 -4 -8 -10 -11 -5 -3 -10 -1 -10 4 0 6 5
11 10 11 6 0 10 -2 10 -4z m985 -25 c3 -5 2 -12 -3 -15 -5 -3 -9 1 -9 9 0 17
3 19 12 6z m-8257 -56 c-3 -3 -9 2 -12 12 -6 14 -5 15 5 6 7 -7 10 -15 7 -18z
m3939 -11 c-3 -3 -12 -4 -19 -1 -8 3 -5 6 6 6 11 1 17 -2 13 -5z m-3917 -108
c0 -2 -8 -10 -17 -17 -16 -13 -17 -12 -4 4 13 16 21 21 21 13z m6793 -16 c3
-11 1 -18 -4 -14 -5 3 -9 12 -9 20 0 20 7 17 13 -6z m-2983 -6 c0 -8 -19 -13
-24 -6 -3 5 1 9 9 9 8 0 15 -2 15 -3z m-116 -55 c-3 -5 -10 -7 -15 -3 -5 3 -7
10 -3 15 3 5 10 7 15 3 5 -3 7 -10 3 -15z m3476 -14 c0 -5 -5 -3 -10 5 -5 8
-10 20 -10 25 0 6 5 3 10 -5 5 -8 10 -19 10 -25z m1126 4 c2 -5 10 -6 18 -3 7
3 13 -1 14 -8 1 -7 5 -28 8 -45 7 -37 4 -39 -34 -19 -24 12 -42 17 -122 32
-40 8 -44 21 -14 38 29 16 121 19 130 5z m-3389 -21 c-3 -8 -6 -5 -6 6 -1 11
2 17 5 13 3 -3 4 -12 1 -19z m3280 -60 c15 -7 43 -23 62 -35 18 -13 37 -20 41
-18 5 3 12 0 15 -5 5 -8 13 -6 25 5 16 15 17 12 24 -46 3 -34 6 -75 6 -92 0
-25 -2 -28 -15 -17 -8 7 -13 16 -10 20 3 4 -3 14 -13 21 -15 13 -16 12 -4 -3
7 -9 9 -19 4 -22 -11 -6 -69 50 -115 111 -22 29 -42 44 -64 49 -18 3 -33 10
-33 15 0 5 -7 6 -15 3 -8 -4 -15 -1 -15 4 0 22 67 27 107 10z m-4580 -14 c-3
-3 -12 -4 -19 -1 -8 3 -5 6 6 6 11 1 17 -2 13 -5z m2903 -48 c0 -2 -8 -10 -17
-17 -16 -13 -17 -12 -4 4 13 16 21 21 21 13z m1549 -65 c115 -36 281 -151 267
-186 -4 -13 -2 -14 14 -5 10 5 20 7 23 3 2 -5 2 -47 -1 -94 l-4 -87 -86 57
c-110 73 -125 81 -192 101 -30 9 -54 22 -53 27 1 6 -10 8 -25 6 -17 -2 -21 0
-12 4 23 12 23 34 -1 40 -16 4 -19 11 -14 27 15 50 13 69 -11 91 -43 40 -3 46
95 16z m-1675 -9 c3 -5 -1 -9 -9 -9 -8 0 -12 4 -9 9 3 4 7 8 9 8 2 0 6 -4 9
-8z m1596 -61 c0 -5 -8 -15 -17 -22 -16 -12 -17 -12 -6 2 7 9 10 19 6 22 -3 4
-1 7 5 7 7 0 12 -4 12 -9z m-8033 -173 c-2 -24 -4 -5 -4 42 0 47 2 66 4 43 2
-24 2 -62 0 -85z m4927 -136 c-2 -18 0 -22 9 -13 9 9 16 6 30 -11 10 -13 16
-16 12 -8 -4 8 1 6 9 -4 9 -11 16 -16 16 -10 0 5 5 1 11 -10 9 -15 13 -16 21
-5 7 12 9 11 7 -1 -3 -27 1 -41 9 -36 12 7 54 -33 47 -44 -3 -5 0 -12 6 -16 8
-5 9 -3 4 6 -6 9 -4 11 4 6 7 -5 10 -14 7 -21 -3 -8 2 -11 15 -8 13 4 21 -2
29 -21 6 -18 14 -25 22 -20 7 4 10 4 6 -1 -4 -4 -2 -15 5 -24 11 -14 10 -15
-7 -1 -18 14 -19 13 -13 -5 7 -19 7 -19 -8 -1 -8 10 -12 22 -10 27 3 4 1 10
-4 14 -6 3 -8 -6 -5 -22 4 -28 4 -28 -9 -5 -7 12 -16 20 -20 16 -4 -4 -1 -14
6 -23 10 -14 10 -14 -5 -3 -9 8 -21 11 -26 8 -5 -3 -18 2 -28 10 -10 9 -14 13
-7 10 6 -4 14 -2 18 3 3 6 -4 8 -16 6 -13 -3 -28 3 -36 13 -9 11 -12 12 -7 2
4 -9 -1 -7 -13 5 -12 11 -21 22 -21 25 0 22 -4 30 -12 25 -6 -4 -9 -3 -8 2 2
4 -10 25 -25 45 -33 43 -48 115 -25 115 10 0 14 -9 12 -25z m-4917 -54 c-3 -8
-6 -5 -6 6 -1 11 2 17 5 13 3 -3 4 -12 1 -19z m83 -68 c0 -11 -2 -20 -4 -20
-2 0 -6 9 -9 20 -3 11 -1 20 4 20 5 0 9 -9 9 -20z m6094 -8 c3 -5 -1 -9 -9 -9
-8 0 -12 4 -9 9 3 4 7 8 9 8 2 0 6 -4 9 -8z m-6177 -154 c-2 -13 -4 -3 -4 22
0 25 2 35 4 23 2 -13 2 -33 0 -45z m7 -114 c3 -8 2 -12 -4 -9 -6 3 -10 10 -10
16 0 14 7 11 14 -7z m121 -153 c3 -5 2 -12 -3 -15 -5 -3 -9 1 -9 9 0 17 3 19
12 6z m2425 -61 c0 -5 -5 -10 -11 -10 -5 0 -7 5 -4 10 3 6 8 10 11 10 2 0 4
-4 4 -10z m-20 -139 c0 -6 -4 -12 -8 -15 -5 -3 -9 1 -9 9 0 8 4 15 9 15 4 0 8
-4 8 -9z m-75 -461 c-3 -5 -13 -10 -21 -10 -8 0 -14 5 -14 10 0 6 9 10 21 10
11 0 17 -4 14 -10z m-45 -24 c0 -3 -4 -8 -10 -11 -5 -3 -10 -1 -10 4 0 6 5 11
10 11 6 0 10 -2 10 -4z m7390 -317 c0 7 4 10 10 6 5 -3 2 -13 -8 -24 -21 -22
-23 -20 -27 15 -2 26 -2 27 11 9 8 -10 14 -13 14 -6z m-183 -51 c-3 -8 -6 -5
-6 6 -1 11 2 17 5 13 3 -3 4 -12 1 -19z m-42 -18 c-4 -12 -9 -19 -12 -17 -3 3
-2 15 2 27 4 12 9 19 12 17 3 -3 2 -15 -2 -27z"/>
<path d="M5955 13460 c3 -5 8 -10 11 -10 2 0 4 5 4 10 0 6 -5 10 -11 10 -5 0
-7 -4 -4 -10z"/>
<path d="M5471 13118 c-19 -30 -21 -56 -5 -69 10 -8 13 -4 12 18 -1 15 2 38 6
51 9 28 5 28 -13 0z"/>
<path d="M5447 13043 c-4 -3 -7 -11 -7 -17 0 -6 5 -4 10 4 6 10 10 11 10 3 0
-7 7 -13 15 -13 8 0 15 5 15 12 0 6 -3 8 -7 5 -3 -4 -11 -2 -18 3 -7 5 -15 7
-18 3z"/>
<path d="M5291 13024 c0 -11 3 -14 6 -6 3 7 2 16 -1 19 -3 4 -6 -2 -5 -13z"/>
<path d="M5500 13030 c0 -5 5 -10 11 -10 5 0 7 5 4 10 -3 6 -8 10 -11 10 -2 0
-4 -4 -4 -10z"/>
<path d="M5245 12979 c-4 -6 -5 -12 -2 -15 2 -3 7 2 10 11 7 17 1 20 -8 4z"/>
<path d="M6750 12896 c0 -9 5 -16 10 -16 6 0 10 4 10 9 0 6 -4 13 -10 16 -5 3
-10 -1 -10 -9z"/>
<path d="M5276 12875 c-16 -16 -16 -18 1 -32 10 -8 13 -12 6 -9 -7 4 -9 -1 -6
-14 6 -22 18 -26 29 -9 4 8 9 7 16 -2 8 -11 9 -10 5 2 -3 9 0 22 6 29 9 10 9
11 -2 5 -11 -6 -13 -4 -7 11 4 10 4 15 0 11 -4 -4 -12 0 -19 9 -10 15 -13 15
-29 -1z m19 -5 c-3 -5 -2 -10 3 -10 17 0 21 -28 6 -41 -12 -10 -13 -9 -8 5 3
9 1 22 -5 30 -6 7 -8 16 -4 19 10 10 15 8 8 -3z"/>
<path d="M5181 12817 c-13 -21 -12 -21 5 -5 10 10 16 20 13 22 -3 3 -11 -5
-18 -17z"/>
<path d="M6722 12173 c1 -18 5 -30 8 -28 9 5 6 43 -3 52 -4 4 -7 -7 -5 -24z"/>
<path d="M6091 12084 c0 -11 3 -14 6 -6 3 7 2 16 -1 19 -3 4 -6 -2 -5 -13z"/>
<path d="M7036 11641 c-12 -5 -15 -10 -9 -14 6 -4 16 0 23 8 14 17 13 17 -14
6z"/>
<path d="M5380 11556 c0 -2 7 -7 16 -10 8 -3 12 -2 9 4 -6 10 -25 14 -25 6z"/>
<path d="M6065 10771 c-3 -6 1 -25 9 -43 8 -18 15 -27 15 -20 1 6 8 12 16 12
10 0 15 10 15 30 0 25 -4 30 -24 30 -14 0 -27 -4 -31 -9z"/>
<path d="M6466 10534 c-8 -20 -8 -24 2 -24 4 0 8 9 9 20 2 24 -3 26 -11 4z"/>
<path d="M5586 10175 c4 -8 8 -15 10 -15 2 0 4 7 4 15 0 8 -4 15 -10 15 -5 0
-7 -7 -4 -15z"/>
<path d="M5521 9654 c0 -11 3 -14 6 -6 3 7 2 16 -1 19 -3 4 -6 -2 -5 -13z"/>
<path d="M7578 10443 c7 -3 16 -2 19 1 4 3 -2 6 -13 5 -11 0 -14 -3 -6 -6z"/>
<path d="M7396 8701 c-4 -5 -2 -12 3 -15 5 -4 12 -2 15 3 4 5 2 12 -3 15 -5 4
-12 2 -15 -3z"/>
<path d="M6576 8522 c-3 -5 1 -9 9 -9 8 0 12 4 9 9 -3 4 -7 8 -9 8 -2 0 -6 -4
-9 -8z"/>
<path d="M3200 5910 c0 -5 -7 -7 -15 -4 -8 4 -15 2 -15 -3 0 -5 9 -9 20 -10
11 -1 20 4 20 13 0 8 -2 14 -5 14 -3 0 -5 -4 -5 -10z"/>
<path d="M4094 5560 c-1 -16 3 -30 8 -30 5 0 7 4 3 9 -3 5 -1 12 4 16 6 3 8
12 4 20 -9 24 -18 17 -19 -15z"/>
<path d="M3147 5355 c-4 -9 -3 -13 3 -10 5 3 8 -7 5 -25 -2 -16 2 -33 8 -36 7
-4 9 -4 5 1 -4 4 -2 15 5 23 10 13 9 14 -2 8 -10 -6 -12 -4 -7 10 8 25 -9 53
-17 29z"/>
<path d="M3200 5331 c0 -23 23 -34 38 -19 8 8 7 15 -6 24 -24 18 -32 17 -32
-5z"/>
<path d="M3881 5294 c0 -11 3 -14 6 -6 3 7 2 16 -1 19 -3 4 -6 -2 -5 -13z"/>
<path d="M3974 5118 c-4 -7 -4 -10 1 -6 4 4 15 2 24 -5 14 -11 14 -10 2 6 -16
20 -18 21 -27 5z"/>
<path d="M3805 4961 c-3 -5 0 -13 6 -17 7 -4 9 -3 5 4 -3 6 2 13 11 15 16 4
16 5 1 6 -9 0 -19 -3 -23 -8z"/>
<path d="M3843 4697 c-1 -11 -1 -18 0 -16 2 2 8 11 15 20 9 12 9 16 -1 16 -7
0 -14 -9 -14 -20z"/>
<path d="M3625 4506 c-18 -21 -14 -33 9 -29 12 3 23 11 23 18 0 19 -20 25 -32
11z"/>
<path d="M3159 4477 c6 -8 7 -18 3 -22 -4 -5 -1 -5 6 -1 10 6 10 11 1 22 -6 8
-14 14 -16 14 -3 0 0 -6 6 -13z"/>
<path d="M3267 4414 c-9 -9 16 -32 30 -27 6 3 9 11 6 19 -5 14 -25 19 -36 8z"/>
<path d="M3500 4376 c0 -8 40 -52 41 -45 0 2 2 12 4 22 2 9 -1 17 -5 17 -5 0
-15 3 -24 6 -9 3 -16 3 -16 0z"/>
<path d="M3453 4363 c-14 -5 -18 -33 -5 -33 5 0 17 7 28 16 10 8 14 13 7 10
-6 -4 -13 -2 -15 2 -1 5 -9 7 -15 5z"/>
<path d="M3447 4273 c-10 -10 -8 -33 2 -33 6 0 9 9 8 20 -1 23 -1 22 -10 13z"/>
<path d="M3246 4133 c-3 -3 -3 -10 0 -14 7 -12 34 -11 34 0 0 11 -26 22 -34
14z"/>
<path d="M3290 4101 c0 -7 -5 -9 -12 -5 -7 5 -8 3 -3 -5 5 -9 10 -10 18 -2 6
6 8 14 4 18 -4 3 -7 1 -7 -6z"/>
<path d="M3233 3945 c0 -8 4 -12 9 -9 5 3 6 10 3 15 -9 13 -12 11 -12 -6z"/>
<path d="M4850 4276 c0 -2 8 -10 18 -17 15 -13 16 -12 3 4 -13 16 -21 21 -21
13z"/>
<path d="M4940 4171 c0 -6 4 -13 10 -16 6 -3 7 1 4 9 -7 18 -14 21 -14 7z"/>
<path d="M8100 4141 c0 -7 -5 -9 -12 -5 -7 4 -10 4 -6 -1 11 -12 -12 -36 -26
-28 -6 4 -4 -2 4 -12 14 -17 13 -18 -2 -12 -11 4 -17 2 -15 -6 1 -7 -4 -11
-11 -9 -8 1 -11 -2 -7 -9 5 -8 10 -8 18 0 20 20 31 12 12 -9 -10 -11 -23 -17
-29 -13 -8 5 -8 3 0 -8 6 -8 14 -23 18 -33 5 -16 4 -17 -9 -6 -13 11 -14 10
-9 -5 5 -13 4 -16 -5 -10 -10 6 -11 3 -2 -14 9 -16 9 -21 0 -19 -7 2 -14 -9
-15 -24 -2 -20 1 -25 12 -21 7 3 11 10 7 16 -4 6 -1 7 8 1 21 -13 38 -14 46
-2 3 7 1 8 -5 4 -7 -4 -12 -1 -12 9 0 9 4 14 9 10 6 -3 8 3 6 12 -1 10 4 36
11 58 20 55 28 95 14 75 -5 -8 -10 -12 -11 -7 -5 26 -4 34 9 50 9 9 12 20 9
24 -4 3 -7 1 -7 -6z m-15 -112 c-8 -15 -16 -39 -17 -52 -2 -24 -19 -30 -35
-12 -4 4 -2 5 5 1 17 -10 26 18 13 42 -8 15 -6 23 9 37 11 10 17 23 13 29 -4
6 1 5 10 -3 15 -12 15 -16 2 -42z"/>
<path d="M8070 4045 c-6 -8 -10 -19 -8 -24 1 -6 8 1 15 14 13 28 11 31 -7 10z"/>
<path d="M7942 3941 c2 -19 -4 -24 -12 -11 -6 10 -10 11 -10 3 0 -7 -9 -13
-21 -13 -18 0 -20 -4 -14 -32 6 -33 6 -33 -9 -8 -8 14 -12 29 -9 34 4 5 1 6
-5 2 -9 -5 -8 -15 4 -37 8 -17 13 -40 10 -52 -4 -14 0 -10 9 8 8 17 12 41 9
54 -4 18 -2 22 10 18 9 -4 16 -1 16 5 0 6 3 8 6 5 4 -4 1 -13 -5 -21 -14 -17
-5 -60 10 -50 6 4 7 10 0 17 -6 8 -5 18 4 30 11 16 13 16 19 2 3 -9 2 -13 -3
-10 -18 10 -21 -13 -4 -26 10 -8 14 -9 10 -2 -4 6 -3 14 2 18 12 7 10 45 -2
45 -5 0 -4 6 2 13 8 10 7 14 -4 14 -7 0 -14 -3 -13 -6z"/>
<path d="M5196 3908 c3 -5 10 -6 15 -3 13 9 11 12 -6 12 -8 0 -12 -4 -9 -9z"/>
<path d="M7850 3861 c0 -6 4 -13 10 -16 6 -3 7 1 4 9 -7 18 -14 21 -14 7z"/>
<path d="M7822 3795 c0 -16 2 -22 5 -12 2 9 2 23 0 30 -3 6 -5 -1 -5 -18z"/>
<path d="M7797 3804 c-3 -3 -3 -13 0 -22 4 -9 2 -13 -4 -9 -6 4 -8 -3 -5 -19
6 -32 10 -27 16 19 5 38 4 41 -7 31z"/>
<path d="M7756 3744 c-5 -14 -4 -15 9 -4 17 14 19 20 6 20 -5 0 -12 -7 -15
-16z"/>
<path d="M5391 3704 c-1 -6 6 -17 14 -24 11 -9 15 -9 15 -1 0 7 4 10 8 7 5 -3
9 1 9 8 0 7 -6 13 -13 13 -7 0 -11 -4 -8 -9 3 -4 1 -8 -5 -8 -5 0 -12 6 -14
13 -4 7 -6 8 -6 1z"/>
<path d="M8076 3688 c-10 -13 -15 -16 -13 -7 3 9 -1 16 -8 16 -7 0 -11 -7 -8
-16 3 -11 0 -10 -11 3 -9 11 -16 14 -16 8 0 -7 -8 -12 -18 -12 -14 0 -19 -8
-20 -32 -1 -27 1 -30 9 -15 6 9 8 21 4 26 -6 10 21 9 31 -1 3 -4 1 -15 -6 -25
-9 -16 -10 -15 -5 7 5 22 5 23 -6 6 -9 -14 -8 -21 6 -35 9 -9 15 -11 14 -6 -1
6 3 23 10 39 9 22 14 26 25 17 10 -8 16 -9 21 -1 3 5 4 10 0 10 -3 0 -1 9 5
20 14 27 6 25 -14 -2z"/>
<path d="M7971 3597 c-8 -10 -7 -14 2 -14 8 0 14 6 14 14 0 7 -1 13 -2 13 -2
0 -8 -6 -14 -13z"/>
<path d="M7449 3555 c-1 -3 -1 -14 -1 -25 0 -40 2 -44 15 -25 20 29 28 55 17
55 -6 0 -10 -10 -10 -22 0 -18 -2 -20 -9 -8 -6 8 -7 18 -5 22 3 4 3 8 0 8 -3
0 -6 -2 -7 -5z"/>
<path d="M7386 3467 c3 -10 9 -15 12 -12 3 3 0 11 -7 18 -10 9 -11 8 -5 -6z"/>
<path d="M6959 2927 c6 -8 9 -16 6 -19 -3 -2 2 -5 10 -5 13 0 13 3 -2 19 -19
21 -31 25 -14 5z"/>
<path d="M3973 5065 c0 -8 4 -12 9 -9 5 3 6 10 3 15 -9 13 -12 11 -12 -6z"/>
<path d="M4308 4499 c-10 -5 -18 -17 -18 -26 0 -12 5 -11 20 7 28 32 27 37 -2
19z"/>
<path d="M4306 3935 c-4 -12 3 -14 36 -11 23 2 54 0 68 -4 15 -4 33 -5 39 -1
15 10 -55 31 -102 31 -22 0 -37 -6 -41 -15z"/>
<path d="M4225 3600 c-21 -16 -34 -30 -28 -30 5 0 13 4 19 10 5 5 27 19 49 29
30 15 34 20 19 21 -12 0 -38 -13 -59 -30z"/>
<path d="M4376 3558 c3 -5 10 -6 15 -3 13 9 11 12 -6 12 -8 0 -12 -4 -9 -9z"/>
<path d="M8784 4026 c-10 -26 1 -61 19 -64 10 -2 28 5 39 15 14 12 19 13 13 3
-7 -12 -6 -13 7 -3 8 7 17 10 21 7 3 -3 4 1 3 10 -4 25 -20 37 -60 42 -26 3
-38 0 -42 -10z"/>
<path d="M8727 3577 c-3 -8 -2 -20 3 -26 5 -9 8 -4 8 13 0 29 -3 32 -11 13z"/>
<path d="M9106 3112 c-3 -5 1 -9 9 -9 8 0 12 4 9 9 -3 4 -7 8 -9 8 -2 0 -6 -4
-9 -8z"/>
<path d="M5809 2723 c-13 -16 -12 -17 4 -4 16 13 21 21 13 21 -2 0 -10 -8 -17
-17z"/>
<path d="M5705 14650 c-3 -5 -1 -10 4 -10 6 0 11 5 11 10 0 6 -2 10 -4 10 -3
0 -8 -4 -11 -10z"/>
<path d="M5604 14618 l-19 -23 23 19 c12 11 22 21 22 23 0 8 -8 2 -26 -19z"/>
<path d="M5436 14463 c-6 -14 -5 -15 5 -6 7 7 10 15 7 18 -3 3 -9 -2 -12 -12z"/>
<path d="M5236 13685 c4 -8 10 -15 15 -15 4 0 6 7 3 15 -4 8 -10 15 -15 15 -4
0 -6 -7 -3 -15z"/>
<path d="M703 4120 c0 -25 2 -35 4 -22 2 12 2 32 0 45 -2 12 -4 2 -4 -23z"/>
<path d="M729 4008 c-5 -18 -6 -38 -1 -34 7 8 12 36 6 36 -2 0 -4 -1 -5 -2z"/>
<path d="M10571 3824 c0 -11 3 -14 6 -6 3 7 2 16 -1 19 -3 4 -6 -2 -5 -13z"/>
<path d="M711 3814 c0 -11 3 -14 6 -6 3 7 2 16 -1 19 -3 4 -6 -2 -5 -13z"/>
<path d="M750 3690 c-9 -6 -10 -10 -3 -10 6 0 15 5 18 10 8 12 4 12 -15 0z"/>
<path d="M753 3435 c0 -8 4 -15 9 -15 4 0 8 4 8 9 0 6 -4 12 -8 15 -5 3 -9 -1
-9 -9z"/>
<path d="M753 3395 c0 -8 4 -15 9 -15 4 0 8 7 8 15 0 8 -4 15 -8 15 -5 0 -9
-7 -9 -15z"/>
<path d="M756 3358 c4 -7 7 -28 7 -48 -1 -35 -1 -35 6 -5 8 34 3 65 -11 65 -5
0 -6 -5 -2 -12z"/>
<path d="M789 3328 c-1 -2 -3 -22 -4 -45 -2 -35 0 -41 11 -32 16 13 19 23 4
14 -7 -4 -9 6 -7 29 4 30 2 44 -4 34z"/>
<path d="M885 2081 c-3 -5 -2 -12 3 -15 5 -3 9 1 9 9 0 17 -3 19 -12 6z"/>
<path d="M10530 1989 c0 -5 -4 -7 -10 -4 -9 5 -15 -15 -11 -37 0 -5 -3 -8 -9
-8 -18 0 -10 -18 11 -23 16 -4 18 -3 8 9 -10 12 -6 17 11 16 3 0 7 13 8 29 1
16 0 29 -3 29 -3 0 -5 -5 -5 -11z"/>
<path d="M886 1967 c3 -10 9 -15 12 -12 3 3 0 11 -7 18 -10 9 -11 8 -5 -6z"/>
<path d="M10472 1895 c3 -26 7 -30 35 -31 31 -1 31 -1 15 21 -10 13 -20 19
-23 13 -4 -6 -11 -3 -18 8 -10 17 -11 15 -9 -11z"/>
<path d="M10415 1670 c-3 -5 -1 -19 5 -30 12 -23 5 -44 -12 -34 -7 4 -8 2 -4
-4 9 -15 36 -3 37 17 0 12 2 11 8 -4 5 -11 7 -23 5 -26 -2 -3 3 -6 10 -6 7 0
13 6 13 13 0 7 -4 11 -8 9 -3 -3 -9 5 -12 16 -3 12 -10 18 -16 14 -15 -9 -14
8 2 25 9 11 8 11 -7 0 -18 -14 -19 -13 -13 3 7 18 2 23 -8 7z"/>
<path d="M10414 1551 c3 -43 9 -45 40 -12 24 24 25 29 10 27 -11 -2 -19 -8
-19 -14 0 -16 -19 -10 -22 6 -4 28 -11 23 -9 -7z"/>
<path d="M10644 1426 c1 -8 5 -18 8 -22 4 -3 5 1 4 10 -1 8 -5 18 -8 22 -4 3
-5 -1 -4 -10z"/>
<path d="M10570 1386 c0 -2 8 -10 18 -17 15 -13 16 -12 3 4 -13 16 -21 21 -21
13z"/>
<path d="M10476 1268 c3 -5 10 -6 15 -3 13 9 11 12 -6 12 -8 0 -12 -4 -9 -9z"/>
<path d="M10290 1226 c0 -8 5 -18 10 -21 6 -3 10 1 10 9 0 8 -4 18 -10 21 -5
3 -10 -1 -10 -9z"/>
<path d="M11786 925 c-3 -10 1 -15 12 -16 64 -5 82 -4 82 5 0 6 5 4 10 -4 5
-8 10 -11 10 -6 0 5 9 1 19 -8 14 -13 21 -14 27 -5 5 8 3 10 -6 4 -9 -5 -11
-4 -6 4 6 9 11 9 22 0 11 -9 14 -8 14 2 0 8 5 6 13 -5 12 -16 14 -16 14 -2 0
9 -3 16 -6 17 -3 0 -15 2 -26 5 -41 9 -85 10 -96 3 -7 -4 -26 -1 -44 7 -29 12
-34 11 -39 -1z"/>
</g>
</svg>
