<?xml version="1.0" standalone="no"?>
<!DOCTYPE svg PUBLIC "-//W3C//DTD SVG 20010904//EN"
 "http://www.w3.org/TR/2001/REC-SVG-20010904/DTD/svg10.dtd">
<svg version="1.0" xmlns="http://www.w3.org/2000/svg"
 width="1200.000000pt" height="1600.000000pt" viewBox="0 0 1200.000000 1600.000000"
 preserveAspectRatio="xMidYMid meet">

<g transform="translate(0.000000,1600.000000) scale(0.100000,-0.100000)"
fill="#000000" stroke="none">
<path d="M5571 14101 c-7 -5 -10 -14 -6 -21 6 -9 -6 -11 -48 -8 -30 1 -53 0
-50 -4 2 -5 -10 -8 -28 -8 -31 0 -32 1 -14 14 18 13 18 14 -7 9 -15 -3 -28
-13 -31 -25 -4 -13 -11 -19 -21 -15 -8 3 -18 2 -21 -3 -3 -5 0 -10 7 -13 7 -2
1 -2 -14 0 -16 3 -28 0 -28 -6 0 -6 -7 -11 -16 -11 -8 0 -37 -7 -63 -16 -49
-16 -98 -64 -86 -84 16 -25 -46 -58 -125 -67 -33 -3 -60 -9 -60 -14 0 -4 -18
-10 -40 -14 -40 -7 -51 -18 -27 -29 6 -3 1 -4 -13 -1 -19 3 -33 -3 -54 -25
-15 -17 -35 -30 -45 -30 -19 0 -63 -29 -45 -30 6 0 28 7 49 16 20 8 42 13 48
11 14 -4 -55 -47 -77 -47 -9 0 -15 -3 -15 -7 3 -20 -2 -27 -10 -14 -8 12 -12
12 -26 -2 -9 -10 -21 -17 -26 -17 -6 0 -8 -4 -4 -10 3 -5 -12 -18 -34 -29 -51
-27 -65 -46 -25 -37 l29 7 -25 -21 c-14 -11 -29 -20 -35 -20 -5 0 -4 -4 3 -9
11 -7 11 -11 -1 -22 -20 -20 -30 -68 -17 -83 5 -7 8 -28 6 -47 -2 -19 -4 -39
-5 -45 0 -7 -9 -11 -18 -10 -24 1 -31 -54 -10 -66 19 -10 10 -48 -12 -48 -14
0 -14 2 -1 10 9 6 10 10 3 10 -17 0 -43 -40 -44 -70 -1 -17 -3 -19 -6 -7 -2 9
-9 17 -14 17 -9 0 -14 -33 -11 -77 1 -34 -18 -28 -25 7 -12 60 -15 20 -3 -48
l11 -69 -50 -52 c-28 -29 -54 -64 -57 -79 -3 -15 -12 -43 -19 -62 -8 -19 -25
-75 -39 -125 -14 -49 -38 -125 -52 -168 -22 -65 -27 -97 -27 -185 0 -59 7
-147 16 -197 24 -135 24 -264 0 -315 -11 -22 -17 -40 -12 -40 5 0 6 -7 3 -14
-5 -14 0 -23 34 -62 8 -8 23 -51 33 -97 23 -98 46 -155 74 -183 59 -59 95
-108 95 -129 0 -12 -7 -39 -16 -60 -14 -34 -14 -42 0 -84 8 -25 20 -77 27
-115 7 -38 15 -63 17 -57 7 21 40 -65 35 -91 -3 -15 2 -29 11 -37 9 -8 16 -10
16 -5 0 4 7 -1 15 -12 8 -10 14 -26 15 -34 0 -13 -1 -13 -11 0 -7 10 -9 11 -7
2 7 -28 23 -5 21 31 -2 43 2 45 28 15 20 -25 26 -10 9 23 -8 15 -7 19 4 19 8
0 16 -6 19 -12 2 -7 4 1 3 19 -1 17 -4 29 -8 26 -5 -2 -8 5 -8 16 0 10 -3 26
-6 35 -3 9 -1 16 6 16 6 0 9 -4 6 -9 -3 -5 0 -14 7 -19 10 -8 13 -6 14 8 1 11
-6 22 -17 25 -23 7 -33 34 -19 51 6 7 8 18 4 23 -3 7 0 8 9 5 22 -9 20 19 -2
39 -10 10 -22 14 -25 10 -4 -3 -7 20 -8 53 -1 32 -2 70 -4 84 -15 118 -17 158
-6 165 8 4 12 2 10 -6 -1 -8 4 -29 11 -46 8 -24 18 -33 35 -33 18 0 22 -5 19
-27 -3 -26 -3 -26 4 -4 7 22 22 30 61 33 10 1 9 5 -4 14 -20 15 -34 94 -16 94
6 0 11 -8 11 -17 1 -10 15 -27 33 -38 35 -22 77 -98 70 -125 -3 -12 3 -19 22
-24 19 -5 31 -18 43 -47 11 -30 25 -44 51 -55 44 -18 57 -6 60 58 1 11 6 15
16 12 9 -4 28 -2 43 4 15 6 36 13 47 18 35 13 44 12 38 -1 -3 -9 2 -13 16 -12
12 1 21 5 21 10 0 5 7 4 15 -3 12 -10 18 -10 30 0 8 7 15 9 15 5 0 -4 7 -2 15
5 8 7 15 18 14 24 0 7 -2 6 -6 -1 -2 -7 -9 -13 -14 -13 -6 0 -7 6 -3 13 4 6
-5 1 -21 -13 -16 -14 -25 -20 -21 -13 3 6 1 15 -5 19 -8 5 -9 3 -4 -6 5 -9 4
-11 -3 -6 -16 10 -15 29 1 23 6 -2 26 2 44 10 18 7 39 10 47 7 9 -3 16 -1 16
6 0 6 5 8 10 5 8 -5 7 -11 0 -20 -10 -12 -6 -12 22 -5 18 6 35 10 37 10 2 0 0
8 -3 18 -5 15 -4 15 6 2 21 -24 127 -13 112 11 -3 5 -11 6 -17 3 -7 -4 -8 -3
-4 2 5 5 14 9 20 9 7 0 11 11 9 25 -3 27 0 25 18 -9 8 -15 8 -21 1 -17 -6 4
-11 0 -11 -8 0 -9 4 -16 10 -16 5 0 7 -7 4 -15 -4 -9 -15 -13 -28 -11 -17 3
-21 -1 -23 -22 -1 -26 -1 -26 10 -6 9 16 17 19 32 13 31 -12 35 -11 35 11 0
11 9 25 20 32 11 7 20 17 20 21 0 5 8 19 18 32 l19 24 13 -35 c8 -19 17 -34
21 -34 11 0 8 -53 -6 -80 -7 -14 -11 -35 -10 -48 1 -13 -3 -26 -8 -29 -6 -3
-7 -1 -3 5 3 6 2 13 -3 16 -10 7 -9 -20 2 -30 10 -10 -12 -34 -32 -35 -11 0
-9 -3 6 -9 24 -10 22 -40 -3 -61 -18 -14 -19 -43 -1 -33 9 6 9 5 0 -7 -13 -16
-20 -54 -28 -148 -3 -36 -7 -67 -10 -69 -2 -2 6 -25 19 -51 13 -25 27 -61 31
-79 4 -19 11 -30 17 -26 7 4 8 2 4 -5 -5 -8 -12 -9 -19 -2 -9 7 -13 -5 -15
-42 -2 -29 -8 -56 -14 -62 -7 -7 -9 -2 -4 17 6 25 5 26 -16 15 -45 -23 -63
-43 -85 -87 -30 -58 -60 -97 -69 -87 -4 4 1 14 12 21 10 8 16 17 13 20 -11 11
-54 -18 -94 -64 -22 -25 -44 -48 -48 -51 -4 -3 -17 -23 -28 -44 -16 -28 -18
-40 -8 -45 14 -9 4 -122 -13 -150 -9 -14 -4 -25 30 -61 29 -30 42 -38 42 -26
0 9 7 17 15 17 18 0 19 -23 3 -50 -7 -10 -9 -22 -6 -25 12 -12 80 8 108 31 31
26 56 31 63 12 4 -9 8 -9 14 -3 4 6 17 15 28 21 11 6 25 21 31 33 10 19 13 20
24 6 7 -8 15 -13 19 -10 4 2 19 -2 34 -10 15 -8 27 -12 27 -10 0 2 30 -8 68
-22 87 -32 98 -35 157 -40 75 -6 75 -6 75 -14 0 -10 -27 -19 -55 -19 -13 0
-28 -6 -32 -12 -4 -7 -15 -13 -23 -13 -9 0 -21 -22 -32 -59 -19 -61 -17 -79 7
-69 10 3 15 -1 15 -15 0 -25 19 -40 45 -36 19 3 19 2 3 -10 -10 -7 -18 -16
-18 -20 0 -9 -26 -36 -35 -36 -3 0 -3 5 0 10 3 6 2 10 -4 10 -6 0 -15 -9 -21
-20 -6 -11 -19 -20 -29 -20 -10 0 -24 -7 -31 -15 -8 -9 -22 -12 -41 -8 -23 4
-28 3 -24 -9 4 -9 -1 -18 -11 -22 -13 -5 -15 -2 -11 14 6 24 -15 27 -33 5 -8
-9 -21 -13 -32 -9 -28 9 -98 56 -98 67 0 5 -9 7 -21 4 -15 -4 -23 0 -26 14 -5
18 -14 23 -40 20 -6 -1 -19 9 -27 21 -12 16 -16 18 -16 7 0 -9 -16 -30 -35
-47 l-34 -32 -37 33 c-88 77 -143 137 -155 170 -7 20 -22 41 -34 47 -11 6 -27
25 -34 43 -8 18 -25 45 -38 60 -12 16 -23 42 -23 58 0 16 -4 29 -10 29 -5 0
-13 12 -16 28 -4 15 -9 32 -13 37 -3 6 -6 16 -8 24 -1 8 -6 17 -12 20 -6 4 -9
17 -7 28 3 16 1 20 -10 16 -10 -4 -14 4 -15 28 -1 19 -1 40 0 47 1 6 -3 12 -9
12 -5 0 -9 3 -9 8 1 4 1 22 0 40 -1 24 -5 31 -13 26 -10 -6 -10 -4 0 8 9 11
10 18 2 23 -6 3 -8 10 -5 15 3 4 -9 21 -26 38 -26 26 -31 38 -33 85 -2 43 -8
63 -31 93 -16 20 -24 34 -18 31 19 -12 8 22 -13 39 -10 8 -13 12 -5 8 9 -5 8
2 -5 19 -10 15 -24 27 -30 27 -6 0 -10 11 -9 25 2 14 -1 25 -7 25 -6 0 -7 7
-4 16 4 9 2 13 -5 8 -7 -4 -9 -24 -5 -55 4 -32 2 -57 -6 -72 -7 -12 -11 -26
-10 -32 1 -5 -7 1 -18 14 -24 28 -26 21 -5 -18 13 -25 19 -28 49 -24 32 4 36
2 41 -24 4 -15 12 -48 20 -73 7 -25 16 -58 20 -75 3 -16 14 -39 23 -49 9 -11
11 -16 5 -12 -10 5 -11 1 -3 -19 15 -40 12 -50 -10 -30 -11 10 -20 13 -20 7 0
-12 40 -38 53 -34 5 1 6 -1 4 -5 -3 -5 17 -74 45 -153 27 -80 52 -154 55 -165
12 -41 102 -205 141 -257 41 -54 62 -109 62 -164 l0 -31 -111 -7 c-75 -4 -126
-13 -158 -26 -25 -11 -82 -28 -126 -39 -44 -10 -123 -30 -175 -45 -52 -14
-135 -35 -185 -46 -49 -10 -126 -28 -169 -39 -90 -23 -347 -67 -446 -76 -199
-20 -489 -110 -586 -183 -16 -12 -34 -25 -39 -29 -24 -18 -106 -85 -117 -96
-7 -7 -51 -44 -98 -84 -93 -78 -156 -140 -174 -171 -6 -11 -29 -46 -50 -78
-89 -134 -141 -285 -261 -759 -52 -203 -103 -395 -113 -425 -38 -106 -121
-366 -142 -445 -12 -44 -37 -123 -55 -175 -18 -52 -42 -128 -54 -167 -52 -181
-61 -211 -75 -263 -37 -136 -57 -202 -76 -251 -12 -29 -34 -95 -50 -148 -38
-127 -81 -241 -102 -273 -40 -61 -35 -129 14 -177 55 -54 208 -119 438 -187
58 -17 104 -35 104 -40 -1 -5 -7 -58 -14 -119 -6 -60 -22 -191 -36 -290 -49
-364 -63 -483 -74 -630 -6 -82 -15 -170 -20 -195 -5 -25 -9 -157 -10 -293 0
-210 3 -264 20 -350 11 -56 25 -129 31 -162 19 -102 56 -247 158 -615 10 -36
26 -94 36 -130 30 -112 56 -203 70 -245 63 -194 68 -215 51 -234 -9 -10 -16
-23 -16 -30 0 -7 -39 -54 -86 -104 -106 -112 -221 -265 -377 -499 l-119 -178
-54 0 c-30 0 -54 -4 -54 -10 0 -19 -30 -10 -45 14 -13 20 -28 25 -113 35 -367
43 -572 68 -812 101 -217 30 -785 100 -809 100 l-21 0 0 -730 0 -730 1694 0
c1461 0 1695 2 1699 14 3 8 9 42 13 74 5 46 11 61 24 65 12 3 20 -2 24 -17 5
-18 8 -19 16 -6 5 8 10 24 10 34 0 11 9 30 21 42 l20 22 -27 21 -28 22 -16
-22 c-14 -17 -21 -19 -37 -11 -11 6 -23 9 -25 6 -3 -3 -9 12 -12 32 -5 22 -3
41 3 47 6 6 11 17 11 24 0 16 -27 17 -32 1 -3 -9 -6 -9 -12 0 -5 8 8 26 33 49
39 34 60 73 24 41 -39 -33 -46 -32 -38 2 6 29 5 31 -13 26 -16 -5 -19 -2 -19
21 0 16 -3 42 -6 58 -3 17 -6 32 -6 35 -1 3 -5 -2 -11 -10 -5 -8 -12 -11 -17
-7 -4 4 -2 17 5 27 14 23 16 50 3 50 -5 0 -13 -9 -16 -20 -4 -11 -11 -18 -16
-14 -5 3 -7 10 -3 15 3 5 10 23 14 40 8 25 7 29 -4 19 -11 -9 -15 -1 -21 42
-4 30 -15 58 -24 65 -15 11 -14 12 2 13 18 0 17 -1 21 130 l1 51 -27 -33 c-24
-29 -27 -31 -34 -15 -4 10 -2 23 5 30 6 6 11 20 11 31 0 11 7 27 15 36 14 16
14 17 -9 13 -22 -5 -24 -9 -20 -37 5 -29 4 -30 -10 -12 -15 18 -16 81 -2 104
8 14 -4 43 -15 36 -5 -3 -9 -14 -9 -25 0 -11 -6 -22 -14 -25 -8 -3 -12 -13 -9
-23 6 -24 -24 -48 -39 -33 -9 9 -9 12 0 12 9 0 9 5 0 20 -11 17 -10 26 4 50
16 28 16 30 -1 40 -10 5 -22 6 -26 2 -3 -4 -5 0 -3 8 2 9 -3 14 -12 12 -8 -2
-12 0 -8 4 4 4 3 14 -4 21 -9 11 -9 16 1 23 20 12 3 31 -23 26 -19 -3 -23 -1
-19 15 3 10 9 19 14 19 4 0 6 9 4 20 -2 12 0 18 6 15 5 -4 7 -10 4 -15 -3 -5
-1 -11 5 -15 5 -3 10 0 10 8 0 8 7 17 15 21 22 8 18 36 -5 36 -11 0 -20 -4
-20 -10 0 -15 -26 -12 -42 4 -10 9 -20 11 -31 4 -9 -5 -18 -7 -18 -3 -1 3 -2
8 -3 13 -1 4 -7 17 -14 29 -10 19 -9 23 8 28 23 7 27 45 5 45 -8 0 -15 -4 -15
-10 0 -5 -8 -10 -17 -10 -14 0 -15 2 -5 9 20 12 42 60 35 76 -3 8 -1 15 5 15
6 0 12 -5 14 -12 3 -7 7 -5 11 6 4 9 3 15 -2 11 -5 -3 -12 -1 -16 5 -4 6 -11
8 -16 5 -8 -6 -13 8 -10 28 2 15 -31 20 -40 6 -6 -10 -9 -1 -7 26 1 23 -2 46
-6 53 -9 15 12 55 25 47 5 -4 9 2 9 12 0 11 5 24 12 31 7 7 8 12 2 12 -5 0
-18 -10 -29 -22 -24 -29 -32 -9 -12 32 14 28 14 31 -4 41 -11 5 -33 8 -50 5
-20 -3 -29 -1 -26 7 2 7 13 11 24 9 29 -4 25 24 -6 38 -23 11 -24 13 -8 22 14
8 16 13 6 24 -6 8 -19 14 -28 14 -11 0 -6 9 17 31 36 33 39 64 7 64 -11 0 -25
4 -32 8 -6 4 -15 3 -18 -3 -5 -8 -11 -8 -19 -1 -7 6 -16 8 -19 5 -10 -11 1 37
12 50 11 13 10 34 -2 54 -6 8 -1 12 17 12 23 0 30 19 13 36 -3 4 0 21 7 39 14
31 13 33 -9 37 -13 3 -31 1 -40 -4 -27 -16 -27 -2 0 23 13 13 25 34 25 47 0
13 6 22 15 22 9 0 15 9 15 22 l0 21 -23 -21 c-27 -26 -41 -19 -25 12 11 20 13
75 2 85 -3 3 -10 -1 -15 -9 -8 -12 -9 -10 -4 7 3 12 2 24 -4 27 -5 3 -8 17 -7
30 2 19 -3 26 -21 31 -13 3 -28 3 -34 0 -5 -4 -8 -3 -7 2 1 4 -3 28 -10 53
-14 47 -4 100 18 100 5 0 10 7 10 17 0 9 3 13 7 10 7 -8 43 21 43 35 0 10 -63
-22 -68 -35 -2 -4 -8 -4 -14 -1 -6 4 -6 9 3 14 9 6 4 15 -17 35 -16 15 -24 24
-17 21 6 -4 19 1 28 10 15 15 14 17 -2 29 -15 12 -19 11 -25 -6 -10 -26 -14
-24 -14 6 0 15 6 25 15 25 17 0 9 10 -11 14 -7 2 -21 6 -31 11 -17 7 -17 8 0
22 10 8 13 12 7 9 -7 -3 -14 1 -18 9 -3 8 0 14 6 12 6 -1 13 4 16 12 3 9 0 11
-8 6 -8 -5 -11 -4 -6 3 4 6 12 10 19 8 7 -1 9 -1 5 1 -5 3 -8 12 -8 21 0 15
-2 15 -10 2 -7 -11 -10 -11 -10 -2 0 7 -4 11 -9 8 -5 -4 -7 8 -4 25 3 24 1 29
-9 23 -7 -4 -3 4 10 18 12 13 22 33 22 45 0 11 11 32 25 47 32 35 32 38 -7 34
-25 -2 -34 1 -36 15 -2 9 1 17 7 17 6 0 11 9 11 20 0 11 4 20 9 20 4 0 7 10 7
22 -1 13 2 28 7 35 9 12 0 59 -10 49 -3 -2 -16 -1 -29 4 -20 8 -24 6 -24 -10
0 -22 -15 -27 -26 -8 -5 7 -3 8 5 3 8 -4 6 3 -3 18 -12 17 -13 26 -5 29 7 2 5
9 -7 18 -14 12 -16 12 -9 1 6 -10 4 -12 -5 -6 -7 4 -16 2 -21 -6 -6 -10 -8 -5
-5 15 3 16 8 31 10 34 3 3 1 11 -5 18 -7 8 -7 14 1 19 5 3 11 4 11 1 1 -3 2
-9 3 -13 3 -17 25 -47 26 -36 0 7 10 21 22 33 12 11 17 20 11 20 -13 0 -14 51
-1 68 7 8 7 12 0 12 -6 0 -9 7 -5 15 3 9 8 13 11 11 3 -3 12 0 21 7 14 11 14
10 2 -6 -23 -29 -6 -29 23 0 22 21 29 24 36 13 9 -15 2 -40 -12 -40 -5 0 -6
-4 -3 -10 9 -15 25 -12 25 4 0 7 16 27 35 43 19 17 32 33 28 36 -3 4 -1 7 6 7
7 0 9 4 6 10 -3 5 -2 10 3 10 5 0 8 10 7 22 -3 28 12 49 29 42 19 -7 12 -83
-13 -131 -24 -48 -25 -53 -11 -53 6 0 10 9 10 21 0 11 4 18 9 14 6 -3 15 4 21
15 13 25 42 27 39 3 -1 -10 2 -26 6 -37 5 -11 3 -21 -5 -26 -9 -5 -9 -9 -1
-13 7 -3 7 -5 -1 -3 -7 1 -14 12 -16 24 -2 12 -7 22 -11 22 -11 0 -10 -33 2
-50 9 -12 8 -13 -2 -3 -17 14 -41 6 -41 -14 0 -11 7 -14 25 -11 17 4 25 1 25
-8 0 -8 5 -14 10 -14 6 0 11 -8 11 -17 1 -10 5 -2 10 17 7 31 7 29 6 -18 -2
-55 1 -58 56 -54 9 1 17 -5 17 -13 0 -8 6 -14 13 -13 7 2 13 -10 15 -29 4 -37
-16 -46 -25 -13 -5 19 -6 20 -19 3 -16 -21 -18 -53 -4 -53 6 0 10 5 10 11 0 5
5 7 11 3 6 -3 8 -20 5 -38 -3 -18 1 -41 9 -56 8 -14 14 -21 15 -16 0 5 9 1 20
-9 22 -20 27 -56 8 -53 -9 2 -13 -15 -13 -59 0 -33 3 -59 7 -57 4 3 11 -13 14
-36 l7 -41 22 21 c21 20 22 20 39 1 14 -15 15 -21 4 -27 -7 -5 -16 -9 -20 -9
-3 0 -10 -4 -15 -9 -4 -5 -3 -6 4 -2 13 7 18 -7 28 -76 7 -54 20 -68 40 -42
12 17 14 16 13 -16 -2 -63 5 -90 19 -79 7 6 18 9 25 6 8 -3 5 -6 -6 -6 -18 -1
-18 -2 -3 -19 16 -18 20 -62 5 -62 -4 0 -8 -9 -8 -20 0 -10 -6 -23 -12 -27 -7
-4 -18 -23 -25 -41 -10 -27 -9 -32 5 -32 9 0 25 9 36 19 15 13 30 18 49 14 33
-7 34 -22 3 -56 -13 -14 -22 -28 -19 -30 8 -9 53 18 53 33 0 13 1 13 10 0 6
-9 5 -17 -2 -21 -16 -10 1 -66 22 -72 24 -6 22 -72 -3 -110 -16 -24 -24 -77
-12 -77 3 0 17 7 30 16 24 16 25 16 25 -9 0 -16 -11 -33 -30 -48 -16 -13 -30
-30 -30 -38 0 -11 5 -10 20 4 20 18 20 17 20 -25 0 -42 0 -43 20 -25 15 14 20
15 20 4 0 -8 -9 -20 -20 -27 -11 -7 -20 -20 -20 -30 0 -10 -5 -23 -11 -29 -8
-8 -6 -15 6 -24 9 -8 24 -22 33 -31 17 -16 18 -16 20 15 1 21 -1 28 -7 18 -6
-9 -11 -10 -15 -2 -4 6 -2 11 3 11 15 0 14 27 -1 32 -15 5 -1 28 17 28 11 0
13 -8 9 -30 -5 -20 -3 -30 6 -30 8 0 9 -6 5 -18 -4 -9 -7 -27 -7 -39 1 -11 -5
-24 -13 -27 -8 -3 -15 -13 -15 -23 0 -15 2 -15 14 3 18 24 34 10 18 -16 -9
-15 -9 -22 3 -34 13 -13 12 -18 -11 -43 -15 -16 -34 -27 -45 -25 -10 2 -19 -1
-19 -7 0 -6 16 -10 35 -9 19 1 38 -1 41 -5 3 -3 -3 -31 -15 -62 -25 -67 -26
-71 -5 -51 8 9 12 20 9 26 -3 5 3 10 14 10 11 0 21 8 24 18 2 9 4 1 4 -18 1
-19 -5 -45 -13 -57 -10 -15 -10 -23 -2 -25 6 -2 8 -10 4 -17 -6 -9 -11 -8 -22
6 -12 16 -13 16 -14 2 0 -9 -3 -32 -6 -50 -6 -32 -6 -33 9 -14 9 11 17 15 17
8 0 -20 14 -15 25 8 21 45 39 3 21 -46 -6 -17 -4 -16 15 5 l22 25 -6 -48 c-4
-26 -3 -46 1 -43 12 7 39 -53 46 -99 3 -22 14 -46 24 -55 11 -8 25 -30 33 -47
16 -37 25 -41 32 -15 3 9 5 4 5 -13 -1 -16 7 -43 16 -60 9 -16 16 -36 16 -44
0 -7 6 -11 15 -7 10 3 20 -5 30 -24 9 -17 22 -30 30 -30 10 0 15 -11 15 -32 1
-30 2 -31 14 -15 13 17 16 14 31 -33 9 -28 14 -62 11 -75 -4 -14 -2 -25 4 -25
5 0 10 -5 10 -10 0 -6 7 -27 16 -48 10 -20 16 -45 15 -56 -2 -10 2 -15 7 -12
16 9 25 -30 16 -67 -10 -40 -11 -86 -3 -81 12 7 16 -20 8 -46 l-7 -25 -7 22
c-10 32 -25 18 -25 -23 0 -19 3 -33 8 -31 10 7 8 -63 -2 -85 -4 -10 -6 -23 -3
-30 4 -8 8 -5 12 10 9 28 10 28 45 -8 26 -27 30 -28 39 -12 8 12 10 -7 9 -71
-1 -89 5 -113 23 -87 7 11 9 4 7 -25 -2 -28 1 -39 10 -38 11 3 16 -12 15 -45
-1 -6 4 -12 9 -12 7 0 7 -4 0 -12 -6 -7 -8 -25 -5 -41 l5 -27 4044 0 4044 0 0
59 c0 33 -4 62 -8 65 -5 3 -67 10 -138 15 -71 6 -225 21 -342 33 l-214 23 7
45 c3 25 17 90 30 145 48 201 88 390 110 510 7 44 27 157 44 250 41 236 61
435 106 1104 8 118 17 222 20 230 6 20 20 144 45 401 11 107 24 222 30 255 15
93 13 519 -4 582 -7 28 -42 107 -76 175 -57 114 -160 352 -160 371 0 43 -227
538 -365 797 -138 257 -143 268 -134 281 5 8 9 24 9 36 0 27 -118 263 -170
343 -20 30 -102 174 -182 320 -81 146 -175 309 -210 363 -34 53 -99 154 -143
223 -131 205 -153 237 -184 274 -17 19 -40 61 -52 95 -12 33 -43 101 -67 150
-117 234 -145 293 -177 376 -19 49 -35 92 -35 95 0 33 -95 236 -145 309 -52
78 -65 105 -89 200 -32 123 -50 162 -112 252 -43 64 -79 100 -124 123 -13 7
-57 47 -96 89 -39 42 -109 103 -155 136 -46 32 -115 85 -154 115 -97 78 -182
134 -257 170 -73 34 -297 120 -314 120 -6 0 -92 27 -190 59 -234 77 -254 83
-423 126 -79 20 -163 44 -185 54 -23 10 -62 21 -87 24 -30 4 -85 28 -155 67
-60 33 -114 60 -120 60 -6 0 -23 9 -36 20 -14 10 -50 29 -81 40 -31 12 -59 25
-62 30 -3 5 -1 49 5 97 10 78 16 95 54 153 122 183 171 337 183 583 4 85 9
117 19 117 21 0 76 52 90 87 18 42 18 94 -1 119 -18 24 -19 35 -1 28 22 -8 50
50 96 196 51 161 58 245 37 405 l-15 110 30 43 c17 24 27 46 24 49 -3 4 -2 11
3 17 5 6 11 27 15 47 5 27 3 38 -8 42 -12 5 -13 11 -3 37 11 29 10 34 -11 51
-22 17 -24 27 -27 138 -1 66 -5 123 -8 128 -3 5 -8 60 -11 123 -3 63 -10 140
-15 170 -6 30 -17 97 -27 149 -16 94 -85 262 -136 333 -11 16 -22 46 -24 66
-1 20 -8 38 -13 40 -6 2 -11 12 -11 23 0 10 -4 19 -10 19 -5 0 -10 6 -10 14 0
7 -7 19 -15 26 -8 7 -19 27 -24 44 -4 17 -14 30 -20 28 -7 -1 -11 3 -9 10 3 7
-6 21 -19 31 -13 10 -23 23 -23 29 0 6 -24 41 -54 77 -29 36 -63 87 -74 113
-11 26 -32 63 -46 81 -14 19 -26 39 -26 45 0 6 -6 12 -12 15 -8 2 0 11 17 19
l29 16 -42 13 c-47 14 -54 25 -19 32 15 3 12 5 -11 6 -18 0 -31 5 -28 10 3 5
0 11 -8 14 -9 4 -12 14 -9 27 5 17 2 21 -13 19 -22 -3 -84 27 -84 41 0 5 -19
18 -42 29 -43 20 -43 20 -13 22 l30 1 -33 9 c-19 6 -56 26 -83 45 -27 19 -53
33 -57 31 -4 -3 -16 0 -27 4 -18 9 -18 9 3 5 12 -2 20 0 16 5 -3 5 -14 9 -24
9 -11 0 -34 13 -52 29 -19 16 -51 32 -72 36 -21 4 -40 13 -43 21 -2 7 -34 23
-69 36 -35 12 -64 26 -64 29 0 4 16 10 35 13 67 13 42 22 -63 23 -59 1 -141 9
-182 18 -67 15 -329 55 -355 55 -5 0 -16 -4 -24 -9z m58 -20 c11 -7 9 -10 -8
-16 -13 -4 -25 -4 -28 -1 -4 3 2 6 13 6 16 0 17 2 4 10 -8 5 -10 10 -5 10 6 0
16 -4 24 -9z m-219 -61 c0 -5 -4 -10 -10 -10 -5 0 -10 5 -10 10 0 6 5 10 10
10 6 0 10 -4 10 -10z m60 -20 c8 -5 11 -10 5 -10 -5 0 -17 5 -25 10 -8 5 -10
10 -5 10 6 0 17 -5 25 -10z m-173 -6 c-3 -3 -12 -4 -19 -1 -8 3 -5 6 6 6 11 1
17 -2 13 -5z m68 -14 c8 -13 -5 -13 -25 0 -13 8 -13 10 2 10 9 0 20 -4 23 -10z
m968 -77 c-7 -2 -19 -2 -25 0 -7 3 -2 5 12 5 14 0 19 -2 13 -5z m-1143 -13 c0
-5 -4 -10 -10 -10 -5 0 -10 5 -10 10 0 6 5 10 10 10 6 0 10 -4 10 -10z m-100
-70 c0 -5 -4 -10 -10 -10 -5 0 -10 5 -10 10 0 6 5 10 10 10 6 0 10 -4 10 -10z
m-140 -30 c-19 -13 -30 -13 -30 0 0 6 10 10 23 10 18 0 19 -2 7 -10z m87 4
c-3 -3 -12 -4 -19 -1 -8 3 -5 6 6 6 11 1 17 -2 13 -5z m40 -19 c0 -8 -6 -15
-12 -15 -17 0 -24 10 -18 25 6 17 30 9 30 -10z m-317 -215 c0 -5 -4 -10 -10
-10 -5 0 -10 5 -10 10 0 6 5 10 10 10 6 0 10 -4 10 -10z m-86 -30 c-9 -17 -20
-27 -29 -24 -11 4 -9 11 8 30 28 33 39 30 21 -6z m-40 -45 c-4 -8 -7 -15 -9
-15 -2 0 -5 7 -9 15 -3 9 0 15 9 15 9 0 12 -6 9 -15z m1162 -282 c-3 -10 -1
-25 5 -33 8 -12 9 -12 7 5 -2 11 2 20 7 21 6 0 18 4 29 9 11 5 26 4 36 -3 13
-8 21 -7 29 1 13 13 41 18 41 8 0 -4 6 -8 13 -9 20 -1 80 -11 102 -16 11 -2
24 -5 28 -5 5 -1 6 -5 2 -10 -3 -6 3 -8 14 -6 27 5 62 -5 55 -16 -3 -5 3 -9
12 -9 10 0 26 -8 37 -17 11 -10 17 -12 13 -5 -5 8 0 12 16 11 13 0 17 -3 11
-6 -17 -6 -16 -23 1 -23 9 0 12 -7 9 -20 -4 -17 0 -19 33 -18 32 2 45 -4 72
-31 17 -18 32 -39 32 -46 0 -7 8 -12 17 -11 9 2 32 -12 51 -31 18 -18 37 -31
42 -28 5 3 12 0 16 -6 4 -8 3 -9 -4 -5 -7 4 -12 1 -12 -8 0 -10 9 -16 24 -16
13 0 29 -7 36 -15 7 -8 18 -14 25 -13 7 2 25 -10 39 -27 24 -28 29 -42 29 -87
0 -10 4 -15 8 -12 5 3 7 9 5 13 -3 4 8 12 24 18 16 6 29 8 28 5 -3 -25 5 -40
21 -45 13 -3 18 -12 16 -32 -3 -26 -3 -26 16 -9 10 9 19 14 19 11 0 -18 3 -23
18 -41 13 -15 13 -17 2 -11 -12 7 -13 6 -4 -6 6 -8 14 -26 18 -41 5 -24 3 -28
-15 -28 -21 0 -21 -1 -4 -20 15 -16 16 -26 7 -59 -7 -29 -6 -60 3 -108 7 -38
11 -86 10 -108 -8 -107 -9 -113 -21 -108 -7 2 -13 -8 -16 -26 -3 -17 0 -31 4
-31 16 0 39 -28 28 -35 -5 -3 -10 -1 -10 5 0 8 -10 9 -29 5 -23 -5 -33 -1 -54
24 -28 34 -83 43 -93 17 -5 -14 -44 -15 -75 -2 -24 10 -45 -19 -29 -39 11 -13
10 -14 -4 -9 -9 3 -16 12 -16 19 0 7 -10 12 -22 11 -13 -1 -22 -7 -20 -15 1
-7 -1 -11 -5 -9 -5 2 -21 10 -36 18 -22 11 -30 11 -36 2 -4 -7 -23 -12 -43
-10 -20 1 -43 -3 -51 -10 -7 -6 -16 -9 -20 -6 -6 6 -68 -11 -100 -28 -11 -5
-21 -7 -24 -4 -11 10 -44 -16 -54 -42 -7 -18 -13 -22 -18 -14 -5 9 -11 5 -19
-13 -6 -14 -18 -25 -27 -25 -16 0 -30 -42 -21 -65 3 -8 1 -15 -4 -15 -10 0
-13 12 -11 40 0 10 -1 11 -5 2 -3 -6 -10 -10 -15 -7 -5 4 -6 -2 -2 -11 4 -10
2 -15 -3 -11 -5 3 -9 -7 -8 -21 1 -15 -5 -39 -13 -54 -7 -16 -11 -28 -7 -28 4
0 2 -6 -3 -12 -13 -16 -35 -107 -29 -116 15 -25 2 -274 -15 -280 -13 -5 -11
-49 2 -74 8 -15 8 -19 -1 -13 -8 5 -11 0 -8 -14 1 -12 8 -22 13 -22 10 0 34
-37 35 -53 0 -5 -7 -3 -15 4 -11 9 -15 9 -15 1 0 -7 -4 -10 -8 -7 -4 2 -9 -4
-9 -15 -1 -13 2 -17 10 -12 7 4 6 0 -2 -10 -11 -14 -11 -17 0 -17 8 -1 29 -13
47 -29 28 -24 31 -30 17 -41 -13 -11 -10 -15 18 -34 20 -14 31 -29 29 -40 -2
-12 1 -16 10 -11 10 6 11 5 1 -6 -13 -13 -19 -38 -6 -26 3 4 15 -1 26 -10 15
-13 18 -14 12 -3 -8 13 -7 13 10 0 10 -8 21 -14 24 -12 3 2 7 -2 10 -9 2 -8
-3 -10 -18 -6 -11 3 -24 0 -28 -5 -3 -7 -1 -8 5 -4 7 4 12 2 12 -3 0 -6 -11
-11 -25 -11 -14 0 -24 -3 -23 -7 2 -5 -8 -26 -22 -48 -13 -22 -31 -53 -40 -70
-8 -16 -24 -32 -35 -33 -10 -2 -30 -12 -42 -22 -38 -30 -90 -18 -136 30 -21
22 -41 40 -45 40 -13 1 -52 38 -52 49 0 11 -14 15 -34 12 -5 -1 -5 4 1 11 6 7
13 20 17 28 3 8 4 5 2 -7 -2 -13 0 -23 5 -23 13 0 11 44 -3 59 -11 11 -10 12
0 6 10 -5 12 0 9 24 -3 18 -1 29 4 25 5 -3 7 -9 4 -14 -3 -5 -2 -11 3 -14 4
-2 9 6 10 20 1 13 -3 24 -8 24 -6 0 -10 5 -10 11 0 5 4 8 9 4 5 -3 13 -1 16 5
4 6 3 9 -2 8 -10 -4 -13 5 -12 40 0 22 2 24 8 8 7 -18 8 -18 31 5 12 13 20 19
16 12 -3 -6 -3 -14 1 -16 5 -3 8 10 9 29 0 22 -2 30 -7 22 -7 -11 -9 -11 -9 0
0 8 -5 10 -12 6 -8 -4 -10 -3 -5 2 5 5 13 9 19 9 15 0 21 45 8 60 -5 6 -7 15
-4 18 13 13 6 164 -10 210 -9 27 -16 80 -16 122 0 42 -4 75 -10 75 -5 0 -7 6
-4 14 3 8 -1 30 -9 48 -8 18 -18 41 -21 52 -5 13 -13 17 -31 14 -23 -5 -30 2
-26 25 0 4 -6 7 -14 7 -9 0 -18 7 -21 15 -4 8 -10 12 -15 9 -15 -9 -10 18 6
36 13 14 12 19 -8 45 -50 65 -80 84 -70 45 5 -19 2 -18 -42 7 -42 23 -59 26
-145 27 -80 0 -102 -3 -126 -19 -36 -24 -54 -27 -47 -9 8 21 -14 17 -37 -6
-11 -11 -20 -15 -20 -10 0 10 -26 8 -65 -5 -20 -7 -20 -6 -1 9 19 16 19 16 -2
16 -12 0 -21 -3 -21 -7 3 -21 -3 -29 -25 -31 -20 -1 -23 2 -19 19 10 37 -30
14 -101 -58 -36 -36 -66 -61 -66 -55 0 6 5 14 10 17 15 9 12 38 -3 32 -9 -3
-12 4 -11 26 3 39 -4 51 -21 37 -10 -8 -14 -1 -17 36 -2 25 1 48 6 51 5 4 6 1
2 -5 -3 -6 -2 -13 3 -16 16 -11 22 11 6 24 -8 7 -15 19 -15 26 0 8 -6 13 -12
11 -12 -2 -13 12 -6 83 3 21 -1 24 -19 22 -23 -3 -28 8 -25 63 1 11 3 46 5 78
2 37 9 62 18 68 10 6 11 9 1 9 -7 0 -10 5 -7 10 3 6 0 10 -7 10 -9 0 -10 2 -2
8 7 4 11 28 10 55 -1 32 3 47 11 47 7 0 13 5 13 11 0 5 -4 8 -8 5 -5 -3 -9 1
-9 9 0 8 4 12 9 9 4 -3 8 -1 8 5 0 5 -5 13 -10 16 -6 4 -8 10 -6 14 3 4 1 13
-4 21 -5 9 -4 20 3 28 16 20 17 40 1 53 -8 6 -14 17 -14 23 0 6 5 4 11 -4 8
-11 12 -12 16 -2 9 22 25 13 21 -13 -4 -16 -1 -22 6 -18 6 4 6 0 -1 -9 -7 -8
-11 -18 -8 -21 3 -4 2 -5 -2 -2 -11 8 -32 -16 -26 -31 3 -8 14 -14 25 -14 13
0 17 4 12 13 -5 7 0 6 11 -3 11 -9 16 -10 11 -2 -4 6 -3 12 2 12 6 0 13 7 16
16 6 15 4 15 -10 3 -16 -13 -16 -12 -5 10 7 13 9 21 3 17 -11 -6 -22 16 -21
42 0 14 2 13 8 -3 4 -11 18 -20 32 -20 19 -1 24 3 24 21 0 12 -3 20 -6 18 -4
-2 -6 7 -6 21 0 14 3 22 8 20 4 -3 10 3 12 12 3 10 9 29 12 42 5 16 4 21 -4
17 -6 -4 -11 -2 -11 3 0 6 7 11 16 11 14 0 41 55 36 73 -1 4 9 12 22 16 13 5
26 21 30 35 3 14 13 26 20 26 19 0 77 71 69 84 -3 6 -3 8 2 4 4 -4 21 2 37 13
15 11 34 19 41 16 6 -2 37 9 67 24 30 15 60 24 65 19 13 -10 55 6 55 21 0 6 9
9 19 6 11 -3 29 2 40 9 15 11 22 11 27 3 5 -8 3 -9 -6 -4 -9 5 -11 4 -6 -4 6
-9 11 -9 21 -1 9 8 15 8 20 0 3 -6 11 -8 16 -4 5 3 7 9 4 14 -3 4 4 10 16 13
17 5 18 3 8 -9 -11 -13 -9 -14 14 -3 15 7 24 16 20 21 -3 6 4 5 16 -1 11 -7
21 -16 21 -20 0 -10 26 -9 36 1 3 4 12 4 19 2 7 -3 16 0 20 6 5 8 11 7 23 -2
12 -10 14 -10 8 0 -5 8 0 12 13 13 30 2 34 3 50 13 11 7 12 6 6 -5 -7 -11 -6
-12 6 -3 8 6 26 10 42 9 15 -1 32 4 38 12 17 20 52 17 45 -4z m-415 -40 c12
-16 12 -17 -2 -6 -9 7 -19 10 -22 6 -4 -3 -7 -1 -7 5 0 17 16 15 31 -5z m-573
-318 c-1 -13 -6 -21 -10 -17 -5 5 -6 16 -2 25 9 24 14 21 12 -8z m-8 -86 c0
-14 -5 -19 -14 -16 -11 4 -13 -5 -11 -46 2 -35 0 -45 -5 -32 l-9 20 -1 -20
c-1 -19 -2 -18 -10 3 -5 12 -17 22 -27 22 -15 0 -16 2 -3 10 12 8 12 10 1 10
-11 0 -11 3 0 17 10 11 10 14 2 9 -7 -4 -13 -2 -13 3 0 6 8 11 18 11 10 0 27
7 38 15 26 20 34 19 34 -6z m-140 -365 c0 -8 -19 -13 -24 -6 -3 5 1 9 9 9 8 0
15 -2 15 -3z m1838 -507 c38 -10 52 -30 24 -33 -7 -1 -18 -2 -24 -3 -18 -2 23
-28 52 -34 14 -2 -2 -5 -35 -6 -33 -1 -85 -3 -115 -6 l-55 -5 40 14 c22 8 34
15 28 15 -7 1 -12 6 -10 13 1 8 -12 11 -40 9 -25 -1 -43 2 -43 8 0 13 35 32
44 24 3 -3 6 -2 6 3 0 15 78 15 128 1z m-1240 -143 c33 -9 28 -40 -10 -55 -18
-7 -38 -12 -45 -12 -6 0 -9 -5 -7 -12 3 -7 14 -11 25 -8 10 3 19 0 19 -6 0 -6
-11 -11 -24 -11 -12 0 -53 -11 -90 -24 l-67 -25 23 23 c13 12 32 26 42 30 10
3 17 8 15 10 -5 5 -127 -18 -150 -28 -13 -6 -16 -1 -13 31 2 34 5 38 28 36 16
-1 26 3 26 12 0 17 22 26 90 35 73 10 110 11 138 4z m1182 -82 c0 -5 -7 -17
-15 -28 -14 -19 -14 -19 -15 2 0 11 3 24 7 27 9 10 23 9 23 -1z m680 -8 c0 -8
-5 -12 -10 -9 -6 4 -8 11 -5 16 9 14 15 11 15 -7z m36 -16 c4 -7 3 -8 -4 -4
-7 4 -12 1 -12 -9 0 -10 5 -14 13 -10 6 4 3 -1 -7 -9 -16 -13 -22 -13 -35 -3
-13 10 -14 10 -5 -3 9 -13 10 -21 5 -47 -1 -5 -6 -1 -11 7 -5 8 -10 11 -10 5
0 -5 4 -16 9 -23 6 -10 10 -10 20 1 6 8 10 19 9 25 -2 5 2 10 7 11 6 1 11 -11
12 -26 0 -16 4 -38 7 -51 3 -12 1 -20 -4 -17 -4 3 -10 -17 -12 -44 -2 -32 0
-46 7 -41 6 5 10 -2 10 -20 0 -15 -5 -26 -11 -23 -12 4 -13 -55 -1 -74 6 -9 3
-11 -10 -6 -16 6 -17 5 -3 -12 9 -11 10 -16 3 -11 -9 5 -13 -1 -13 -23 0 -36
-9 -63 -20 -56 -4 3 -13 -2 -20 -10 -11 -13 -10 -18 1 -28 8 -7 12 -11 9 -9
-2 2 -10 -18 -16 -45 -6 -26 -12 -38 -13 -26 0 12 -6 25 -13 29 -7 5 -9 2 -6
-8 4 -8 3 -21 -2 -28 -8 -12 -16 -11 -50 8 -56 32 -63 34 -71 20 -13 -20 -11
-62 6 -84 8 -10 15 -27 15 -36 0 -22 20 -24 20 -3 0 8 9 19 20 25 19 10 19 9
8 -17 -7 -15 -16 -34 -22 -41 -5 -7 -9 -30 -8 -51 1 -26 -3 -41 -13 -44 -9 -4
-14 -21 -14 -49 -1 -71 -2 -79 -10 -74 -4 3 -7 -8 -6 -24 0 -15 3 -26 7 -23 5
2 8 0 8 -6 0 -5 -5 -11 -11 -13 -7 -2 -9 -13 -5 -26 4 -12 12 -20 17 -16 10 6
5 -38 -6 -57 -4 -6 3 -5 15 3 16 10 20 19 15 38 -4 14 -7 39 -8 57 -1 17 -5
29 -10 26 -4 -2 -5 6 -3 19 3 13 5 26 5 30 1 3 9 4 19 1 12 -3 19 -15 20 -36
2 -17 8 -35 14 -39 17 -10 17 -80 0 -73 -8 3 -10 0 -5 -8 10 -17 11 -77 1 -83
-5 -3 -6 -9 -4 -13 3 -4 -3 -7 -13 -8 -12 -1 -17 5 -17 20 1 13 -6 23 -16 25
-14 3 -18 -3 -18 -27 0 -17 3 -30 8 -30 22 4 32 -3 32 -21 0 -12 6 -20 13 -19
6 1 20 1 30 0 21 -1 13 -21 -9 -21 -9 0 -12 5 -8 12 4 7 3 8 -5 4 -6 -4 -9
-11 -6 -16 3 -5 1 -11 -5 -15 -5 -3 -10 3 -10 14 0 12 -5 21 -11 21 -6 0 -9 7
-6 15 4 8 3 16 -1 19 -4 3 -8 -4 -9 -14 -1 -11 3 -22 8 -26 6 -4 -1 -18 -17
-35 -23 -24 -25 -29 -11 -35 10 -3 17 -16 17 -28 0 -18 -2 -17 -19 9 -10 17
-15 34 -11 39 5 5 6 16 3 25 -4 12 -3 13 5 2 6 -8 12 -10 16 -3 4 6 -2 15 -11
21 -10 6 -12 11 -6 11 8 0 11 9 9 23 -3 12 -5 30 -5 40 -1 9 -5 17 -10 17 -5
0 -7 -10 -4 -22 5 -23 5 -23 -11 -3 -12 14 -14 15 -10 4 3 -10 0 -20 -7 -25
-7 -4 -10 -3 -5 4 3 6 2 13 -3 16 -5 4 -8 -5 -7 -19 2 -13 -1 -22 -5 -19 -5 3
-9 -1 -9 -8 0 -9 -3 -9 -10 2 -5 8 -10 20 -10 25 0 6 5 3 10 -5 9 -13 10 -13
10 0 0 9 -6 22 -12 29 -10 11 -10 13 0 7 6 -4 12 -3 12 2 0 5 -9 12 -21 15
-12 3 -18 10 -15 16 4 5 2 12 -4 16 -6 4 -7 11 -4 17 4 7 2 8 -4 4 -7 -4 -12
-3 -12 2 0 11 -30 9 -49 -3 -11 -6 -13 -4 -8 8 4 11 2 14 -9 10 -8 -3 -21 0
-29 7 -13 11 -14 10 -9 -5 5 -13 4 -16 -4 -11 -8 5 -10 2 -6 -8 9 -24 -31 -20
-65 5 -17 13 -34 18 -42 14 -8 -5 -10 -4 -5 3 5 8 -1 12 -14 12 -11 0 -38 8
-58 18 -42 20 -84 21 -105 3 -17 -14 -33 1 -21 21 4 7 3 8 -5 4 -7 -5 -15 3
-22 22 -6 17 -19 32 -29 35 -16 4 -17 2 -7 -13 6 -10 15 -16 21 -13 5 4 6 1 1
-7 -6 -10 -12 -7 -26 11 -21 27 -24 50 -10 65 17 16 16 140 -1 184 -8 20 -15
43 -17 55 -1 6 -12 20 -24 33 -18 19 -21 35 -22 95 0 40 4 79 10 87 9 13 8 13
-8 1 -9 -8 -21 -11 -24 -7 -4 4 -1 11 6 15 8 6 10 14 5 22 -4 8 -9 26 -10 41
-3 31 -31 85 -56 109 -10 9 -18 19 -18 23 0 7 32 4 40 -4 25 -25 85 -61 109
-66 18 -4 28 -11 24 -17 -3 -5 -1 -7 5 -3 5 3 12 3 15 -1 2 -5 3 -3 1 3 -1 6
3 18 9 25 10 11 9 12 -1 3 -25 -21 -58 -2 -53 29 1 5 -3 6 -8 3 -5 -3 -16 5
-25 19 -9 14 -13 25 -9 26 5 0 23 2 42 5 19 2 31 1 27 -3 -4 -5 -13 -8 -19 -8
-5 0 -12 -7 -14 -15 -3 -9 -1 -11 4 -5 13 16 55 17 125 5 34 -7 83 -14 108
-16 25 -2 63 -6 85 -8 114 -12 219 -16 200 -7 -11 5 -32 10 -47 10 -15 1 -39
6 -55 12 l-28 12 30 8 c19 5 32 5 36 -2 11 -18 44 -5 41 15 -3 15 1 18 20 13
13 -3 33 -8 46 -11 15 -3 22 0 23 10 3 27 4 32 11 39 4 4 4 13 1 21 -3 9 2 14
16 14 15 0 23 9 29 33 6 22 15 33 30 35 26 4 28 17 5 31 -10 6 -13 11 -7 11
20 0 79 -23 97 -38 20 -18 21 -17 33 28 8 27 15 35 33 35 12 0 27 8 32 18 12
20 15 21 25 5z m-836 -26 c0 -10 7 -27 15 -38 25 -33 19 -43 -22 -37 -53 8
-58 16 -39 57 18 38 46 49 46 18z m-1123 -18 c-3 -3 -12 -4 -19 -1 -8 3 -5 6
6 6 11 1 17 -2 13 -5z m23 -89 c0 -16 -6 -25 -15 -25 -16 0 -19 9 -9 34 9 25
24 19 24 -9z m880 9 c0 -2 -7 -4 -15 -4 -8 0 -15 4 -15 10 0 5 7 7 15 4 8 -4
15 -8 15 -10z m-540 -15 c0 -5 -7 -9 -15 -9 -9 0 -12 6 -9 15 6 15 24 11 24
-6z m-155 -30 c28 -30 33 -40 19 -37 -11 2 -35 -4 -54 -13 -19 -10 -37 -16
-39 -14 -3 4 28 105 33 105 2 0 20 -18 41 -41z m193 1 c3 -14 -3 -29 -14 -37
-15 -11 -21 -10 -36 4 -24 21 -23 33 2 33 12 0 20 7 20 16 0 24 25 10 28 -16z
m882 0 c0 -5 -9 -10 -21 -10 -11 0 -17 5 -14 10 3 6 13 10 21 10 8 0 14 -4 14
-10z m61 1 c-8 -5 -20 -7 -28 -4 -21 8 -15 13 15 13 20 0 23 -3 13 -9z m-1399
-81 c20 -18 25 -29 18 -40 -5 -8 -10 -10 -10 -4 0 6 -17 14 -39 18 -52 8 -70
30 -46 56 10 11 15 20 11 20 -4 0 -4 5 0 12 5 8 12 4 23 -13 9 -13 28 -35 43
-49z m410 19 l21 -11 -24 -20 c-13 -11 -18 -17 -11 -13 17 9 15 -20 -2 -34
-10 -8 -16 -9 -21 -1 -3 5 0 11 7 11 7 1 0 4 -17 8 -38 8 -46 43 -13 59 30 14
35 14 60 1z m-286 -82 c-15 -19 -26 -38 -26 -44 0 -9 -129 -7 -139 3 -4 4 45
25 68 30 8 1 18 9 22 16 7 10 11 10 21 0 17 -17 26 -15 33 8 4 11 15 20 26 20
19 0 18 -2 -5 -33z m874 -6 c0 -6 -4 -13 -10 -16 -5 -3 -10 1 -10 9 0 9 5 16
10 16 6 0 10 -4 10 -9z m-857 -16 c-3 -9 -8 -14 -10 -11 -3 3 -2 9 2 15 9 16
15 13 8 -4z m-129 -81 c3 -7 -2 -15 -10 -18 -8 -3 -12 -2 -9 3 3 6 -3 14 -12
20 -16 9 -16 10 4 8 12 -1 25 -7 27 -13z m1051 -153 c3 -5 2 -12 -3 -15 -5 -3
-9 1 -9 9 0 17 3 19 12 6z m835 -62 c0 -11 -4 -18 -10 -14 -5 3 -7 12 -3 20 7
21 13 19 13 -6z m257 -109 c-1 -11 -5 -20 -9 -20 -4 0 -8 9 -8 20 0 11 4 20 9
20 6 0 9 -9 8 -20z m-10 -82 c-3 -8 -6 -5 -6 6 -1 11 2 17 5 13 3 -3 4 -12 1
-19z m-2582 -136 c-11 -12 -35 -10 -35 2 0 20 12 27 27 14 7 -6 11 -13 8 -16z
m65 -122 c6 -11 9 -20 8 -20 -2 0 -11 9 -21 20 -9 11 -13 20 -7 20 5 0 14 -9
20 -20z m1191 -40 c2 -15 4 -22 18 -55 10 -25 10 -31 -5 -42 -11 -8 -13 -13
-5 -13 7 0 10 -4 7 -9 -3 -5 1 -11 9 -15 10 -4 15 1 15 16 0 21 0 21 16 2 8
-10 12 -13 9 -6 -6 11 -3 12 14 3 11 -7 21 -15 21 -18 0 -3 -3 -3 -7 0 -3 4
-13 1 -21 -5 -8 -7 -21 -13 -30 -14 -8 -2 -19 -9 -24 -17 -6 -11 -16 -13 -42
-7 -18 4 -39 11 -45 14 -17 11 -3 26 24 26 31 0 35 16 13 59 -18 36 -23 72
-11 84 10 11 43 8 44 -3z m1039 -224 c0 -3 -4 -8 -10 -11 -5 -3 -10 -1 -10 4
0 6 5 11 10 11 6 0 10 -2 10 -4z m-2168 -23 c-1 -4 5 -15 13 -23 7 -8 15 -26
19 -40 4 -16 0 -13 -10 9 -11 25 -18 31 -24 22 -5 -9 -7 -2 -7 17 2 26 9 40 9
15z m1438 2 c9 -11 16 -13 24 -5 30 30 70 -3 69 -57 -1 -44 -5 -46 -37 -32
-24 11 -28 10 -42 -9 -8 -12 -24 -22 -34 -22 -11 0 -27 -9 -37 -19 -20 -21
-52 -29 -70 -18 -6 4 -23 3 -38 -3 -35 -13 -78 -13 -92 1 -9 9 -16 8 -27 -4
-24 -24 -125 -42 -149 -27 -14 8 -22 9 -30 1 -16 -16 -92 -14 -107 4 -7 8 -20
15 -30 15 -10 0 -21 7 -24 16 -7 19 10 54 28 54 7 0 23 11 35 24 27 29 68 41
86 26 9 -8 14 -8 17 0 2 7 35 13 83 14 55 1 97 9 135 24 62 25 100 28 119 10
10 -11 14 -10 22 5 13 22 81 23 99 2z m720 -25 c0 -5 -5 -10 -11 -10 -5 0 -7
5 -4 10 3 6 8 10 11 10 2 0 4 -4 4 -10z m-2096 -114 c-1 -12 -3 -25 -3 -31 -2
-15 -21 18 -21 36 0 9 6 16 13 16 8 0 12 -9 11 -21z m1730 -43 c4 -5 11 -8 14
-9 4 0 15 -4 26 -9 11 -5 21 -4 25 3 11 18 66 -1 65 -21 -1 -9 -2 -24 -3 -32
0 -8 -9 -23 -19 -33 -10 -10 -21 -26 -25 -36 -4 -9 -15 -16 -24 -14 -14 2 -17
-5 -18 -35 0 -25 4 -36 12 -32 7 2 12 -1 10 -8 -1 -7 4 -11 11 -9 8 1 11 -2 8
-7 -4 -5 -15 -9 -26 -8 -10 1 -16 5 -14 9 3 4 1 8 -5 8 -19 0 -43 -58 -32 -79
6 -10 8 -20 6 -23 -2 -2 5 -9 15 -16 17 -10 20 -10 20 3 0 8 4 15 10 15 11 0
1 -32 -14 -42 -18 -12 -26 -9 -26 10 -1 15 -2 15 -12 -3 -7 -11 -12 -28 -13
-38 -1 -10 -17 -25 -36 -35 -25 -13 -33 -23 -31 -39 2 -15 -4 -23 -20 -28 -13
-5 -24 -3 -26 4 -5 14 -49 14 -58 -1 -5 -7 -2 -9 7 -4 8 4 5 0 -5 -8 -26 -21
-41 -5 -45 49 -1 13 -41 17 -41 5 0 -5 5 -12 12 -16 7 -5 8 -3 3 6 -5 9 -4 11
4 6 6 -4 8 -12 5 -18 -5 -7 -2 -8 6 -3 8 5 11 4 6 -3 -3 -6 -15 -10 -25 -9
-15 1 -19 12 -24 62 -2 33 -2 83 2 110 5 45 8 50 29 47 12 -2 22 2 22 8 0 7
-7 10 -15 6 -8 -3 -15 -1 -15 4 0 5 -6 7 -14 4 -8 -3 -20 2 -27 11 -29 36 -62
65 -74 65 -6 0 -12 7 -12 15 0 8 5 11 11 7 15 -9 36 -12 33 -4 -1 4 2 8 6 9 4
1 17 12 28 25 11 13 17 16 13 8 -11 -19 -14 -44 -6 -35 4 4 7 10 7 13 1 22 28
53 41 48 8 -3 13 -2 10 3 -8 12 19 33 29 23 5 -4 5 -2 2 4 -4 6 0 19 7 29 10
14 15 15 21 5 6 -9 4 -11 -6 -6 -8 4 -6 1 3 -7 10 -8 16 -16 13 -19 -3 -2 1
-5 9 -5 7 0 13 5 12 11 0 6 4 12 9 14 6 1 10 -2 10 -7 0 -6 5 -15 11 -21 9 -9
15 -7 25 7 8 10 21 19 29 21 18 4 40 21 38 30 -1 14 2 22 10 22 5 0 12 -3 16
-7z m-393 -22 c-8 -5 -11 -16 -8 -26 4 -9 3 -13 -3 -10 -5 3 -14 -4 -20 -15
-6 -11 -15 -18 -19 -15 -5 2 -23 -2 -40 -11 -18 -9 -38 -13 -46 -10 -8 3 -15
0 -15 -7 0 -7 -5 -4 -11 5 -8 15 -13 16 -29 6 -10 -7 -17 -15 -15 -18 7 -12
-148 0 -161 13 -2 2 -5 14 -6 28 -3 20 1 24 24 24 14 0 29 3 33 7 4 4 16 -3
26 -15 l18 -22 6 30 7 30 82 0 c46 0 89 -5 97 -11 11 -9 21 -7 44 7 30 17 63
27 36 10z m293 -42 c-3 -5 -10 -7 -15 -3 -5 3 -7 10 -3 15 3 5 10 7 15 3 5 -3
7 -10 3 -15z m-686 -9 c2 -10 -7 -15 -27 -16 -22 -1 -29 3 -28 16 1 22 50 22
55 0z m882 -90 c0 -5 -5 -10 -11 -10 -5 0 -7 5 -4 10 3 6 8 10 11 10 2 0 4 -4
4 -10z m-39 -113 c-1 -12 -15 -9 -19 4 -3 6 1 10 8 8 6 -3 11 -8 11 -12z
m-1413 -524 c17 -16 42 -17 42 -1 0 6 11 -2 25 -18 15 -17 25 -23 25 -15 0 11
4 9 16 -5 8 -10 13 -13 9 -7 -4 8 -1 11 9 7 9 -3 15 -9 14 -12 -2 -20 3 -32
11 -27 5 3 22 -12 38 -32 15 -21 32 -42 38 -46 6 -6 6 -10 -3 -14 -6 -2 -9 -9
-6 -14 3 -6 12 -5 21 2 11 10 19 10 34 1 11 -7 24 -10 29 -7 6 4 10 0 10 -8 0
-17 44 -59 53 -50 4 3 17 -2 30 -13 12 -11 39 -27 60 -37 35 -16 37 -16 38 1
0 13 2 12 9 -4 11 -27 27 -38 35 -24 4 6 24 1 53 -14 26 -13 58 -22 71 -20 16
3 29 -3 38 -16 8 -12 25 -20 42 -20 15 0 42 -5 59 -11 24 -8 36 -7 54 4 13 8
43 14 68 13 36 -1 45 -4 44 -18 -2 -22 27 -32 66 -23 24 5 29 4 24 -8 -8 -21
25 -16 41 6 7 9 19 17 28 17 8 0 18 7 21 16 4 10 13 13 27 9 18 -6 20 -4 14
14 -5 17 -2 21 17 21 13 0 34 9 48 20 14 11 35 20 48 20 12 0 22 4 22 9 0 13
43 22 51 10 3 -6 8 -9 10 -8 2 2 17 -6 32 -16 24 -16 30 -16 37 -4 8 12 12 11
26 -3 16 -16 16 -17 -3 -12 -12 3 -24 0 -28 -6 -5 -9 -1 -10 15 -5 15 5 20 3
16 -3 -3 -6 -1 -14 5 -18 7 -4 9 -3 5 4 -3 6 -1 14 6 19 21 12 38 12 39 0 3
-32 -4 -73 -13 -82 -8 -7 -8 -6 -3 4 5 10 4 12 -4 7 -6 -4 -9 -12 -5 -17 3 -5
2 -15 -3 -22 -18 -24 -15 -78 4 -94 10 -8 12 -12 6 -8 -18 9 -16 0 3 -15 8 -8
14 -9 13 -4 -3 18 1 37 7 31 4 -3 18 7 32 23 33 38 38 38 35 -2 -3 -42 -18
-93 -91 -308 -113 -333 -121 -347 -345 -601 -83 -95 -179 -167 -288 -218 -108
-49 -160 -61 -289 -64 l-105 -2 -86 49 -86 50 -46 100 c-25 56 -71 164 -102
241 -31 77 -60 149 -65 160 -43 92 -139 316 -165 385 -19 47 -45 110 -58 140
-41 92 -67 199 -60 252 3 26 9 45 14 42 5 -3 9 6 9 20 0 16 6 26 15 26 12 0
15 13 16 58 1 72 5 93 20 102 7 5 10 22 7 44 -4 32 -1 36 18 36 13 0 26 5 30
12 4 6 3 8 -4 4 -6 -4 -10 1 -9 13 1 16 4 17 27 7 14 -6 31 -16 38 -23z m-340
-459 c19 -60 100 -247 170 -394 35 -74 123 -214 201 -320 100 -136 120 -170
159 -282 28 -81 37 -118 28 -118 -32 0 -157 95 -228 175 -43 47 -78 90 -78 96
0 10 -31 58 -61 94 -36 43 -79 137 -114 251 -20 65 -49 157 -65 204 -61 183
-93 330 -92 423 0 71 4 93 19 109 17 19 18 18 30 -79 6 -54 20 -125 31 -159z
m21 194 c0 7 5 11 10 7 5 -3 13 0 17 7 7 10 18 -29 47 -159 2 -7 6 -16 10 -19
4 -4 7 -14 7 -22 0 -16 75 -209 117 -302 99 -218 193 -434 190 -437 -11 -10
-129 156 -184 257 -64 118 -175 372 -208 477 -20 60 -35 184 -27 213 6 25 6
25 13 -5 4 -16 7 -24 8 -17z m2032 -231 c-10 -9 -11 -8 -5 6 3 10 9 15 12 12
3 -3 0 -11 -7 -18z m19 -34 c-5 -16 -19 -55 -32 -88 -14 -33 -28 -72 -31 -86
-4 -15 -23 -50 -42 -79 -19 -29 -35 -56 -35 -60 0 -4 -6 -13 -14 -19 -11 -9
-11 -3 0 36 16 61 35 115 44 128 4 6 11 21 15 35 19 60 67 149 83 153 9 3 18
5 19 6 1 0 -2 -11 -7 -26z m-1546 -2305 c10 -6 82 -12 160 -14 358 -8 544 -26
771 -73 144 -30 215 -53 215 -70 0 -5 8 -7 18 -5 9 3 38 -9 65 -26 47 -30 47
-30 31 -55 -16 -25 -13 -75 6 -75 5 0 21 11 36 25 15 14 31 25 36 25 36 0 308
-251 308 -284 0 -8 6 -19 13 -23 36 -22 166 -269 170 -323 1 -17 5 -30 9 -30
16 0 64 -212 53 -230 -5 -8 -12 -7 -22 2 -14 12 -15 9 -8 -27 5 -22 8 -56 8
-75 l-2 -35 13 30 c18 43 25 20 22 -68 -3 -80 -10 -102 -26 -77 -13 20 -13 53
0 45 6 -3 10 -2 10 4 0 18 -19 22 -39 9 -26 -16 -34 -37 -21 -53 7 -8 7 -21 1
-36 l-10 -24 0 25 c-1 19 -4 21 -13 12 -10 -10 -10 -17 0 -32 15 -25 15 -30
-2 -30 -10 0 -12 -7 -8 -22 5 -21 4 -22 -11 -9 -12 9 -17 10 -17 2 0 -6 7 -14
15 -17 8 -4 15 -14 14 -23 0 -10 -2 -11 -6 -3 -2 6 -9 12 -14 12 -13 0 -11
-57 2 -66 6 -3 9 -15 6 -25 -3 -11 -1 -19 4 -19 5 0 9 7 9 15 0 9 8 27 17 42
10 14 16 40 15 57 -3 43 11 64 32 47 17 -14 19 -11 16 32 -1 15 3 27 9 27 7 0
11 -21 11 -51 0 -48 -1 -50 -22 -43 -20 6 -21 5 -10 -9 9 -11 10 -17 2 -22 -8
-5 -6 -11 6 -19 15 -11 16 -24 10 -97 -17 -203 -64 -449 -86 -457 -5 -2 -7 -9
-4 -16 5 -14 -43 -165 -76 -239 -19 -42 -23 -46 -41 -36 -19 10 -20 9 -9 -10
9 -17 8 -22 -5 -27 -21 -9 -33 4 -37 41 -2 17 -7 28 -12 27 -5 -2 -13 3 -18
12 -5 9 -13 14 -18 11 -5 -3 -3 -13 5 -23 19 -21 16 -36 -8 -39 -13 -2 -17 2
-13 14 7 24 -3 39 -34 48 -25 8 -25 7 -6 -13 20 -23 16 -52 -8 -52 -18 0 -22
13 -25 80 -1 30 -7 58 -14 62 -6 4 -8 10 -4 14 4 4 13 2 19 -4 7 -7 19 -12 27
-12 12 0 12 3 3 12 -7 7 -12 21 -12 33 0 16 -2 17 -10 5 -12 -19 -25 -6 -15
17 13 29 5 57 -20 76 -23 17 -24 20 -11 55 8 20 17 49 20 64 5 20 11 26 24 22
14 -5 14 -4 3 4 -13 9 -11 23 7 99 30 122 52 264 54 343 1 44 -13 184 -22 220
-53 211 -51 205 -99 313 -11 26 -21 56 -21 67 0 11 -4 20 -10 20 -5 0 -35 39
-67 87 -32 48 -79 110 -106 139 -32 35 -43 54 -35 58 9 4 8 5 -2 4 -23 -3 -59
24 -53 39 3 8 -2 13 -13 13 -11 0 -44 16 -74 35 -30 19 -49 35 -42 35 14 0 16
36 3 45 -5 3 -11 -5 -13 -17 -2 -15 -9 -22 -18 -19 -8 2 -44 12 -80 23 -121
35 -304 70 -409 78 -66 5 -106 12 -111 21 -7 10 -12 10 -23 0 -12 -9 -29 -9
-83 0 -38 7 -155 13 -261 14 -106 0 -195 4 -199 8 -13 13 -26 7 -20 -8 4 -10
-8 -18 -42 -29 -96 -29 -246 -94 -294 -127 -44 -32 -97 -20 -98 21 0 8 -8 24
-16 35 -16 20 -16 20 -9 -2 4 -14 2 -23 -4 -23 -24 0 -91 36 -91 48 0 23 27
42 61 42 20 0 42 9 56 22 13 12 23 16 23 10 0 -16 47 -16 56 0 5 8 2 9 -9 5
-21 -8 -22 0 -2 19 23 24 18 31 -25 38 -38 6 -57 26 -25 26 8 0 15 -4 15 -10
0 -18 30 -11 31 8 1 16 2 16 6 0 3 -11 14 -18 29 -18 25 0 33 -15 12 -23 -7
-3 0 -6 15 -6 17 -1 27 4 25 12 -1 6 1 25 5 40 7 26 10 27 42 21 29 -5 34 -4
29 9 -3 8 0 18 7 23 7 4 15 2 17 -4 2 -7 10 -12 18 -12 9 0 13 4 9 9 -3 5 0
13 7 17 9 6 6 10 -10 14 -29 6 -25 26 6 22 12 -1 22 2 22 8 0 5 8 11 18 11 15
1 16 2 0 6 -10 2 -15 10 -11 19 3 8 -1 14 -11 14 -10 0 -13 -6 -10 -15 7 -18
-7 -20 -24 -3 -9 9 -12 8 -12 -4 0 -18 -24 -27 -52 -20 -28 7 -21 22 10 22
l27 1 -29 24 c-33 26 -66 38 -66 23 0 -5 -4 -6 -10 -3 -5 3 -10 1 -10 -4 0
-19 -17 -12 -23 9 -4 15 1 22 21 27 15 3 38 13 51 22 25 16 117 20 163 6 18
-6 20 -5 11 5 -6 7 -24 13 -39 13 -20 0 -23 2 -12 8 9 5 28 4 45 -1 19 -7 38
-7 54 -1 l24 10 -22 7 c-33 9 -18 24 25 24 20 0 44 5 52 11 17 11 135 2 164
-13z m-656 -183 c0 -29 -4 -30 -24 -11 -12 13 -12 16 3 25 10 6 19 11 19 11 1
0 2 -11 2 -25z m72 15 c0 -5 -12 -10 -27 -10 -22 0 -25 2 -13 10 20 13 40 13
40 0z m50 -9 c-11 -21 -29 -36 -36 -29 -4 5 33 48 42 48 2 0 0 -9 -6 -19z m65
-2 c6 -19 0 -38 -9 -28 -10 12 -16 49 -7 49 5 0 13 -9 16 -21z m-235 -19 c0
-5 -7 -10 -16 -10 -8 0 -12 5 -9 10 3 6 10 10 16 10 5 0 9 -4 9 -10z m110 -10
c0 -5 -4 -10 -10 -10 -5 0 -10 -7 -10 -15 0 -8 -7 -15 -15 -15 -18 0 -19 16
-2 35 14 17 37 20 37 5z m-97 -20 c-3 -11 -9 -20 -14 -20 -14 0 -11 28 4 33 6
3 13 6 14 6 0 1 -1 -8 -4 -19z m169 -5 c6 -27 -3 -31 -33 -15 -26 14 -24 29 3
22 14 -3 19 -2 14 6 -4 7 -3 12 2 12 5 0 12 -11 14 -25z m-212 -5 c0 -5 -7
-10 -15 -10 -8 0 -15 5 -15 10 0 6 7 10 15 10 8 0 15 -4 15 -10z m276 -10 c0
-11 -4 -20 -8 -20 -4 0 -8 9 -8 20 0 11 4 20 8 20 4 0 8 -9 8 -20z m-336 -5
c0 -9 6 -15 13 -14 35 4 56 -2 51 -15 -7 -19 16 -32 27 -15 4 7 11 10 15 7 3
-4 -1 -15 -10 -24 -15 -14 -15 -19 -3 -38 8 -11 22 -21 30 -21 26 0 32 -15 6
-16 -17 -1 -19 -3 -6 -6 9 -2 17 -9 17 -14 0 -10 -7 -11 -38 -3 -19 5 -20 9
-10 21 11 13 5 15 -40 12 -47 -4 -52 -2 -48 14 3 12 -2 17 -17 17 -16 0 -18
-3 -8 -9 11 -7 11 -12 0 -32 -7 -13 -12 -27 -11 -30 1 -4 -10 -10 -23 -13 -27
-7 -32 -20 -13 -32 7 -4 8 -3 4 4 -7 11 -3 14 27 16 6 1 15 6 19 11 4 6 8 2 8
-8 0 -14 5 -17 23 -12 16 6 19 4 11 -4 -6 -7 -21 -13 -33 -14 -11 -1 -21 -5
-21 -9 0 -4 -9 -8 -21 -8 -11 0 -17 -4 -14 -10 3 -5 15 -10 26 -10 14 0 19 -7
19 -25 0 -28 -15 -34 -24 -9 -3 8 -10 12 -16 9 -6 -4 -8 -11 -5 -16 4 -5 -1
-9 -9 -9 -9 0 -16 -7 -16 -16 0 -14 -3 -14 -16 -3 -8 7 -13 21 -11 31 4 14 -1
18 -19 18 -16 0 -22 -4 -18 -14 3 -7 -2 -16 -10 -19 -11 -4 -16 -1 -16 11 -1
16 -1 15 -11 -1 -8 -13 -7 -22 1 -32 7 -8 10 -20 7 -27 -3 -8 -9 -2 -15 13 -9
22 -16 26 -39 22 -26 -4 -27 -3 -9 11 10 8 15 19 11 25 -9 16 -25 13 -25 -4 0
-11 -11 -15 -39 -15 -31 0 -41 -4 -46 -21 -4 -11 -9 -18 -11 -16 -8 7 18 57
30 58 6 1 19 1 29 0 9 -1 17 3 17 8 0 6 -7 11 -16 11 -26 0 41 83 127 155 43
37 82 64 87 61 5 -3 14 6 20 19 7 14 18 25 27 25 8 0 15 5 15 10 0 6 5 10 10
10 6 0 10 -7 10 -15z m140 -11 c0 -8 -4 -14 -9 -14 -11 0 -22 26 -14 34 9 9
23 -3 23 -20z m131 -30 c12 -14 11 -16 -5 -13 -11 2 -21 10 -24 17 -5 17 13
15 29 -4z m-121 -20 c0 -16 -4 -23 -12 -18 -7 4 -8 3 -4 -4 4 -7 18 -12 32
-12 13 0 24 -4 24 -9 0 -7 -15 -8 -55 -2 -5 1 -17 6 -25 11 -13 8 -11 13 10
34 31 31 30 31 30 0z m-100 -88 c0 -11 -19 -15 -25 -6 -3 5 1 10 9 10 9 0 16
-2 16 -4z m-20 -96 c0 -5 -7 -10 -15 -10 -8 0 -15 5 -15 10 0 6 7 10 15 10 8
0 15 -4 15 -10z m40 -20 c19 -12 7 -23 -25 -25 -29 -1 -30 1 -12 20 14 17 18
17 37 5z m93 -49 c22 -14 25 -20 15 -29 -14 -11 -54 9 -41 21 3 4 -4 7 -16 7
-12 0 -19 4 -16 10 9 15 27 12 58 -9z m-103 -11 c0 -5 -6 -10 -12 -10 -9 0 -9
-3 -3 -8 6 -4 12 -20 13 -37 1 -27 0 -28 -12 -12 -7 9 -22 17 -32 17 -18 1
-18 1 -1 11 9 5 17 19 17 29 0 11 7 20 15 20 8 0 15 -4 15 -10z m-63 -22 c-3
-8 -6 -5 -6 6 -1 11 2 17 5 13 3 -3 4 -12 1 -19z m120 5 c2 -6 -4 -13 -13 -17
-21 -8 -26 -3 -18 18 7 18 25 17 31 -1z m-188 -45 c8 -18 13 -37 12 -42 -1 -5
12 -6 29 -3 31 7 42 -6 14 -17 -22 -8 -90 24 -72 35 10 6 9 11 -6 22 -11 8
-16 19 -12 25 12 19 21 14 35 -20z m201 12 c0 -12 -40 -33 -48 -25 -4 4 2 13
12 21 23 16 36 18 36 4z m-275 -30 c3 -5 1 -10 -4 -10 -6 0 -11 5 -11 10 0 6
2 10 4 10 3 0 8 -4 11 -10z m-35 -14 c0 -9 -7 -12 -20 -9 -11 3 -20 9 -20 14
0 5 9 9 20 9 11 0 20 -6 20 -14z m-90 -31 c0 -12 -19 -12 -23 0 -4 9 -1 12 9
8 7 -3 14 -7 14 -8z m93 -10 c-3 -9 -8 -14 -10 -11 -3 3 -2 9 2 15 9 16 15 13
8 -4z m88 -28 c-8 -8 -11 -5 -11 9 0 27 14 41 18 19 2 -9 -1 -22 -7 -28z m134
33 c-3 -5 -10 -10 -16 -10 -5 0 -9 5 -9 10 0 6 7 10 16 10 8 0 12 -4 9 -10z
m-260 -10 c3 -5 1 -10 -5 -10 -7 0 -25 -9 -41 -21 -22 -16 -29 -17 -29 -6 0 8
7 20 15 27 8 7 15 9 15 4 0 -4 5 -3 12 4 15 15 25 15 33 2z m214 -28 c-39 -10
-41 -12 -31 -25 19 -22 -2 -40 -37 -32 -35 7 -39 0 -14 -27 16 -17 16 -20 -2
-36 -10 -9 -15 -11 -11 -4 11 19 -3 35 -19 22 -11 -9 -12 -16 -2 -30 16 -27
-2 -75 -28 -75 -17 0 -20 -7 -21 -46 -2 -52 -37 -137 -61 -146 -17 -7 -46 24
-37 38 3 5 1 9 -5 9 -5 0 -11 -5 -13 -10 -2 -7 -16 -5 -36 6 -19 9 -43 13 -57
10 -14 -4 -25 -2 -25 3 0 5 9 11 21 14 12 3 18 10 14 16 -3 6 1 11 10 11 11 0
15 -5 11 -15 -3 -8 -4 -15 -2 -15 3 0 13 -3 23 -7 15 -6 16 -4 6 8 -14 17 -11
51 5 57 8 2 8 9 -1 23 -15 24 -27 24 -28 2 0 -15 -2 -15 -9 2 -7 17 -9 17 -9
3 -1 -10 -8 -18 -16 -18 -21 0 -31 -30 -14 -40 11 -7 10 -10 -5 -16 -13 -5
-24 -1 -35 14 -11 15 -23 20 -38 16 -14 -4 -23 -2 -23 5 0 5 6 8 13 5 18 -7
39 20 31 40 -8 20 -24 21 -24 0 0 -8 -5 -12 -10 -9 -6 4 -8 11 -4 16 3 5 0 16
-6 24 -6 8 -9 19 -5 25 4 6 -3 9 -17 7 -14 -1 -23 4 -26 15 -3 15 1 16 30 7
18 -5 34 -9 35 -9 1 0 0 7 -3 15 -4 8 -13 15 -21 15 -8 0 -11 5 -8 10 3 6 1
10 -5 10 -23 0 -3 23 22 26 19 2 27 -3 31 -17 6 -21 27 -26 27 -6 0 7 -5 18
-12 25 -9 9 -8 12 6 12 14 0 17 6 14 29 -3 23 -1 27 14 23 10 -2 18 -13 18
-24 0 -16 6 -18 37 -16 33 3 38 -1 55 -32 15 -28 25 -35 53 -37 19 -2 35 2 35
7 0 6 11 10 25 10 14 0 25 5 25 11 0 6 6 9 13 6 6 -2 18 2 25 9 10 12 10 14
-3 14 -8 0 -15 5 -15 10 0 6 -13 10 -29 10 -17 0 -31 6 -35 16 -5 13 -2 14 11
8 38 -17 85 -8 152 31 13 7 31 11 39 7 13 -5 14 -6 1 -10z m-309 -13 c0 -5 -4
-9 -10 -9 -5 0 -10 7 -10 16 0 8 5 12 10 9 6 -3 10 -10 10 -16z m188 4 c-8
-10 -22 -12 -51 -8 -28 5 -42 3 -48 -6 -8 -12 -11 -12 -18 1 -14 20 -2 25 68
26 52 1 59 -1 49 -13z m-218 -3 c0 -5 -4 -10 -10 -10 -5 0 -10 5 -10 10 0 6 5
10 10 10 6 0 10 -4 10 -10z m108 -26 c27 -8 29 -24 2 -24 -11 0 -20 -7 -20
-16 0 -9 -5 -12 -12 -8 -9 5 -9 2 1 -9 11 -14 11 -17 0 -17 -8 1 -21 16 -30
35 -15 31 -15 34 0 38 25 7 34 7 59 1z m-233 -14 c-3 -5 -10 -10 -16 -10 -5 0
-9 5 -9 10 0 6 7 10 16 10 8 0 12 -4 9 -10z m305 -25 c0 -18 -48 -31 -62 -17
-8 8 -7 13 3 16 8 2 21 7 29 9 25 9 30 8 30 -8z m1244 -42 c9 -26 16 -54 16
-64 0 -9 6 -22 14 -28 15 -12 45 -112 50 -163 1 -19 8 -42 14 -53 5 -11 14
-38 18 -60 6 -37 6 -39 -9 -26 -15 12 -17 11 -17 -10 0 -13 5 -31 11 -39 8
-13 9 -12 7 4 -2 10 3 21 10 23 18 7 15 -36 -3 -43 -8 -4 -15 -15 -15 -25 0
-17 3 -18 21 -7 17 11 22 10 30 -4 9 -16 26 -18 134 -18 81 0 126 -4 131 -11
5 -8 9 -7 15 3 7 12 37 15 153 17 140 1 145 1 157 -21 11 -20 13 -20 24 -5 13
18 35 23 35 8 0 -16 -64 -51 -74 -41 -15 15 -26 12 -20 -4 5 -14 -94 -106
-115 -106 -6 0 -11 -5 -11 -10 0 -13 -239 -170 -258 -170 -23 0 -44 -30 -39
-53 2 -12 16 -65 30 -117 14 -52 30 -120 35 -150 6 -31 13 -67 17 -81 6 -24 5
-25 -27 -21 -18 2 -38 9 -44 14 -8 5 -14 3 -17 -6 -6 -16 20 -26 71 -26 17 0
32 -5 32 -11 0 -12 -34 -9 -107 6 -29 7 -32 5 -35 -21 -2 -16 -7 -27 -13 -24
-16 8 -5 44 18 62 12 10 17 18 11 18 -9 0 -9 11 -3 38 11 49 11 64 -1 57 -5
-3 -10 -14 -10 -23 0 -9 -7 -30 -15 -46 -8 -15 -15 -35 -15 -43 0 -8 -5 -24
-11 -35 -11 -21 -12 -21 -25 -3 -18 25 -18 35 2 35 8 0 12 5 9 10 -3 6 -1 10
5 10 6 0 9 4 6 9 -3 4 -33 11 -66 15 -55 6 -66 12 -127 66 -38 33 -74 60 -82
60 -7 0 -44 -22 -81 -50 -37 -27 -77 -50 -88 -50 -14 0 -20 -5 -16 -14 6 -16
-30 -41 -45 -32 -5 3 -11 0 -14 -8 -5 -13 -174 -128 -229 -155 -14 -7 -31 -10
-37 -7 -20 13 -12 46 13 56 26 9 44 30 27 30 -17 0 -13 61 8 115 10 28 40 104
65 170 25 65 46 125 46 131 0 7 6 14 12 16 7 3 13 13 13 24 0 17 7 19 58 16
31 -1 57 2 57 7 0 11 -35 21 -72 21 -16 0 -28 4 -28 9 0 5 -33 33 -72 62 -77
57 -93 72 -78 77 5 2 4 16 -2 33 -5 16 -8 36 -5 43 3 8 -1 20 -10 28 -15 12
-16 7 -10 -44 3 -32 2 -58 -2 -58 -19 0 -129 98 -120 107 6 6 -1 15 -18 24
-32 17 -63 45 -57 52 12 11 59 -11 56 -26 -1 -8 2 -18 8 -22 5 -3 7 0 4 9 -4
11 0 13 15 9 25 -6 41 24 20 39 -10 7 -8 8 9 3 13 -4 22 -2 22 4 0 6 -11 11
-24 11 -13 0 -32 3 -42 7 -14 5 -16 3 -11 -11 6 -15 3 -17 -23 -11 -18 4 -36
2 -44 -4 -9 -8 -18 -7 -32 4 -19 14 -19 14 1 16 11 0 32 0 48 -1 15 -1 27 3
27 9 0 6 -19 11 -43 11 -40 0 -97 18 -97 31 0 3 28 0 61 -7 34 -7 102 -16 150
-20 65 -5 89 -10 89 -20 0 -19 39 -18 46 1 5 12 29 14 137 12 l131 -2 19 50
c25 67 33 80 46 78 15 -4 14 14 -1 19 -8 3 -5 17 9 49 12 24 26 60 33 79 6 19
25 58 41 85 16 28 41 74 56 103 15 28 30 52 34 52 4 0 14 -21 23 -47z m-1509
-243 c-3 -5 -11 -10 -16 -10 -6 0 -7 5 -4 10 3 6 11 10 16 10 6 0 7 -4 4 -10z
m75 -10 c0 -5 -4 -10 -10 -10 -5 0 -10 5 -10 10 0 6 5 10 10 10 6 0 10 -4 10
-10z m13 -46 c-5 -13 -53 -6 -53 7 0 5 13 8 29 7 17 -1 27 -7 24 -14z m100 0
c19 -6 23 -29 7 -39 -6 -4 -8 -10 -5 -15 3 -4 2 -15 -1 -24 -5 -13 -9 -12 -27
4 -19 19 -20 21 -3 39 17 18 17 19 -3 26 -12 3 -25 4 -30 1 -5 -3 -12 1 -15
10 -6 15 15 15 77 -2z m-181 -58 c27 17 73 12 95 -11 13 -12 38 -26 56 -31
l32 -8 -32 -3 c-18 -3 -33 -8 -33 -14 0 -5 -4 -9 -10 -9 -5 0 -10 6 -10 14 0
8 -5 16 -12 18 -17 6 -68 -3 -68 -12 0 -8 39 -25 51 -23 3 1 19 -10 35 -24 18
-16 25 -27 17 -30 -18 -6 -16 -23 1 -23 15 0 32 -37 23 -47 -9 -8 -27 7 -27
23 0 8 -4 14 -10 14 -5 0 -10 11 -10 24 0 37 -33 56 -76 43 -19 -6 -36 -8 -38
-6 -2 2 -1 19 1 37 4 24 10 32 27 33 20 0 20 1 1 8 -28 12 -42 -3 -50 -55 -3
-24 -10 -42 -15 -39 -4 3 -11 -1 -13 -7 -5 -12 -11 17 -8 36 4 21 -21 34 -59
29 -22 -3 -40 -2 -40 2 0 13 45 44 64 45 11 0 16 5 13 14 -9 22 1 24 44 10 22
-8 45 -11 51 -8z m-1652 -13 c19 -3 40 -7 45 -8 6 -2 44 -8 85 -15 41 -7 95
-16 120 -21 25 -4 118 -11 207 -15 89 -4 160 -11 157 -16 -3 -4 7 -8 23 -8 27
0 28 -2 30 -59 2 -39 -2 -64 -10 -73 -8 -7 -13 -27 -13 -44 0 -16 -3 -34 -5
-40 -3 -5 -5 -16 -4 -24 0 -8 -6 -20 -15 -27 -8 -7 -11 -13 -7 -13 5 0 -1 -16
-13 -35 -12 -19 -19 -35 -16 -35 8 0 -32 -111 -46 -127 -8 -10 -8 -17 -2 -21
6 -4 7 -18 3 -32 -6 -21 -7 -22 -8 -5 -1 13 -6 7 -15 -17 -8 -21 -23 -46 -35
-55 -12 -10 -23 -25 -24 -33 -4 -25 -18 -41 -29 -34 -6 4 -8 3 -5 -3 3 -5 -7
-23 -22 -40 -15 -17 -31 -39 -35 -49 -6 -16 -8 -16 -16 -4 -7 10 -10 11 -10 3
0 -7 -5 -13 -11 -13 -5 0 -8 4 -4 9 3 5 1 13 -5 16 -6 4 -9 1 -8 -7 2 -7 -3
-12 -11 -10 -11 2 -12 0 -3 -11 7 -8 8 -18 4 -22 -4 -5 -1 -5 6 -1 7 4 9 12 6
18 -4 7 -2 8 4 4 22 -13 0 -36 -34 -36 -27 0 -34 -4 -34 -20 0 -11 -6 -20 -13
-20 -15 0 -42 -49 -32 -58 3 -3 5 -1 5 4 0 6 6 18 13 27 10 15 12 14 12 -14 0
-17 -7 -36 -17 -43 -11 -8 -15 -20 -11 -36 4 -15 1 -25 -11 -32 -23 -13 -20
-37 7 -47 21 -8 21 -9 -15 -30 -20 -12 -39 -29 -42 -37 -3 -8 -10 -12 -16 -9
-6 3 -7 -1 -4 -9 4 -11 0 -16 -11 -16 -13 0 -15 -3 -6 -13 15 -18 4 -27 -33
-28 -26 0 -28 -2 -11 -9 18 -8 17 -9 -7 -9 -26 -1 -34 -12 -29 -43 1 -14 -35
0 -44 18 -10 20 -45 32 -45 15 0 -5 -7 -8 -15 -7 -16 2 -44 26 -31 26 5 0 2 8
-5 17 -12 14 -12 16 1 9 8 -5 2 4 -15 18 -23 22 -27 30 -19 44 10 16 2 46 -17
62 -8 6 -6 80 2 80 3 0 5 33 5 74 -1 48 2 72 9 68 5 -3 2 4 -7 15 -11 12 -18
36 -18 62 0 23 -5 51 -10 62 -7 13 -8 31 -1 57 18 68 20 92 8 92 -7 0 -6 4 3
10 13 9 13 10 0 10 -13 0 -13 1 0 10 13 9 13 10 0 11 -8 1 -22 1 -30 0 -12 -2
-13 0 -1 7 9 6 12 22 9 46 -3 24 0 37 10 41 12 4 12 8 1 21 -10 13 -10 19 0
36 11 18 11 20 -4 15 -9 -4 -14 -3 -10 3 3 6 0 10 -7 10 -10 0 -10 2 1 9 7 5
11 13 7 19 -3 6 -2 14 4 17 8 5 8 11 1 19 -6 7 -10 34 -9 60 1 26 4 43 6 37 7
-22 19 -10 18 19 -1 27 -2 28 -13 13 -12 -15 -13 -14 -13 10 0 17 5 27 14 27
8 0 14 9 13 19 0 11 -6 19 -11 18 -6 -1 -12 9 -13 23 -2 21 -1 22 5 6 10 -23
25 -6 16 17 -3 8 3 23 14 33 11 11 22 26 25 34 4 11 6 9 6 -5 1 -17 3 -17 11
-5 7 11 10 11 10 2 0 -7 5 -10 10 -7 6 3 13 -1 16 -9 8 -20 24 -21 24 -1 0 8
-6 15 -14 15 -7 0 -19 7 -26 15 -10 12 -9 15 6 15 19 1 19 1 0 15 -17 13 -15
14 20 9 22 -3 55 -8 74 -11z m5897 -12 c97 -25 180 -52 258 -84 33 -14 97 -41
141 -59 45 -19 103 -48 130 -65 27 -17 60 -34 74 -38 14 -5 43 -19 64 -33 106
-67 290 -145 401 -172 38 -9 43 -14 87 -102 118 -233 175 -331 301 -518 279
-413 361 -548 391 -637 16 -49 16 -58 2 -130 -19 -97 -42 -278 -56 -443 -29
-344 -51 -587 -65 -700 -29 -248 -48 -569 -60 -1015 -7 -236 -16 -335 -46
-490 -10 -55 -24 -127 -30 -160 -20 -115 -40 -200 -48 -213 -8 -14 -85 -7
-536 48 -88 11 -178 22 -200 24 -22 3 -53 5 -68 6 -16 0 -26 4 -23 9 4 5 -2 7
-12 4 -24 -6 -386 35 -464 53 -5 1 -12 2 -17 3 -9 1 -44 125 -54 191 -5 31 -5
32 5 12 7 -13 17 -21 25 -18 8 3 11 2 8 -3 -3 -5 -1 -12 5 -16 5 -3 10 2 11
12 0 16 1 16 9 -2 6 -13 9 -15 9 -5 1 13 2 13 11 0 9 -13 10 -13 10 0 0 12 2
13 9 1 7 -11 12 -10 28 6 19 19 23 73 9 109 -3 7 4 14 14 17 21 5 21 26 0 53
-14 18 -14 18 7 1 12 -11 20 -27 18 -38 -2 -11 2 -19 10 -19 8 0 12 8 10 20
-2 11 0 22 4 25 5 2 8 -3 7 -13 0 -9 4 -18 9 -19 6 -2 10 25 10 66 -1 54 2 68
13 63 11 -4 11 -6 0 -13 -10 -7 -10 -9 2 -9 13 0 13 -1 0 -10 -13 -9 -13 -10
0 -10 13 0 13 -1 0 -10 -13 -9 -13 -10 0 -10 13 0 13 -1 0 -10 -13 -9 -13 -10
0 -10 13 0 13 -1 0 -10 -13 -9 -13 -10 0 -10 13 0 13 -1 0 -10 -13 -9 -13 -10
0 -10 13 0 13 -1 0 -10 -8 -5 -15 -14 -15 -20 0 -5 -4 -9 -10 -7 -5 1 -9 6 -7
10 1 5 -3 5 -9 2 -7 -5 -8 -10 0 -18 7 -7 7 -14 0 -23 -7 -8 -6 -15 3 -20 21
-13 38 -13 39 -1 0 7 2 22 3 34 2 13 -2 23 -8 23 -6 0 -4 4 4 9 8 6 17 8 20 6
3 -2 5 31 5 72 0 73 -1 76 -25 79 -14 2 -34 5 -45 7 -11 3 -25 1 -30 -4 -7 -5
-11 7 -11 36 0 24 3 42 7 39 4 -2 5 -17 4 -34 -1 -17 0 -28 3 -25 8 8 10 74 3
73 -19 -2 -22 4 -10 19 10 11 10 14 2 9 -16 -9 -17 6 -2 21 15 15 -22 27 -91
28 -41 0 -54 4 -52 14 2 9 -3 11 -15 7 -17 -6 -17 -5 0 8 9 7 17 24 17 37 0
19 -2 21 -10 9 -7 -11 -10 -11 -10 -2 0 7 -4 11 -9 8 -4 -3 -8 12 -7 34 1 25
-2 39 -8 36 -6 -2 -10 -10 -8 -17 2 -8 0 -10 -5 -6 -4 5 -8 13 -8 18 0 5 -4 8
-10 7 -5 -2 -9 -7 -7 -12 2 -5 -4 -4 -12 4 -9 7 -15 24 -15 39 1 26 1 26 10
-4 l8 -30 -3 32 c-1 18 1 33 6 33 4 0 8 -9 8 -19 0 -11 4 -22 9 -25 4 -3 7 7
5 22 l-4 27 9 -25 c6 -18 9 -20 10 -7 1 10 -7 30 -16 44 -10 15 -13 24 -7 21
7 -5 9 3 6 23 -4 29 -26 40 -35 17 -3 -8 -6 -6 -6 5 -1 12 7 17 24 17 21 0 25
-5 26 -32 l2 -33 8 35 8 35 -3 -37 c-1 -21 1 -38 5 -38 7 0 3 -41 -6 -67 -5
-14 10 -18 18 -5 2 4 3 2 2 -3 -2 -6 4 -16 12 -24 13 -11 14 -9 10 17 -3 19 0
35 8 42 15 13 14 32 -3 53 -8 9 -9 18 -3 21 10 7 10 24 -2 43 -4 6 -3 14 1 17
5 3 8 22 7 41 -1 20 2 38 7 41 10 6 5 -72 -5 -82 -3 -4 -3 -12 0 -18 12 -18
12 -35 2 -42 -6 -3 -5 -12 3 -21 17 -21 18 -40 3 -53 -7 -6 -12 -22 -9 -35 2
-13 0 -34 -5 -47 -7 -16 -10 -18 -10 -6 -1 9 -5 19 -10 23 -12 7 -8 -42 4 -53
4 -4 4 0 0 8 -8 13 -7 13 8 1 9 -7 17 -22 17 -32 0 -10 4 -20 9 -23 4 -3 6 6
3 21 -4 20 -2 24 9 18 8 -5 11 -5 7 0 -4 4 -3 14 3 21 6 8 7 14 0 18 -6 4 -8
14 -5 24 5 14 4 14 -4 2 -8 -11 -10 -7 -8 15 1 17 6 37 11 45 5 8 10 21 10 27
0 7 3 12 6 10 3 -1 14 5 24 13 13 10 16 11 11 2 -5 -9 -3 -12 6 -10 7 2 13 -1
13 -7 0 -5 -6 -8 -14 -7 -7 2 -10 -1 -7 -6 3 -5 0 -15 -8 -21 -16 -13 -15 -43
2 -49 6 -2 10 5 7 17 -2 11 4 26 13 33 15 11 15 11 6 -2 -14 -20 -12 -42 4
-48 7 -2 12 0 11 5 -1 4 0 13 1 18 1 6 2 35 1 64 -1 52 -14 76 -34 64 -14 -8
-57 -11 -52 -2 3 4 1 11 -5 14 -7 4 -7 11 -2 18 5 7 8 20 6 30 -1 11 0 16 4
13 10 -11 11 -36 1 -42 -5 -3 -7 -10 -4 -15 7 -11 26 -12 24 -1 -1 4 0 9 1 12
9 24 5 43 -11 53 -21 13 -25 32 -8 42 6 4 9 1 7 -6 -1 -8 2 -14 7 -14 5 0 9 6
7 12 -5 22 8 14 18 -10 6 -16 9 -17 9 -5 1 9 -3 20 -9 23 -5 3 -10 12 -10 18
1 7 10 1 20 -12 23 -26 11 -55 -17 -44 -12 5 -14 3 -7 -8 12 -20 14 -38 3 -45
-11 -6 -2 -24 12 -24 6 0 7 6 3 13 -6 9 -4 9 7 0 19 -19 34 -16 18 3 -16 19
-20 42 -9 49 4 2 7 -5 6 -17 -1 -13 6 -22 17 -24 9 -1 17 2 17 8 0 6 7 5 18
-3 9 -7 14 -9 10 -5 -4 5 -2 16 5 25 11 14 10 14 -5 2 -12 -9 -18 -10 -18 -2
0 6 -5 11 -11 11 -5 0 -7 -6 -3 -12 6 -10 4 -10 -6 -1 -9 8 -14 35 -14 68 0
36 -3 52 -10 45 -6 -6 -14 -6 -23 2 -8 6 -13 7 -12 2 4 -23 -2 -26 -17 -8 -14
18 -15 18 -4 -4 15 -30 5 -41 -10 -12 -6 12 -14 19 -17 16 -3 -3 -14 -1 -23 4
-19 10 -20 1 -7 -56 4 -15 -1 -25 -18 -34 -14 -7 -22 -17 -19 -22 4 -5 -3 -4
-15 4 -29 18 -26 28 7 22 15 -2 23 -1 17 3 -10 8 -16 34 -16 68 0 16 -2 17 -9
5 -7 -10 -10 -11 -10 -3 0 10 -36 12 -47 2 -2 -1 -18 -2 -35 -3 -30 -1 -33 -4
-33 -32 0 -24 4 -30 20 -30 29 2 47 16 41 31 -3 8 2 19 10 26 13 11 14 9 8
-17 -11 -48 -23 -63 -44 -59 -11 2 -19 -1 -17 -7 1 -6 -4 -13 -11 -15 -8 -3
-10 2 -6 14 5 15 4 15 -5 3 -6 -8 -8 -24 -5 -35 4 -17 3 -17 -5 -4 -6 9 -8 27
-6 39 3 17 2 21 -6 13 -6 -6 -19 -9 -28 -6 -12 4 -13 3 -2 -5 8 -6 10 -12 3
-16 -6 -4 -15 2 -21 11 -6 11 -11 13 -11 5 0 -7 -4 -11 -9 -7 -5 3 -12 1 -16
-4 -3 -6 -12 -8 -20 -4 -18 6 -20 -8 -2 -26 10 -10 9 -11 -5 -6 -10 4 -18 15
-19 24 0 12 -2 12 -9 -4 -8 -19 -9 -19 -9 3 -1 29 -21 18 -21 -11 0 -20 5 -22
50 -23 36 0 50 4 50 14 0 7 5 10 10 7 6 -4 8 -10 5 -15 -8 -13 21 -6 39 9 16
14 22 3 9 -14 -5 -6 -5 -8 -1 -5 4 3 27 4 52 2 47 -4 62 -23 45 -55 -6 -9 -6
-18 0 -21 4 -3 6 -24 4 -46 -3 -25 0 -47 8 -58 13 -16 12 -16 -6 -1 -29 24
-85 30 -85 10 0 -14 -1 -14 -10 -1 -7 12 -10 8 -11 -15 0 -26 -2 -28 -10 -10
-8 17 -9 17 -6 -7 3 -23 2 -25 -15 -15 -10 7 -18 15 -18 20 0 4 -4 6 -9 3 -5
-3 -12 1 -15 10 -4 9 -9 14 -12 11 -3 -3 2 -17 12 -31 27 -42 9 -41 -22 1 -16
21 -34 44 -41 50 -6 7 -9 22 -6 33 3 11 -2 47 -11 80 -9 33 -17 76 -16 97 0
21 -5 64 -11 95 -10 47 -9 70 4 135 16 76 16 81 -6 188 -12 61 -22 130 -21
155 3 70 -52 234 -93 278 -18 19 -18 19 31 96 28 45 46 64 50 55 3 -8 3 -4 0
9 -3 13 0 29 6 37 18 22 17 125 -2 170 -9 22 -23 61 -32 86 -9 25 -24 54 -34
65 -56 61 -65 86 -83 218 -20 143 -24 286 -10 286 19 0 29 70 35 235 5 166
-12 359 -43 505 -17 79 -12 125 24 220 54 140 134 377 156 457 10 39 23 83 29
98 9 22 66 238 84 318 8 32 12 33 113 8z m-4405 -61 c5 0 3 -7 -6 -15 -21 -21
-36 -19 -36 6 0 15 4 19 16 15 9 -3 20 -6 26 -6z m58 -30 c0 -5 -7 -10 -15
-10 -8 0 -15 -7 -15 -15 0 -8 -6 -15 -14 -15 -8 0 -13 10 -13 25 0 21 4 25 28
25 16 0 29 -4 29 -10z m-652 -269 c-42 -87 -100 -192 -105 -188 -2 3 9 51 25
108 17 57 42 156 57 219 15 63 30 120 34 125 3 6 7 -41 9 -104 2 -100 0 -119
-20 -160z m769 228 c2 -18 -2 -38 -8 -45 -14 -17 1 -23 51 -22 72 1 92 -2 87
-14 -5 -14 -19 -15 -56 -3 -17 5 -22 4 -19 -6 2 -7 12 -13 22 -15 30 -4 37
-18 43 -91 l6 -70 -29 -8 c-16 -5 -39 -7 -51 -6 -17 2 -20 -2 -16 -19 5 -18 2
-21 -13 -18 -27 5 -27 54 0 50 11 -2 15 1 11 8 -4 6 -21 9 -38 6 -18 -3 -38
-2 -45 3 -17 10 -25 94 -9 88 7 -2 11 -12 10 -21 -1 -14 4 -16 22 -12 18 5 28
-1 43 -21 l19 -27 37 18 c20 9 36 21 36 26 0 13 -7 12 -32 -1 -15 -8 -19 -8
-14 0 5 7 -3 11 -21 12 l-28 1 29 13 c28 12 29 13 8 19 -12 4 -26 4 -32 1 -29
-18 -71 25 -49 51 6 7 9 23 7 36 -2 13 4 28 12 35 13 11 13 12 -2 13 -19 0
-21 39 -3 52 13 10 18 3 22 -33z m53 26 c11 -13 10 -14 -4 -9 -9 3 -16 10 -16
15 0 13 6 11 20 -6z m-246 -28 c-5 -17 -3 -19 21 -13 23 6 25 5 13 -8 -7 -7
-16 -12 -20 -9 -7 4 -12 -11 -9 -29 1 -12 -41 -20 -52 -9 -7 7 -3 13 14 20 13
5 18 10 10 10 -7 1 -11 7 -8 16 4 8 2 17 -4 21 -15 9 9 34 27 27 9 -3 12 -12
8 -26z m90 7 c20 -8 21 -23 1 -20 -19 3 -44 26 -28 26 6 0 18 -3 27 -6z m170
-39 c-7 -16 -24 -21 -24 -6 0 8 7 13 27 20 1 1 0 -6 -3 -14z m-128 -26 c10
-11 14 -20 9 -19 -22 5 -34 -1 -38 -17 -3 -10 -5 -4 -6 13 -1 25 5 44 14 44 1
0 10 -9 21 -21z m-202 -15 c-5 -19 -4 -25 5 -20 6 4 11 2 11 -4 0 -6 -8 -10
-17 -8 -9 2 -16 6 -15 11 1 4 2 16 2 27 0 11 5 20 10 20 6 0 8 -11 4 -26z
m146 -16 c0 -11 -5 -10 -34 3 -14 7 -23 15 -21 20 6 8 55 -12 55 -23z m-13
-25 c-4 -3 -2 -12 5 -20 8 -10 8 -17 0 -25 -17 -17 -15 -41 3 -34 8 3 15 1 15
-4 0 -6 -6 -10 -13 -10 -7 0 -13 -8 -14 -17 -3 -60 -8 -73 -26 -73 -16 0 -17
3 -7 15 7 8 10 21 7 30 -4 8 -2 17 3 20 19 12 10 24 -17 22 -19 -1 -28 3 -31
16 -2 11 3 17 13 17 9 0 13 -4 10 -10 -3 -5 1 -10 9 -10 21 0 31 21 15 31 -11
7 -10 9 5 9 14 0 16 3 7 13 -8 10 -7 17 1 25 7 7 14 12 17 12 2 0 1 -3 -2 -7z
m-136 -16 c-1 -12 -15 -9 -19 4 -3 6 1 10 8 8 6 -3 11 -8 11 -12z m79 3 c-20
-13 -53 -13 -45 0 3 6 18 10 33 10 21 0 24 -2 12 -10z m120 -6 c0 -8 -4 -12
-10 -9 -5 3 -10 10 -10 16 0 5 5 9 10 9 6 0 10 -7 10 -16z m-110 -24 c0 -5
-15 -10 -32 -10 -24 0 -29 -3 -18 -10 8 -5 11 -12 7 -16 -4 -4 -2 -13 5 -21
13 -16 7 -24 -20 -26 -12 0 -18 -6 -15 -14 3 -7 -2 -16 -11 -19 -9 -3 -16 -12
-16 -20 0 -8 -4 -14 -8 -14 -4 0 -7 28 -6 63 1 51 4 61 18 59 9 -2 16 2 16 7
0 6 15 15 33 20 43 12 47 13 47 1z m3180 -55 c-7 -8 -14 -15 -15 -15 -2 0 -5
7 -9 15 -4 10 1 15 16 15 17 0 18 -2 8 -15z m-3103 -27 c-3 -8 -6 -5 -6 6 -1
11 2 17 5 13 3 -3 4 -12 1 -19z m-77 -28 c13 -8 12 -10 -2 -10 -13 0 -18 -8
-18 -27 0 -36 -13 -21 -14 17 -1 31 8 37 34 20z m83 -3 c8 5 8 2 0 -8 -7 -9
-11 -25 -8 -37 3 -17 -1 -22 -16 -22 -10 0 -19 5 -19 10 0 6 5 10 11 10 5 0 9
8 8 18 -2 28 2 49 8 34 2 -6 10 -9 16 -5z m67 -7 c-13 -8 -12 -11 5 -24 16
-12 17 -16 6 -30 -14 -17 -42 -21 -55 -9 -3 4 4 13 16 20 20 11 20 12 4 13
-12 0 -16 5 -13 14 3 8 1 17 -6 20 -7 2 4 5 23 5 26 1 31 -2 20 -9z m-219 -48
c-8 -15 -8 -21 2 -25 6 -2 0 -6 -15 -9 -34 -6 -38 16 -7 32 13 8 18 17 14 28
-5 13 -3 14 5 6 9 -9 9 -17 1 -32z m99 -2 c0 -5 -4 -10 -9 -10 -6 0 -13 5 -16
10 -3 6 1 10 9 10 9 0 16 -4 16 -10z m-33 -29 c-4 13 -1 16 14 12 26 -7 24
-36 -3 -48 -21 -10 -25 -21 -28 -79 -3 -46 -2 -48 21 -25 15 15 24 18 32 10 6
-6 21 -11 34 -11 13 0 23 -5 23 -11 0 -6 -8 -8 -19 -4 -10 3 -26 3 -35 -1 -15
-6 -15 -7 1 -20 10 -7 14 -14 9 -14 -5 0 -1 -9 9 -20 13 -14 14 -20 5 -20 -9
0 -5 -9 10 -25 13 -14 34 -25 47 -25 13 0 23 -4 23 -10 0 -5 -11 -10 -25 -10
-26 0 -34 -15 -12 -23 10 -4 10 -6 0 -6 -20 -1 -93 77 -93 99 0 11 5 20 10 20
20 0 9 21 -16 31 -32 11 -36 8 -36 -26 0 -14 -4 -25 -9 -25 -5 0 -9 -4 -9 -10
0 -5 3 -9 8 -9 21 4 35 -5 77 -47 50 -51 53 -58 28 -73 -15 -9 -12 -10 16 -11
25 0 32 -4 27 -15 -3 -8 -1 -15 4 -15 5 0 13 -12 16 -27 4 -15 14 -38 21 -52
14 -25 15 -25 9 16 -3 23 -15 62 -26 87 l-20 47 28 10 c18 7 28 7 30 0 2 -6
10 -11 18 -11 8 0 14 -4 14 -10 0 -5 10 -10 21 -10 18 0 19 -2 9 -15 -14 -17
0 -21 17 -4 13 13 33 4 33 -17 0 -8 4 -14 10 -14 5 0 9 18 8 40 -1 22 2 43 5
47 4 3 7 -2 7 -11 0 -10 5 -16 13 -13 40 15 57 17 57 8 0 -5 -8 -12 -17 -14
-13 -3 -12 -5 5 -6 13 0 20 -5 17 -11 -3 -5 -2 -10 3 -10 5 0 24 -30 41 -67
36 -76 90 -175 100 -183 3 -3 15 -22 26 -43 11 -21 28 -45 38 -54 9 -9 17 -27
17 -40 0 -14 6 -23 16 -23 8 0 43 -27 77 -60 34 -33 56 -60 50 -60 -7 0 -13
-5 -13 -11 0 -6 8 -8 19 -4 11 3 23 0 27 -6 5 -9 2 -10 -9 -6 -10 3 -17 2 -17
-3 0 -6 12 -10 28 -10 15 0 34 -5 42 -10 11 -7 11 -10 2 -10 -7 0 -10 -4 -7
-10 3 -5 17 -10 31 -10 13 0 24 -5 24 -11 0 -6 -8 -8 -18 -5 -10 4 -26 0 -37
-7 -17 -13 -17 -14 3 -13 29 1 33 -18 5 -22 -13 -2 -23 -10 -23 -19 0 -9 6
-13 15 -10 23 10 27 -11 4 -23 l-21 -12 22 -20 c11 -11 27 -17 35 -14 8 3 17
1 20 -4 4 -6 0 -10 -7 -10 -9 -1 -7 -5 4 -14 13 -9 14 -16 6 -24 -17 -17 -1
-27 17 -12 14 12 15 10 10 -13 -4 -16 -3 -27 3 -27 5 0 12 -9 15 -20 4 -14 -3
-23 -24 -32 -16 -7 -29 -19 -29 -25 0 -15 -26 -17 -35 -3 -3 6 -17 10 -31 10
-28 0 -33 16 -6 23 11 3 8 5 -9 6 -14 0 -29 -2 -32 -5 -8 -8 24 -64 36 -64 4
0 6 4 3 9 -3 5 12 4 34 -1 33 -9 39 -14 35 -29 -5 -15 -1 -19 19 -19 14 0 28
-4 31 -10 3 -5 16 -10 28 -10 22 -1 22 -1 -2 -14 -19 -11 -21 -14 -7 -19 9 -4
16 -15 16 -26 0 -18 -5 -17 -72 11 -40 17 -75 34 -78 38 -3 4 -15 11 -28 15
-15 4 -21 12 -18 22 4 9 0 14 -12 12 -43 -5 -136 54 -129 82 3 11 1 19 -4 19
-5 0 -9 -4 -9 -10 0 -5 -4 -10 -10 -10 -5 0 -10 14 -10 30 0 32 -14 39 -28 14
-7 -13 -13 -12 -43 12 -62 50 -179 168 -179 181 0 7 8 13 17 13 25 0 3 19 -27
23 -13 2 -25 8 -27 13 -5 14 39 15 56 1 12 -10 13 -9 1 12 -11 21 -10 26 5 37
9 7 14 17 10 23 -3 6 1 11 9 11 16 0 24 20 9 20 -5 0 -14 4 -21 9 -12 7 -11
14 2 40 9 17 24 31 34 31 38 0 -60 39 -108 43 -37 3 -55 10 -65 24 -8 11 -35
26 -60 33 -25 7 -45 18 -45 25 0 7 -9 19 -20 26 -11 8 -22 23 -24 35 -3 12
-17 34 -32 50 -29 31 -74 123 -74 152 0 10 -4 22 -9 28 -14 16 -44 122 -38
138 3 8 -1 20 -9 26 -19 16 -18 29 4 53 15 18 15 20 0 14 -11 -4 -18 1 -22 16
-7 27 -7 107 1 90 9 -23 31 -14 29 12 -1 19 -7 25 -26 26 -20 1 -18 4 13 12
27 8 37 16 37 30 0 20 0 20 22 1 18 -16 20 -16 15 -3z m158 -11 c18 -7 19 -8
3 -15 -10 -4 -18 -14 -18 -22 0 -26 -23 -8 -26 20 -3 28 6 32 41 17z m125 -14
c0 -8 -4 -17 -9 -21 -12 -7 -24 12 -16 25 9 15 25 12 25 -4z m-85 -26 c3 -5
-1 -10 -9 -10 -9 0 -16 5 -16 10 0 6 4 10 9 10 6 0 13 -4 16 -10z m-1872 -61
c-4 -15 -8 -17 -14 -8 -6 11 4 28 18 29 0 0 -1 -9 -4 -21z m1997 1 c0 -5 -8
-10 -17 -10 -15 0 -16 2 -3 10 19 12 20 12 20 0z m-136 -41 c-7 -12 -54 -12
-54 0 0 11 30 19 47 13 7 -2 10 -8 7 -13z m-73 -72 c-13 -13 -26 -3 -16 12 3
6 11 8 17 5 6 -4 6 -10 -1 -17z m109 -7 c0 -5 -7 -10 -16 -10 -13 0 -14 -3 -5
-14 18 -21 -4 -29 -24 -9 -16 16 -16 17 1 30 21 15 44 17 44 3z m107 -15 c8
-23 0 -24 -19 -3 -15 15 -16 18 -3 18 9 0 18 -7 22 -15z m-64 -10 c8 -18 -11
-31 -25 -17 -11 11 -3 32 12 32 4 0 10 -7 13 -15z m-133 -5 c0 -5 -4 -10 -10
-10 -5 0 -10 5 -10 10 0 6 5 10 10 10 6 0 10 -4 10 -10z m194 -26 c17 -6 22
-24 8 -24 -5 0 -17 7 -28 15 -19 15 -8 20 20 9z m-119 -24 c12 -13 22 -17 28
-11 10 10 37 4 37 -9 0 -28 -82 -6 -94 25 -8 21 8 18 29 -5z m1595 -86 c0 -14
-3 -14 -15 -4 -8 7 -15 14 -15 16 0 2 7 4 15 4 8 0 15 -7 15 -16z m130 -74 c0
-5 -4 -10 -10 -10 -5 0 -10 5 -10 10 0 6 5 10 10 10 6 0 10 -4 10 -10z m40 0
c0 -5 -4 -10 -10 -10 -5 0 -10 5 -10 10 0 6 5 10 10 10 6 0 10 -4 10 -10z
m870 -30 c0 -11 -2 -20 -4 -20 -2 0 -6 9 -9 20 -3 11 -1 20 4 20 5 0 9 -9 9
-20z m-910 -10 c0 -5 -2 -10 -4 -10 -3 0 -8 5 -11 10 -3 6 -1 10 4 10 6 0 11
-4 11 -10z m860 1 c0 -5 -7 -14 -15 -21 -13 -10 -15 -9 -15 9 0 12 6 21 15 21
8 0 15 -4 15 -9z m-746 -46 c3 -8 1 -15 -3 -15 -5 0 -11 7 -15 15 -3 8 -1 15
3 15 5 0 11 -7 15 -15z m728 -17 c-7 -7 -12 -8 -12 -2 0 14 12 26 19 19 2 -3
-1 -11 -7 -17z m-3592 -156 c0 -79 -4 -122 -9 -117 -25 25 -25 265 0 250 5 -4
9 -63 9 -133z m3590 67 c0 -5 -4 -9 -10 -9 -5 0 -10 7 -10 16 0 8 5 12 10 9 6
-3 10 -10 10 -16z m70 -20 c0 -11 -4 -17 -10 -14 -5 3 -10 13 -10 21 0 8 5 14
10 14 6 0 10 -9 10 -21z m61 -69 c20 -16 21 -19 7 -20 -10 0 -18 5 -18 11 0 6
-7 9 -15 5 -9 -3 -15 0 -15 9 0 20 13 19 41 -5z m-19 -64 c7 -13 7 -16 -1 -12
-6 4 -15 -3 -20 -16 -12 -28 -14 -5 -4 43 3 19 9 27 11 19 3 -8 9 -23 14 -34z
m138 34 c0 -5 -8 -10 -17 -10 -15 0 -16 2 -3 10 19 12 20 12 20 0z m-285 -40
c3 -6 -4 -10 -17 -10 -18 0 -20 2 -8 10 19 12 18 12 25 0z m-4259 -26 c1 -9 0
-13 -4 -10 -3 4 -7 14 -8 22 -1 9 0 13 4 10 3 -4 7 -14 8 -22z m4154 -34 c13
-8 13 -10 -2 -10 -9 0 -20 5 -23 10 -8 13 5 13 25 0z m-4070 -10 c0 -5 -2 -10
-4 -10 -3 0 -8 5 -11 10 -3 6 -1 10 4 10 6 0 11 -4 11 -10z m90 -50 c-18 -12
-50 -13 -50 -2 0 4 10 12 23 18 26 12 50 -2 27 -16z m-123 -71 c-8 -29 2 -49
19 -42 9 3 12 13 9 23 -3 10 -1 21 4 25 7 4 8 -1 4 -11 -4 -10 -2 -15 3 -11
11 7 11 -33 0 -52 -6 -10 -12 -9 -26 4 -12 11 -27 15 -42 10 -18 -5 -20 -4 -8
4 12 9 12 13 3 19 -10 6 -9 13 3 30 19 28 38 29 31 1z m2418 -29 c3 -6 -1 -7
-9 -4 -18 7 -21 14 -7 14 6 0 13 -4 16 -10z m1605 -30 c0 -5 -5 -10 -11 -10
-5 0 -7 5 -4 10 3 6 8 10 11 10 2 0 4 -4 4 -10z m167 4 c-3 -3 -12 -4 -19 -1
-8 3 -5 6 6 6 11 1 17 -2 13 -5z m93 2 c0 -3 -4 -8 -10 -11 -5 -3 -10 -1 -10
4 0 6 5 11 10 11 6 0 10 -2 10 -4z m-1805 -16 c-3 -5 -17 -10 -31 -10 -14 0
-22 4 -19 10 3 6 17 10 31 10 14 0 22 -4 19 -10z m59 -25 c3 -8 11 -12 19 -9
7 2 51 -7 98 -21 91 -28 96 -28 -91 -4 -41 6 -83 10 -93 10 -15 0 -15 2 -3 15
8 7 22 11 30 8 9 -3 16 -1 16 5 0 16 17 13 24 -4z m1416 -10 c-10 -12 -10 -18
1 -32 10 -14 8 -13 -9 2 -13 11 -19 21 -13 23 6 2 9 8 5 13 -3 5 2 9 12 9 13
0 14 -3 4 -15z m-4056 -14 c3 -4 0 -16 -7 -25 -11 -14 -12 -13 -13 9 -2 24 10
34 20 16z m2516 -41 c0 -5 -4 -10 -9 -10 -6 0 -13 5 -16 10 -3 6 1 10 9 10 9
0 16 -4 16 -10z m350 -13 c70 -10 85 -16 90 -32 3 -11 10 -21 15 -21 6 -1 25
-4 43 -7 24 -5 32 -3 32 8 0 8 4 15 10 15 5 0 7 7 4 15 -5 11 1 15 20 15 19 0
29 -7 36 -25 5 -14 14 -25 20 -25 16 0 12 -17 -6 -24 -9 -4 -24 0 -34 9 -25
23 -30 18 -17 -15 10 -25 9 -33 -3 -40 -12 -8 -12 -10 3 -16 23 -9 21 -31 -4
-39 -19 -6 -19 -8 -3 -19 13 -10 14 -15 4 -21 -8 -5 -17 -2 -24 7 -6 8 -19 17
-28 20 -22 9 -34 -23 -14 -38 18 -13 22 -29 5 -18 -7 4 -9 0 -5 -13 5 -17 2
-19 -26 -16 -33 3 -32 3 7 -12 38 -15 40 -15 56 6 9 12 21 19 28 15 16 -10 14
-26 -5 -26 -14 0 -14 -1 0 -16 9 -8 25 -16 36 -17 11 -1 20 -7 20 -14 0 -7 5
-13 11 -13 8 0 8 -4 -1 -15 -13 -16 -6 -35 15 -35 9 0 12 -6 9 -15 -12 -30
-111 -13 -124 20 -7 17 -14 21 -33 18 -14 -3 -27 0 -31 5 -4 7 -18 7 -41 1
-23 -7 -48 -6 -72 0 -26 7 -39 7 -44 0 -4 -6 -20 -8 -43 -4 -28 6 -36 12 -36
29 0 33 -12 44 -56 50 -36 6 -42 4 -47 -14 -5 -21 -50 -29 -62 -11 -23 38 -7
161 21 161 8 0 14 9 14 20 0 11 5 20 10 20 6 0 10 -12 10 -26 l0 -27 23 24
c12 13 29 33 37 43 14 18 13 19 -12 13 -17 -5 -28 -3 -31 6 -4 9 -8 8 -16 -3
-9 -12 -11 -12 -16 2 -5 13 -13 14 -35 8 -31 -9 -45 6 -33 37 4 11 3 14 -5 9
-7 -4 -12 -1 -12 9 0 8 7 18 15 21 8 4 12 11 8 17 -4 6 0 8 9 5 8 -4 21 -2 28
2 17 11 167 4 280 -13z m1450 19 c0 -3 -4 -8 -10 -11 -5 -3 -10 -1 -10 4 0 6
5 11 10 11 6 0 10 -2 10 -4z m-990 -36 c24 -8 24 -8 3 -9 -14 -1 -20 -6 -18
-13 3 -9 -6 -14 -25 -15 -23 -2 -30 2 -30 16 0 32 18 38 70 21z m80 5 c0 -3
-7 -17 -16 -31 -16 -23 -16 -26 1 -38 10 -7 18 -25 18 -39 0 -15 3 -27 8 -27
5 0 9 5 9 10 0 6 7 10 15 10 8 0 15 4 15 10 0 5 7 7 15 4 10 -4 12 -11 7 -18
-5 -6 -7 -26 -5 -43 1 -18 -1 -33 -6 -33 -7 0 -19 -25 -25 -52 -2 -13 -16 -21
-16 -10 0 7 -5 11 -11 10 -21 -5 -20 20 0 27 12 3 21 13 21 21 0 8 4 14 9 14
10 0 21 49 12 54 -3 2 -20 -7 -36 -20 -23 -18 -26 -24 -12 -24 9 0 17 -4 17
-9 0 -5 -9 -7 -20 -4 -14 4 -20 0 -20 -11 0 -9 -5 -16 -11 -16 -7 0 -9 10 -5
26 8 30 -8 54 -36 54 -11 0 -16 4 -12 11 3 6 15 9 25 6 29 -8 33 12 5 23 -18
6 -24 14 -19 26 5 15 7 15 15 0 5 -9 16 -16 24 -16 10 0 12 4 7 13 -4 6 -8 27
-8 44 0 25 4 33 18 33 9 0 17 -2 17 -5z m-190 -16 c0 -5 -5 -9 -11 -9 -7 0
-18 -8 -25 -17 -13 -17 -13 -17 -14 0 0 9 -4 17 -10 17 -5 0 -10 3 -10 8 0 4
16 8 35 8 19 1 35 -3 35 -7z m30 -49 c0 -5 -2 -10 -4 -10 -3 0 -8 5 -11 10 -3
6 -1 10 4 10 6 0 11 -4 11 -10z m41 0 c28 -15 23 -30 -8 -29 -16 0 -22 3 -15
6 10 4 10 8 1 19 -14 17 -5 18 22 4z m-47 -48 c2 -4 -7 -8 -21 -9 -35 -2 -51
-21 -57 -65 -6 -48 -13 -59 -32 -51 -15 5 -15 7 0 15 21 12 21 58 1 58 -21 0
-19 27 3 40 13 9 14 12 4 17 -10 4 -6 11 14 24 27 17 28 17 56 -2 15 -11 29
-23 32 -27z m-644 19 c0 -6 -5 -13 -10 -16 -6 -4 -8 -11 -5 -16 4 -5 2 -9 -4
-9 -5 0 -13 5 -16 10 -3 6 -1 10 4 10 6 0 11 7 11 15 0 8 5 15 10 15 6 0 10
-4 10 -9z m705 -39 c-3 -3 -11 0 -18 7 -9 10 -8 11 6 5 10 -3 15 -9 12 -12z
m-826 -46 c-9 -8 -10 -7 -5 7 3 10 7 26 7 35 1 9 4 6 6 -7 3 -13 -1 -28 -8
-35z m71 35 c0 -5 -10 -12 -22 -16 -20 -6 -20 -8 -5 -12 9 -2 17 -9 17 -14 0
-6 -7 -6 -19 1 -24 12 -17 50 10 50 11 0 19 -4 19 -9z m727 -15 c-2 -6 -18
-10 -34 -8 -27 3 -31 -1 -38 -30 -4 -18 -9 -27 -12 -21 -2 7 0 28 6 46 10 30
14 33 47 29 20 -3 33 -9 31 -16z m-3197 -16 c0 -4 -11 -19 -24 -33 -15 -16
-20 -29 -14 -35 6 -6 0 -8 -16 -5 -25 5 -25 6 -8 31 9 14 16 27 15 29 -2 2 -3
9 -3 17 0 9 8 12 25 8 14 -2 25 -8 25 -12z m3264 -5 c6 -16 -2 -45 -13 -45 -3
0 -6 14 -7 30 -1 32 10 40 20 15z m-114 -45 c0 -5 -5 -10 -11 -10 -5 0 -7 5
-4 10 3 6 8 10 11 10 2 0 4 -4 4 -10z m133 -17 c-7 -2 -19 -2 -25 0 -7 3 -2 5
12 5 14 0 19 -2 13 -5z m-193 -18 c0 -8 -7 -15 -15 -15 -26 0 -18 20 13 29 1
1 2 -6 2 -14z m97 0 c8 -23 0 -25 -21 -4 -18 17 -18 19 -2 19 9 0 19 -7 23
-15z m-81 -42 c-11 -11 -17 4 -9 23 7 18 8 18 11 1 2 -10 1 -21 -2 -24z m-473
-18 c9 -4 17 -14 17 -22 0 -12 -7 -14 -27 -8 -28 7 -45 23 -37 36 5 8 20 6 47
-6z m674 -7 c-3 -8 -6 -5 -6 6 -1 11 2 17 5 13 3 -3 4 -12 1 -19z m-161 -12
c1 -18 -2 -22 -17 -19 -19 5 -25 24 -12 36 14 14 28 6 29 -17z m-3167 -8 c-13
-24 -29 -23 -29 1 0 13 6 19 19 18 16 -1 18 -5 10 -19z m3311 -18 c0 -5 -9
-10 -19 -10 -11 0 -23 5 -26 10 -4 6 5 10 19 10 14 0 26 -4 26 -10z m-513 -16
c-3 -3 -12 -4 -19 -1 -8 3 -5 6 6 6 11 1 17 -2 13 -5z m123 -4 c0 -5 -4 -10
-9 -10 -6 0 -13 5 -16 10 -3 6 1 10 9 10 9 0 16 -4 16 -10z m-63 -6 c-3 -3
-12 -4 -19 -1 -8 3 -5 6 6 6 11 1 17 -2 13 -5z m103 -4 c0 -5 -4 -10 -10 -10
-5 0 -10 5 -10 10 0 6 5 10 10 10 6 0 10 -4 10 -10z m-2986 -186 c5 -14 4 -15
-9 -4 -17 14 -19 20 -6 20 5 0 12 -7 15 -16z m503 -56 c-3 -8 -6 -5 -6 6 -1
11 2 17 5 13 3 -3 4 -12 1 -19z m-480 -20 c-3 -7 -5 -2 -5 12 0 14 2 19 5 13
2 -7 2 -19 0 -25z m506 17 c4 -8 3 -16 -1 -19 -4 -3 -9 4 -9 15 -2 23 3 25 10
4z m109 -317 c-6 -6 -16 -8 -22 -6 -9 3 -7 9 6 22 13 13 19 15 22 6 2 -6 0
-16 -6 -22z m-489 -21 c3 -8 0 -14 -7 -14 -7 0 -13 6 -13 14 0 7 4 13 8 13 4
0 9 -6 12 -13z m603 -212 c-4 -14 -2 -25 3 -25 10 0 21 -59 14 -77 -8 -21 -25
-15 -18 6 7 22 -4 53 -15 46 -5 -3 -13 2 -18 11 -6 11 -3 23 12 40 27 30 30
30 22 -1z m2 -185 c-7 -11 -15 -15 -17 -9 -2 6 3 15 10 20 20 12 21 11 7 -11z
m-483 -122 c5 4 5 1 1 -6 -6 -10 -11 -10 -22 -1 -8 6 -14 14 -14 16 0 3 6 0
13 -6 8 -6 18 -7 22 -3z m57 -222 c6 4 5 -3 -2 -15 -13 -25 -33 -23 -38 4 -3
10 0 15 7 11 6 -4 11 -1 12 6 0 10 2 10 6 0 2 -6 9 -9 15 -6z m498 -21 c0 -8
-4 -15 -10 -15 -5 0 -10 7 -10 15 0 8 5 15 10 15 6 0 10 -7 10 -15z m-510 -74
c0 -5 -7 -11 -15 -15 -9 -3 -15 0 -15 9 0 8 7 15 15 15 8 0 15 -4 15 -9z
m5780 -172 c0 -4 -5 -11 -12 -15 -8 -5 -9 -2 -5 10 5 11 3 15 -5 10 -8 -5 -9
-1 -4 12 4 10 4 15 -1 11 -4 -5 -9 -23 -11 -40 -1 -18 -3 -37 -4 -44 -1 -7 -5
-10 -9 -7 -5 2 -6 12 -3 22 5 15 4 15 -10 -2 -8 -10 -20 -15 -27 -10 -9 5 -10
2 -5 -12 6 -15 5 -17 -5 -6 -10 9 -10 15 -1 24 7 7 12 8 12 4 0 -23 31 21 41
58 l11 41 19 -24 c10 -13 19 -27 19 -32z m80 39 c0 -4 0 -11 0 -15 0 -12 -24
-10 -32 2 -13 17 -9 24 12 22 11 -1 20 -5 20 -9z m80 -6 c0 -12 -3 -12 -15 -2
-8 7 -15 13 -15 15 0 1 7 2 15 2 8 0 15 -7 15 -15z m-262 -18 c-12 15 -10 23
6 23 20 0 14 -40 -6 -43 -10 -1 -18 2 -18 6 0 5 -3 17 -7 27 -6 16 -4 16 13
-2 10 -11 16 -16 12 -11z m-5633 7 c3 -5 1 -12 -5 -16 -5 -3 -10 1 -10 9 0 18
6 21 15 7z m5569 -73 c-19 -33 -27 -38 -40 -27 -8 6 -14 17 -14 23 0 6 6 3 13
-6 12 -15 14 -15 25 3 13 21 28 27 16 7z m202 0 c-1 -7 -5 -18 -9 -24 -3 -6
-3 -14 0 -18 11 -10 12 -35 3 -41 -5 -3 -7 3 -5 15 2 11 -1 22 -6 25 -5 4 -6
12 -2 18 4 7 8 15 9 20 3 14 4 17 8 17 2 0 3 -6 2 -12z m-274 -20 c-9 -9 -15
-9 -24 1 -9 10 -9 12 -1 7 6 -3 15 -1 18 5 4 5 10 8 13 4 3 -3 0 -11 -6 -17z
m206 -76 c-1 -15 1 -32 4 -38 4 -5 -2 -10 -12 -10 -11 0 -17 2 -15 5 3 2 0 9
-5 16 -6 7 -4 19 6 33 20 29 25 28 22 -6z m119 3 c0 -8 -4 -12 -9 -9 -5 3 -6
10 -3 15 9 13 12 11 12 -6z m-41 -39 c1 -9 -5 -21 -14 -28 -13 -11 -14 -11 -7
2 13 20 13 32 1 50 -8 12 -8 13 4 3 8 -7 15 -19 16 -27z m-5220 6 c0 -4 4 -15
9 -25 9 -20 1 -32 -14 -22 -6 3 -11 20 -11 37 0 26 13 33 16 10z m5064 -98 c0
-8 -19 -13 -24 -6 -3 5 1 9 9 9 8 0 15 -2 15 -3z m189 -40 c-15 -19 -28 -9
-22 16 4 16 8 18 19 9 11 -9 11 -15 3 -25z m-5075 -29 c-4 -8 -8 -15 -10 -15
-2 0 -4 7 -4 15 0 8 4 15 10 15 5 0 7 -7 4 -15z m4793 8 c-4 -3 3 -22 14 -42
l22 -36 -30 30 c-22 21 -28 34 -21 43 6 6 13 12 16 12 3 0 2 -3 -1 -7z m-6643
-66 c-3 -15 -10 -24 -15 -21 -8 5 -8 20 0 64 1 2 6 -1 12 -7 5 -5 7 -22 3 -36z
m1816 33 c0 -5 -5 -10 -11 -10 -6 0 -8 -9 -4 -20 4 -11 2 -20 -4 -20 -12 0
-15 43 -4 53 10 10 23 8 23 -3z m4870 0 c0 -5 -2 -10 -4 -10 -3 0 -8 5 -11 10
-3 6 -1 10 4 10 6 0 11 -4 11 -10z m26 -90 c8 0 14 -7 14 -15 0 -9 7 -30 16
-46 8 -17 13 -33 11 -36 -3 -2 -13 13 -23 34 -10 21 -27 50 -37 65 -13 17 -16
31 -11 40 7 9 10 5 12 -14 2 -16 9 -28 18 -28z m228 29 c-2 -4 0 -10 6 -14 5
-3 10 2 11 12 0 10 3 13 5 6 3 -7 0 -22 -6 -33 -6 -12 -9 -24 -7 -27 3 -3 12
8 21 25 8 16 13 32 11 34 -3 3 2 5 9 5 8 0 15 -3 14 -6 -2 -18 3 -24 11 -12 5
8 7 -1 6 -25 -2 -22 -4 -55 -4 -74 -1 -31 -4 -36 -24 -36 -22 0 -24 4 -22 48
2 33 -1 45 -9 41 -21 -14 -35 -11 -29 5 4 14 2 14 -10 -1 -14 -17 -15 -15 -12
20 4 45 2 40 20 40 8 0 12 -4 9 -8z m-5569 -129 c-15 -29 -35 -48 -35 -34 0
25 25 71 36 67 11 -4 11 -10 -1 -33z m5403 -35 c-3 -3 -9 2 -12 12 -6 14 -5
15 5 6 7 -7 10 -15 7 -18z m284 -18 c-11 -15 -9 -48 3 -67 7 -12 6 -13 -7 -3
-12 11 -17 52 -8 73 1 3 2 9 1 13 -1 5 3 6 9 2 7 -4 7 -12 2 -18z m24 -31 c0
-19 -3 -33 -7 -31 -7 5 -4 65 4 65 1 0 3 -15 3 -34z m-253 -55 c10 -30 15 -56
12 -59 -2 -3 -8 4 -11 14 -4 10 -13 34 -20 53 -16 37 -19 70 -6 56 5 -6 16
-34 25 -64z m276 -97 c-6 -7 -15 -11 -21 -8 -5 3 -4 12 3 20 6 7 15 11 21 8 5
-3 4 -12 -3 -20z m-5087 -136 c-9 -9 -12 -7 -12 12 0 19 3 21 12 12 9 -9 9
-15 0 -24z m-12 -119 c0 -5 -4 -9 -10 -9 -5 0 -10 7 -10 16 0 8 5 12 10 9 6
-3 10 -10 10 -16z m7 -64 c4 -25 -10 -34 -22 -15 -8 12 4 54 13 45 3 -3 8 -17
9 -30z m-473 -13 c-4 -9 -6 -24 -5 -32 4 -24 -9 -5 -14 20 -5 25 16 61 23 41
2 -7 1 -19 -4 -29z m-107 -64 c-3 -8 -6 -5 -6 6 -1 11 2 17 5 13 3 -3 4 -12 1
-19z m3 -111 c5 2 7 -6 5 -17 -2 -11 1 -19 8 -17 14 2 17 -152 3 -160 -5 -4
-6 -1 -2 5 4 7 2 12 -3 12 -6 0 -11 5 -11 11 0 5 5 7 12 3 7 -4 8 -3 4 4 -4 6
-14 8 -23 5 -13 -5 -15 -2 -10 12 6 15 5 16 -7 6 -12 -10 -15 -4 -17 33 -2 24
0 42 4 39 5 -3 3 4 -5 16 -10 17 -10 23 1 33 9 8 12 9 7 1 -3 -6 -2 -14 3 -17
5 -4 8 2 6 11 -2 10 -4 22 -4 26 -1 5 -5 5 -11 2 -6 -4 -7 1 -3 11 6 15 7 15
20 -2 8 -10 18 -18 23 -17z m655 13 c3 -5 1 -10 -4 -10 -6 0 -11 5 -11 10 0 6
2 10 4 10 3 0 8 -4 11 -10z m-428 -72 c-3 -7 -5 -2 -5 12 0 14 2 19 5 13 2 -7
2 -19 0 -25z"/>
<path d="M5756 13202 c-3 -5 1 -9 9 -9 8 0 15 4 15 9 0 4 -4 8 -9 8 -6 0 -12
-4 -15 -8z"/>
<path d="M5841 13184 c0 -11 3 -14 6 -6 3 7 2 16 -1 19 -3 4 -6 -2 -5 -13z"/>
<path d="M6565 12810 c-3 -5 3 -10 15 -10 12 0 18 5 15 10 -3 6 -10 10 -15 10
-5 0 -12 -4 -15 -10z"/>
<path d="M4844 12775 c0 -13 3 -22 7 -19 8 4 6 30 -2 38 -3 3 -5 -5 -5 -19z"/>
<path d="M4700 12535 c6 -8 9 -18 7 -23 -3 -4 -2 -14 3 -22 8 -13 8 4 1 53 0
4 -6 7 -12 7 -8 0 -8 -4 1 -15z"/>
<path d="M4719 12428 c-5 -18 -6 -38 -1 -34 7 8 12 36 6 36 -2 0 -4 -1 -5 -2z"/>
<path d="M5615 11760 c-3 -5 1 -10 10 -10 9 0 13 5 10 10 -3 6 -8 10 -10 10
-2 0 -7 -4 -10 -10z"/>
<path d="M5732 11019 c2 -6 8 -10 13 -10 5 0 11 4 13 10 2 6 -4 11 -13 11 -9
0 -15 -5 -13 -11z"/>
<path d="M5990 11016 c0 -2 8 -10 18 -17 15 -13 16 -12 3 4 -13 16 -21 21 -21
13z"/>
<path d="M5996 10947 c3 -10 9 -15 12 -12 3 3 0 11 -7 18 -10 9 -11 8 -5 -6z"/>
<path d="M4745 12739 c-4 -6 -5 -12 -2 -15 2 -3 7 2 10 11 7 17 1 20 -8 4z"/>
<path d="M4747 12693 c3 -7 6 -13 8 -13 2 0 5 6 8 13 3 8 -1 14 -8 14 -7 0
-11 -6 -8 -14z"/>
<path d="M7080 11601 c0 -6 4 -13 10 -16 6 -3 7 1 4 9 -7 18 -14 21 -14 7z"/>
<path d="M6340 11246 c0 -8 7 -16 15 -20 13 -4 14 -2 5 14 -13 23 -20 26 -20
6z"/>
<path d="M6959 10668 c4 -28 6 -29 9 -9 2 13 0 27 -5 32 -6 6 -7 -3 -4 -23z"/>
<path d="M6300 9915 c0 -12 37 -75 45 -75 3 0 4 3 4 8 -1 4 0 9 1 12 8 21 6
37 -6 37 -10 0 -11 -4 -3 -14 8 -9 8 -13 1 -13 -6 0 -18 12 -26 28 -8 15 -15
23 -16 17z"/>
<path d="M6379 9873 c-8 -9 -9 -14 -2 -10 6 4 14 1 16 -5 3 -7 6 -3 6 10 1 26
-2 27 -20 5z"/>
<path d="M6190 10035 c-7 -9 -11 -17 -9 -20 3 -2 10 5 17 15 14 24 10 26 -8 5z"/>
<path d="M5455 9140 c-3 -5 -1 -10 4 -10 6 0 11 5 11 10 0 6 -2 10 -4 10 -3 0
-8 -4 -11 -10z"/>
<path d="M6835 8750 c-7 -12 2 -30 16 -30 5 0 9 9 9 20 0 21 -15 27 -25 10z"/>
<path d="M5712 6399 c-29 -11 -27 -52 2 -57 14 -3 17 0 13 11 -3 9 1 18 9 21
8 3 14 12 14 21 0 17 -5 18 -38 4z"/>
<path d="M5235 6380 c3 -5 8 -10 11 -10 2 0 4 5 4 10 0 6 -5 10 -11 10 -5 0
-7 -4 -4 -10z"/>
<path d="M5605 6380 c-3 -5 -1 -10 4 -10 6 0 11 5 11 10 0 6 -2 10 -4 10 -3 0
-8 -4 -11 -10z"/>
<path d="M5504 6345 c10 -8 23 -12 29 -8 11 7 -12 23 -33 23 -12 -1 -11 -4 4
-15z"/>
<path d="M6009 6345 c-1 -11 -1 -24 0 -29 1 -4 -3 -13 -8 -20 -6 -7 -5 -17 4
-29 11 -15 13 -11 18 30 3 27 1 52 -4 58 -6 5 -9 2 -10 -10z"/>
<path d="M5158 6343 c18 -2 45 -2 60 0 15 2 0 4 -33 4 -33 0 -45 -2 -27 -4z"/>
<path d="M5425 6330 c3 -5 8 -10 11 -10 2 0 4 5 4 10 0 6 -5 10 -11 10 -5 0
-7 -4 -4 -10z"/>
<path d="M5630 6310 c-24 -8 -23 -8 8 -9 20 -1 31 3 27 9 -3 6 -7 10 -8 9 -1
-1 -13 -5 -27 -9z"/>
<path d="M5510 6300 c8 -5 31 -9 50 -9 l35 1 -30 8 c-16 4 -39 8 -50 9 -16 1
-17 -1 -5 -9z"/>
<path d="M5424 6276 c-8 -22 -2 -27 16 -16 12 7 12 12 3 21 -10 10 -14 9 -19
-5z"/>
<path d="M6554 6267 c-21 -24 -21 -24 -2 -36 11 -7 23 -10 26 -7 3 3 0 6 -7 6
-9 0 -9 5 -1 21 18 32 7 43 -16 16z"/>
<path d="M6452 6255 c-10 -22 -9 -25 7 -25 12 0 20 9 23 25 3 15 1 25 -7 25
-6 0 -17 -11 -23 -25z"/>
<path d="M5140 6224 c0 -9 31 -37 36 -32 9 9 -8 38 -22 38 -8 0 -14 -3 -14 -6z"/>
<path d="M5258 6218 c9 -9 15 -9 24 0 9 9 7 12 -12 12 -19 0 -21 -3 -12 -12z"/>
<path d="M5410 6200 c0 -5 5 -10 10 -10 6 0 10 5 10 10 0 6 -4 10 -10 10 -5 0
-10 -4 -10 -10z"/>
<path d="M6000 6199 c0 -5 5 -7 10 -4 6 3 10 8 10 11 0 2 -4 4 -10 4 -5 0 -10
-5 -10 -11z"/>
<path d="M6520 6199 c0 -5 5 -7 10 -4 6 3 10 8 10 11 0 2 -4 4 -10 4 -5 0 -10
-5 -10 -11z"/>
<path d="M6580 6200 c-13 -8 -12 -10 3 -10 9 0 17 5 17 10 0 12 -1 12 -20 0z"/>
<path d="M5563 6183 c-26 -10 -12 -18 33 -20 46 -2 47 -1 19 13 -29 15 -33 15
-52 7z"/>
<path d="M5490 6160 c0 -5 5 -10 10 -10 6 0 10 5 10 10 0 6 -4 10 -10 10 -5 0
-10 -4 -10 -10z"/>
<path d="M5700 6160 c14 -4 39 -8 55 -8 25 -1 27 1 10 8 -11 5 -36 8 -55 8
-32 0 -33 -1 -10 -8z"/>
<path d="M6355 6160 c-4 -6 -3 -16 3 -22 6 -6 12 -6 17 2 4 6 3 16 -3 22 -6 6
-12 6 -17 -2z"/>
<path d="M5155 6150 c3 -5 8 -10 11 -10 2 0 4 5 4 10 0 6 -5 10 -11 10 -5 0
-7 -4 -4 -10z"/>
<path d="M5131 6128 c0 -7 4 -22 8 -32 7 -18 8 -18 14 -3 7 20 -1 47 -14 47
-5 0 -9 -6 -8 -12z"/>
<path d="M6080 6100 c0 -5 5 -10 11 -10 5 0 7 5 4 10 -3 6 -8 10 -11 10 -2 0
-4 -4 -4 -10z"/>
<path d="M4730 5999 c0 -18 2 -19 15 -9 15 12 12 30 -6 30 -5 0 -9 -10 -9 -21z"/>
<path d="M4870 5963 c0 -10 4 -14 8 -8 4 6 11 13 16 18 5 4 2 7 -7 7 -10 0
-17 -8 -17 -17z"/>
<path d="M6645 5950 c-3 -5 -1 -10 4 -10 6 0 11 5 11 10 0 6 -2 10 -4 10 -3 0
-8 -4 -11 -10z"/>
<path d="M6731 5910 c27 -21 90 -33 103 -20 11 11 4 13 -73 27 -52 10 -53 10
-30 -7z"/>
<path d="M6990 5866 c0 -9 5 -16 10 -16 6 0 10 4 10 9 0 6 -4 13 -10 16 -5 3
-10 -1 -10 -9z"/>
<path d="M7003 5813 c9 -2 23 -2 30 0 6 3 -1 5 -18 5 -16 0 -22 -2 -12 -5z"/>
<path d="M6859 5713 c-2 -56 2 -147 6 -152 3 -2 5 37 5 87 0 51 -2 92 -5 92
-3 0 -5 -12 -6 -27z"/>
<path d="M6915 5730 c3 -5 8 -10 11 -10 2 0 4 5 4 10 0 6 -5 10 -11 10 -5 0
-7 -4 -4 -10z"/>
<path d="M7090 5701 c0 -6 5 -13 10 -16 6 -3 10 1 10 9 0 9 -4 16 -10 16 -5 0
-10 -4 -10 -9z"/>
<path d="M7020 5560 c0 -5 5 -10 10 -10 6 0 10 5 10 10 0 6 -4 10 -10 10 -5 0
-10 -4 -10 -10z"/>
<path d="M6950 5440 c0 -5 6 -10 14 -10 8 0 18 5 21 10 3 6 -3 10 -14 10 -12
0 -21 -4 -21 -10z"/>
<path d="M7136 5198 c3 -4 9 -8 15 -8 5 0 9 4 9 8 0 5 -7 9 -15 9 -8 0 -12 -4
-9 -9z"/>
<path d="M7186 4981 c-12 -5 -15 -10 -9 -14 6 -4 16 0 23 8 14 17 13 17 -14 6z"/>
<path d="M7155 4920 c-4 -6 -4 -10 -1 -10 2 0 11 -3 20 -6 9 -3 16 -2 16 4 0
14 -28 23 -35 12z"/>
<path d="M7050 4884 c0 -8 5 -12 10 -9 6 3 10 10 10 16 0 5 -4 9 -10 9 -5 0
-10 -7 -10 -16z"/>
<path d="M7123 4804 c0 -23 1 -24 9 -10 7 12 7 21 0 28 -6 6 -9 0 -9 -18z"/>
<path d="M7157 4807 c-3 -8 -2 -19 3 -26 5 -9 9 -7 13 8 6 23 -8 39 -16 18z"/>
<path d="M7210 4733 c0 -16 -28 -113 -45 -155 -5 -13 -2 -18 8 -18 8 0 17 -5
19 -12 3 -7 9 -8 19 -3 8 5 25 8 39 6 l25 -3 -23 22 c-14 13 -31 20 -43 17
-23 -6 -23 -8 1 78 23 80 24 85 10 85 -5 0 -10 -8 -10 -17z"/>
<path d="M7142 4708 c6 -18 28 -21 28 -4 0 9 -7 16 -16 16 -9 0 -14 -5 -12
-12z"/>
<path d="M7055 4680 c3 -5 8 -10 11 -10 2 0 4 5 4 10 0 6 -5 10 -11 10 -5 0
-7 -4 -4 -10z"/>
<path d="M7240 4654 c0 -8 5 -12 10 -9 6 4 8 11 5 16 -9 14 -15 11 -15 -7z"/>
<path d="M6980 4570 c0 -5 5 -10 11 -10 5 0 7 5 4 10 -3 6 -8 10 -11 10 -2 0
-4 -4 -4 -10z"/>
<path d="M7073 4553 c9 -2 17 -11 17 -18 0 -8 9 -19 20 -25 11 -6 20 -7 20 -2
0 14 -45 52 -61 51 -9 -1 -8 -3 4 -6z"/>
<path d="M7151 4500 c-14 -41 -14 -70 -1 -70 6 0 10 10 10 23 0 13 5 28 11 34
7 7 8 17 1 28 -8 15 -11 13 -21 -15z"/>
<path d="M7130 4389 c0 -5 5 -7 10 -4 6 3 10 8 10 11 0 2 -4 4 -10 4 -5 0 -10
-5 -10 -11z"/>
<path d="M7126 4359 c-11 -30 -14 -69 -7 -74 5 -2 11 14 14 38 6 42 2 62 -7
36z"/>
<path d="M6910 4330 c0 -5 5 -10 11 -10 5 0 7 5 4 10 -3 6 -8 10 -11 10 -2 0
-4 -4 -4 -10z"/>
<path d="M7155 4311 c-3 -5 -1 -12 5 -16 5 -3 10 1 10 9 0 18 -6 21 -15 7z"/>
<path d="M6966 4260 c31 -52 46 -59 30 -14 -7 22 -21 40 -31 42 -16 4 -16 2 1
-28z"/>
<path d="M7040 4265 c0 -8 4 -15 9 -15 5 0 11 7 15 15 3 9 0 15 -9 15 -8 0
-15 -7 -15 -15z"/>
<path d="M7128 4263 c-10 -2 -18 -11 -18 -19 0 -16 16 -19 25 -4 4 6 16 8 28
4 19 -6 20 -5 8 10 -7 9 -16 15 -20 15 -3 -1 -14 -3 -23 -6z"/>
<path d="M7150 4219 c0 -5 5 -7 10 -4 6 3 10 8 10 11 0 2 -4 4 -10 4 -5 0 -10
-5 -10 -11z"/>
<path d="M6952 4128 c3 -7 13 -15 22 -16 12 -3 17 1 14 10 -3 7 -13 15 -22 16
-12 3 -17 -1 -14 -10z"/>
<path d="M7080 4130 c0 -5 5 -10 10 -10 6 0 10 5 10 10 0 6 -4 10 -10 10 -5 0
-10 -4 -10 -10z"/>
<path d="M4685 6161 c-7 -12 12 -24 25 -16 11 7 4 25 -10 25 -5 0 -11 -4 -15
-9z"/>
<path d="M4699 6117 c6 -8 8 -17 4 -20 -3 -4 1 -7 10 -7 20 0 22 11 5 28 -16
16 -33 15 -19 -1z"/>
<path d="M4516 6091 c-3 -5 1 -11 9 -14 9 -4 12 -1 8 9 -6 16 -10 17 -17 5z"/>
<path d="M4480 5570 c8 -5 20 -10 25 -10 6 0 3 5 -5 10 -8 5 -19 10 -25 10 -5
0 -3 -5 5 -10z"/>
<path d="M4206 5546 c-3 -14 -14 -27 -24 -29 -11 -3 -8 -5 9 -6 14 0 26 5 26
12 0 6 4 20 8 30 4 9 3 17 -3 17 -5 0 -13 -11 -16 -24z"/>
<path d="M4470 5550 c0 -11 48 -25 56 -17 3 2 -9 9 -25 15 -18 7 -31 7 -31 2z"/>
<path d="M4374 5519 c-3 -6 -1 -15 5 -20 6 -5 9 -6 6 -3 -3 4 0 13 6 21 8 9 8
13 1 13 -6 0 -14 -5 -18 -11z"/>
<path d="M4239 5494 c-11 -14 -10 -16 9 -12 13 1 23 7 23 13 1 17 -17 16 -32
-1z"/>
<path d="M4335 5500 c-3 -5 -2 -10 4 -10 5 0 13 5 16 10 3 6 2 10 -4 10 -5 0
-13 -4 -16 -10z"/>
<path d="M4436 5473 c-6 -14 -5 -15 5 -6 7 7 10 15 7 18 -3 3 -9 -2 -12 -12z"/>
<path d="M4465 5460 c3 -5 8 -10 11 -10 2 0 4 5 4 10 0 6 -5 10 -11 10 -5 0
-7 -4 -4 -10z"/>
<path d="M4377 5444 c-7 -8 3 -34 13 -34 9 0 8 26 -1 35 -3 3 -8 2 -12 -1z"/>
<path d="M4445 5390 c3 -5 8 -10 11 -10 2 0 4 5 4 10 0 6 -5 10 -11 10 -5 0
-7 -4 -4 -10z"/>
<path d="M4377 5379 c7 -7 15 -10 18 -7 3 3 -2 9 -12 12 -14 6 -15 5 -6 -5z"/>
<path d="M5670 5490 c0 -5 5 -10 10 -10 6 0 10 5 10 10 0 6 -4 10 -10 10 -5 0
-10 -4 -10 -10z"/>
<path d="M5690 5430 c0 -5 7 -10 15 -10 8 0 15 5 15 10 0 6 -7 10 -15 10 -8 0
-15 -4 -15 -10z"/>
<path d="M5586 5123 c12 -2 24 -13 27 -24 7 -28 27 -24 27 6 0 22 -4 25 -37
24 -22 -1 -29 -4 -17 -6z"/>
<path d="M5836 5063 c-8 -21 -9 -20 19 -20 30 0 30 -1 6 19 -17 14 -20 15 -25
1z"/>
<path d="M5100 5040 c0 -5 5 -10 10 -10 6 0 10 5 10 10 0 6 -4 10 -10 10 -5 0
-10 -4 -10 -10z"/>
<path d="M5480 5005 c0 -17 2 -18 24 -9 23 9 20 24 -4 24 -11 0 -20 -7 -20
-15z"/>
<path d="M5075 4991 c-9 -15 14 -24 43 -16 20 5 23 8 11 16 -18 11 -46 12 -54
0z"/>
<path d="M5240 4990 c0 -5 7 -10 15 -10 8 0 15 5 15 10 0 6 -7 10 -15 10 -8 0
-15 -4 -15 -10z"/>
<path d="M5335 4990 c3 -5 10 -10 16 -10 5 0 9 5 9 10 0 6 -7 10 -16 10 -8 0
-12 -4 -9 -10z"/>
<path d="M5525 4990 c-3 -5 -1 -10 4 -10 6 0 11 5 11 10 0 6 -2 10 -4 10 -3 0
-8 -4 -11 -10z"/>
<path d="M5475 4960 c3 -5 8 -10 11 -10 2 0 4 5 4 10 0 6 -5 10 -11 10 -5 0
-7 -4 -4 -10z"/>
<path d="M5316 4823 c-11 -11 -6 -23 9 -23 8 0 15 4 15 9 0 13 -16 22 -24 14z"/>
<path d="M5570 4780 c-11 -7 -5 -10 23 -10 23 0 36 4 32 10 -8 13 -35 13 -55
0z"/>
<path d="M5510 4770 c0 -5 5 -10 11 -10 5 0 7 5 4 10 -3 6 -8 10 -11 10 -2 0
-4 -4 -4 -10z"/>
<path d="M5970 4744 c0 -8 5 -12 10 -9 6 3 10 10 10 16 0 5 -4 9 -10 9 -5 0
-10 -7 -10 -16z"/>
<path d="M5966 4635 c4 -8 10 -15 15 -15 5 0 9 7 9 15 0 8 -7 15 -15 15 -9 0
-12 -6 -9 -15z"/>
<path d="M5340 4590 c0 -5 5 -10 11 -10 5 0 7 5 4 10 -3 6 -8 10 -11 10 -2 0
-4 -4 -4 -10z"/>
<path d="M5395 4580 c3 -5 10 -10 16 -10 5 0 9 5 9 10 0 6 -7 10 -16 10 -8 0
-12 -4 -9 -10z"/>
<path d="M5788 4555 c13 -9 26 -14 29 -11 8 8 3 12 -27 21 l-25 7 23 -17z"/>
<path d="M5423 4543 c-7 -2 -13 -9 -13 -15 0 -14 43 -6 48 10 4 12 -12 15 -35
5z"/>
<path d="M5930 4520 c0 -5 5 -10 10 -10 6 0 10 5 10 10 0 6 -4 10 -10 10 -5 0
-10 -4 -10 -10z"/>
<path d="M5352 4493 c-6 -2 -10 -8 -7 -13 6 -10 45 -1 45 11 0 10 -17 11 -38
2z"/>
<path d="M5408 4493 c7 -3 16 -2 19 1 4 3 -2 6 -13 5 -11 0 -14 -3 -6 -6z"/>
<path d="M5967 4494 c-10 -11 4 -33 18 -28 8 3 11 12 8 20 -5 15 -16 18 -26 8z"/>
<path d="M5278 4483 c7 -3 16 -2 19 1 4 3 -2 6 -13 5 -11 0 -14 -3 -6 -6z"/>
<path d="M5550 4475 c0 -9 5 -15 11 -13 6 2 11 8 11 13 0 5 -5 11 -11 13 -6 2
-11 -4 -11 -13z"/>
<path d="M5920 4423 c0 -5 5 -15 10 -23 8 -12 10 -11 10 8 0 12 -4 22 -10 22
-5 0 -10 -3 -10 -7z"/>
<path d="M5342 4405 c-11 -12 -10 -15 3 -15 8 0 15 7 15 15 0 18 -2 18 -18 0z"/>
<path d="M6020 4360 c0 -5 10 -10 23 -10 18 0 19 2 7 10 -19 13 -30 13 -30 0z"/>
<path d="M5305 4320 c-4 -6 5 -10 19 -10 14 0 26 5 26 10 0 6 -9 10 -19 10
-11 0 -23 -4 -26 -10z"/>
<path d="M2538 5213 c7 -3 16 -2 19 1 4 3 -2 6 -13 5 -11 0 -14 -3 -6 -6z"/>
<path d="M2405 4909 c-10 -15 3 -25 16 -12 7 7 7 13 1 17 -6 3 -14 1 -17 -5z"/>
<path d="M2441 4854 c0 -11 3 -14 6 -6 3 7 2 16 -1 19 -3 4 -6 -2 -5 -13z"/>
<path d="M2404 4831 c0 -11 4 -17 8 -15 4 3 8 12 8 20 0 8 -4 14 -8 14 -4 0
-8 -9 -8 -19z"/>
<path d="M2898 4403 c7 -3 16 -2 19 1 4 3 -2 6 -13 5 -11 0 -14 -3 -6 -6z"/>
<path d="M2461 4044 c7 -8 7 -14 -1 -19 -5 -3 -10 -12 -9 -18 0 -9 2 -8 6 1 2
6 10 9 15 6 6 -4 8 -2 4 4 -3 5 0 13 6 15 10 4 10 6 0 6 -7 1 -11 5 -8 9 3 5
-1 9 -9 9 -11 0 -12 -4 -4 -13z"/>
<path d="M2503 3958 c-13 -23 -11 -36 6 -34 18 3 27 31 12 40 -5 4 -13 1 -18
-6z m14 -20 c-3 -8 -6 -5 -6 6 -1 11 2 17 5 13 3 -3 4 -12 1 -19z"/>
<path d="M8196 2345 c4 -8 8 -15 10 -15 2 0 4 7 4 15 0 8 -4 15 -10 15 -5 0
-7 -7 -4 -15z"/>
<path d="M8296 1605 c-9 -26 -7 -32 5 -12 6 10 9 21 6 23 -2 3 -7 -2 -11 -11z"/>
<path d="M8642 1585 c0 -11 4 -31 8 -45 6 -20 8 -21 8 -5 0 11 -4 31 -8 45 -6
20 -8 21 -8 5z"/>
<path d="M8312 1550 c0 -14 2 -19 5 -12 2 6 2 18 0 25 -3 6 -5 1 -5 -13z"/>
<path d="M8620 1361 c0 -6 4 -13 10 -16 6 -3 7 1 4 9 -7 18 -14 21 -14 7z"/>
<path d="M8734 1354 c3 -7 -1 -18 -9 -24 -15 -12 -14 -42 3 -48 6 -2 9 5 7 15
-1 10 2 24 8 32 17 20 17 38 0 38 -7 0 -12 -6 -9 -13z"/>
<path d="M8379 1303 c-13 -16 -12 -17 4 -4 16 13 21 21 13 21 -2 0 -10 -8 -17
-17z"/>
<path d="M8683 1145 c0 -7 6 -11 14 -8 7 3 13 6 13 8 0 2 -6 5 -13 8 -8 3 -14
-1 -14 -8z"/>
<path d="M8889 1078 c-10 -33 6 -46 28 -24 4 4 1 6 -7 4 -8 -1 -14 3 -12 10 2
10 -6 19 -9 10z"/>
<path d="M9088 878 c5 -5 16 -8 23 -6 8 3 3 7 -10 11 -17 4 -21 3 -13 -5z"/>
<path d="M8813 773 c0 -9 4 -10 14 -2 7 6 13 12 13 14 0 1 -6 2 -13 2 -8 0
-14 -6 -14 -14z"/>
<path d="M8831 757 c-8 -11 -4 -19 17 -38 l27 -24 -22 26 c-18 19 -20 28 -11
37 7 7 9 12 6 12 -3 0 -11 -6 -17 -13z"/>
<path d="M8810 726 c0 -2 8 -10 18 -17 15 -13 16 -12 3 4 -13 16 -21 21 -21
13z"/>
<path d="M9073 463 c9 -2 25 -2 35 0 9 3 1 5 -18 5 -19 0 -27 -2 -17 -5z"/>
<path d="M4260 4985 c-7 -8 -16 -12 -21 -9 -11 7 -11 -7 0 -25 6 -10 10 -10
16 -1 4 6 12 9 19 7 6 -3 12 6 12 19 2 27 -8 31 -26 9z"/>
<path d="M4315 4950 c3 -5 8 -10 11 -10 2 0 4 5 4 10 0 6 -5 10 -11 10 -5 0
-7 -4 -4 -10z"/>
<path d="M4335 4910 c4 -6 11 -8 16 -5 14 9 11 15 -7 15 -8 0 -12 -5 -9 -10z"/>
<path d="M3998 4863 c7 -3 16 -2 19 1 4 3 -2 6 -13 5 -11 0 -14 -3 -6 -6z"/>
<path d="M4080 4569 c0 -5 5 -7 10 -4 6 3 10 8 10 11 0 2 -4 4 -10 4 -5 0 -10
-5 -10 -11z"/>
<path d="M4070 4431 c0 -10 19 -25 25 -20 1 2 -3 10 -11 17 -8 7 -14 8 -14 3z"/>
<path d="M4420 4280 c0 -5 9 -10 21 -10 11 0 17 5 14 10 -3 6 -13 10 -21 10
-8 0 -14 -4 -14 -10z"/>
<path d="M4360 4273 c1 -11 50 -46 50 -35 0 10 -33 42 -43 42 -4 0 -7 -3 -7
-7z"/>
<path d="M4371 4174 c0 -11 3 -14 6 -6 3 7 2 16 -1 19 -3 4 -6 -2 -5 -13z"/>
<path d="M4371 4074 c0 -11 3 -14 6 -6 3 7 2 16 -1 19 -3 4 -6 -2 -5 -13z"/>
<path d="M4610 4020 c0 -5 7 -7 15 -4 8 4 15 8 15 10 0 2 -7 4 -15 4 -8 0 -15
-4 -15 -10z"/>
<path d="M4585 3990 c-3 -5 -1 -10 4 -10 6 0 11 5 11 10 0 6 -2 10 -4 10 -3 0
-8 -4 -11 -10z"/>
<path d="M4360 3965 c0 -8 5 -15 10 -15 6 0 10 7 10 15 0 8 -4 15 -10 15 -5 0
-10 -7 -10 -15z"/>
<path d="M4602 3949 c4 -9 1 -22 -5 -28 -8 -8 -8 -11 2 -11 8 0 11 -6 7 -15
-3 -9 0 -15 9 -15 21 0 19 54 -2 71 -15 12 -16 12 -11 -2z"/>
<path d="M4550 3920 c0 -5 5 -10 11 -10 5 0 7 5 4 10 -3 6 -8 10 -11 10 -2 0
-4 -4 -4 -10z"/>
<path d="M4871 3724 c0 -11 3 -14 6 -6 3 7 2 16 -1 19 -3 4 -6 -2 -5 -13z"/>
<path d="M4530 3700 c0 -5 7 -10 16 -10 8 0 12 5 9 10 -3 6 -10 10 -16 10 -5
0 -9 -4 -9 -10z"/>
<path d="M4795 3560 c3 -5 8 -10 11 -10 2 0 4 5 4 10 0 6 -5 10 -11 10 -5 0
-7 -4 -4 -10z"/>
<path d="M4658 3525 c-3 -13 -3 -27 0 -30 7 -6 30 38 25 48 -8 15 -21 6 -25
-18z"/>
<path d="M4797 3515 c-5 -10 0 -15 14 -15 12 0 19 5 17 12 -6 18 -25 20 -31 3z"/>
<path d="M4800 3476 c0 -10 8 -16 22 -16 12 0 19 1 17 3 -2 1 -12 9 -21 16
-15 12 -18 11 -18 -3z"/>
<path d="M4965 3440 c-3 -5 -1 -10 4 -10 6 0 11 5 11 10 0 6 -2 10 -4 10 -3 0
-8 -4 -11 -10z"/>
<path d="M4865 3339 c-10 -15 3 -25 16 -12 7 7 7 13 1 17 -6 3 -14 1 -17 -5z"/>
<path d="M5385 3449 c-4 -6 -12 -8 -19 -6 -11 5 -54 -20 -45 -26 2 -1 15 -11
28 -22 14 -11 21 -15 18 -9 -4 8 4 13 23 16 23 4 30 0 33 -16 3 -15 5 -12 6 9
1 22 4 26 10 16 7 -12 13 -12 24 -3 7 7 17 9 20 5 4 -3 7 0 7 8 0 11 -9 14
-35 11 -25 -3 -36 0 -41 12 -7 18 -20 21 -29 5z"/>
<path d="M5225 3429 c7 -11 75 -12 75 -1 0 4 -18 8 -40 9 -23 1 -38 -2 -35 -8z"/>
<path d="M5550 3430 c0 -5 4 -10 9 -10 6 0 13 5 16 10 3 6 -1 10 -9 10 -9 0
-16 -4 -16 -10z"/>
<path d="M5480 3390 c0 -5 5 -10 11 -10 5 0 7 5 4 10 -3 6 -8 10 -11 10 -2 0
-4 -4 -4 -10z"/>
<path d="M5195 3360 c3 -5 -3 -10 -15 -10 -13 0 -19 -4 -14 -12 4 -6 -1 -17
-11 -25 -16 -11 -16 -13 -3 -13 9 0 19 9 23 19 3 11 15 23 26 26 23 8 26 25 3
25 -8 0 -12 -4 -9 -10z"/>
<path d="M5281 3335 c-29 -7 -63 -10 -75 -7 -11 3 -18 1 -14 -3 4 -5 3 -14 -3
-22 -9 -10 -4 -13 25 -13 21 0 35 -4 32 -9 -4 -5 3 -7 15 -4 14 4 17 8 9 13
-7 4 -1 9 17 13 16 3 31 0 35 -6 5 -7 8 -3 8 11 0 12 5 22 10 22 6 0 10 5 10
10 0 12 0 12 -69 -5z"/>
<path d="M5465 3330 c3 -5 10 -10 16 -10 5 0 9 5 9 10 0 6 -7 10 -16 10 -8 0
-12 -4 -9 -10z"/>
<path d="M5370 3310 c0 -6 14 -13 30 -16 21 -5 30 -12 30 -25 0 -11 -7 -19
-16 -19 -8 0 -12 -4 -9 -10 3 -5 14 -10 24 -10 15 0 18 7 14 35 l-4 36 30 -15
c27 -15 29 -14 24 4 -6 24 -42 37 -54 19 -6 -11 -11 -11 -21 -1 -15 15 -48 16
-48 2z"/>
<path d="M5321 3234 c-12 -14 -10 -15 15 -12 16 2 28 8 27 13 -3 16 -27 16
-42 -1z"/>
<path d="M5426 3201 c-4 -5 -2 -12 3 -15 5 -4 12 -2 15 3 4 5 2 12 -3 15 -5 4
-12 2 -15 -3z"/>
<path d="M5514 3195 c21 -16 32 -13 21 4 -3 6 -14 11 -23 11 -15 -1 -15 -2 2
-15z"/>
<path d="M5600 3141 c0 -6 4 -13 10 -16 6 -3 7 1 4 9 -7 18 -14 21 -14 7z"/>
<path d="M8577 1385 c-4 -8 -3 -16 1 -19 4 -3 9 4 9 15 2 23 -3 25 -10 4z"/>
<path d="M8704 1091 c0 -10 6 -18 13 -18 7 0 13 4 13 7 0 4 -6 12 -13 18 -10
8 -13 6 -13 -7z"/>
<path d="M8768 1089 c-8 -25 -3 -109 7 -107 6 2 10 12 11 23 1 11 2 22 3 25 9
19 7 41 -3 56 -10 13 -14 14 -18 3z"/>
<path d="M3197 150 c-3 -11 -1 -23 4 -26 5 -3 9 6 9 20 0 31 -6 34 -13 6z"/>
<path d="M4500 13470 c0 -5 7 -10 15 -10 8 0 15 5 15 10 0 6 -7 10 -15 10 -8
0 -15 -4 -15 -10z"/>
<path d="M4490 13401 c0 -6 5 -13 10 -16 6 -3 10 1 10 9 0 9 -4 16 -10 16 -5
0 -10 -4 -10 -9z"/>
<path d="M4483 13252 c1 -18 7 -30 12 -28 11 4 8 36 -6 50 -5 6 -8 -4 -6 -22z"/>
<path d="M5379 11246 c0 -1 -2 -9 -4 -19 -2 -10 1 -14 7 -11 6 4 8 -1 3 -15
-4 -12 -2 -21 4 -21 6 0 11 6 12 13 0 6 2 21 4 33 3 13 -1 21 -10 21 -8 0 -15
-1 -16 -1z"/>
<path d="M5419 11245 c0 -6 -2 -18 -4 -27 -2 -10 0 -18 5 -18 13 0 21 33 10
44 -6 6 -10 6 -11 1z"/>
<path d="M5323 11194 c3 -4 2 -15 -3 -25 -7 -12 -7 -20 0 -24 6 -3 14 5 20 19
12 31 20 34 15 5 -3 -17 -2 -19 10 -9 20 17 7 40 -23 40 -14 0 -22 -3 -19 -6z"/>
<path d="M5556 11052 c6 -4 13 -14 16 -22 3 -10 6 -8 10 8 5 18 2 22 -15 22
-13 0 -17 -3 -11 -8z"/>
<path d="M4566 10741 c-5 -8 -2 -20 8 -29 17 -17 19 -9 7 22 -6 15 -10 16 -15
7z"/>
<path d="M4655 10550 c3 -5 8 -10 11 -10 2 0 4 5 4 10 0 6 -5 10 -11 10 -5 0
-7 -4 -4 -10z"/>
<path d="M4800 10451 c0 -6 4 -13 10 -16 6 -3 7 1 4 9 -7 18 -14 21 -14 7z"/>
<path d="M2573 3555 c-21 -23 -15 -36 7 -18 20 18 26 33 13 33 -5 -1 -14 -7
-20 -15z"/>
<path d="M2456 3463 c-6 -14 -5 -15 5 -6 7 7 10 15 7 18 -3 3 -9 -2 -12 -12z"/>
<path d="M2722 3430 c0 -14 2 -19 5 -12 2 6 2 18 0 25 -3 6 -5 1 -5 -13z"/>
<path d="M2800 3260 c0 -5 5 -10 11 -10 5 0 7 5 4 10 -3 6 -8 10 -11 10 -2 0
-4 -4 -4 -10z"/>
<path d="M2861 3226 c-8 -10 -9 -16 -1 -21 5 -3 13 1 16 10 9 22 -1 29 -15 11z"/>
<path d="M2800 3211 c-5 -11 -10 -30 -9 -43 0 -23 0 -23 9 -2 5 12 13 25 19
29 14 8 14 35 1 35 -5 0 -14 -9 -20 -19z"/>
<path d="M2895 3196 c-17 -12 -14 -36 5 -36 13 0 32 38 22 44 -5 3 -17 -1 -27
-8z"/>
<path d="M2550 3080 c-9 -6 -10 -10 -3 -10 6 0 15 5 18 10 8 12 4 12 -15 0z"/>
<path d="M2970 2785 c-7 -9 -11 -18 -8 -20 3 -3 11 1 18 10 7 9 11 18 8 20 -3
3 -11 -1 -18 -10z"/>
<path d="M2726 2534 c-9 -8 -14 -20 -11 -25 11 -16 23 -9 27 16 6 29 5 30 -16
9z"/>
<path d="M3108 2498 c-10 -10 -14 -18 -9 -18 10 0 36 29 30 34 -2 1 -12 -6
-21 -16z"/>
<path d="M3185 2359 c-19 -35 -10 -54 11 -25 13 19 20 56 9 56 -2 0 -12 -14
-20 -31z"/>
<path d="M2826 2324 c-4 -9 -4 -19 -2 -21 8 -8 26 8 26 23 0 19 -16 18 -24 -2z"/>
<path d="M2761 2136 c-8 -10 -8 -16 3 -25 11 -9 16 -9 22 0 4 7 2 15 -4 17 -7
2 -10 8 -6 13 8 14 -2 11 -15 -5z"/>
<path d="M3190 2095 c0 -8 5 -15 10 -15 6 0 10 7 10 15 0 8 -4 15 -10 15 -5 0
-10 -7 -10 -15z"/>
<path d="M2730 2066 c0 -2 8 -10 18 -17 15 -13 16 -12 3 4 -13 16 -21 21 -21
13z"/>
<path d="M3200 2039 c0 -7 -10 -20 -22 -30 -11 -11 -18 -22 -14 -27 4 -4 19 7
32 23 26 32 30 45 14 45 -5 0 -10 -5 -10 -11z"/>
<path d="M2891 1971 c-7 -5 -12 -14 -9 -21 2 -7 10 -4 22 9 19 21 12 28 -13
12z"/>
<path d="M3231 1905 c0 -35 2 -37 11 -19 7 15 7 28 -1 40 -9 16 -10 12 -10
-21z"/>
<path d="M3156 1866 c-9 -14 -16 -31 -16 -38 0 -7 9 2 21 21 23 39 20 54 -5
17z"/>
<path d="M2996 1861 c-4 -7 -5 -15 -2 -18 9 -9 19 4 14 18 -4 11 -6 11 -12 0z"/>
<path d="M2955 1749 c-4 -6 -5 -12 -2 -15 2 -3 7 2 10 11 7 17 1 20 -8 4z"/>
<path d="M3270 1751 c0 -5 5 -13 10 -16 6 -3 10 -2 10 4 0 5 -4 13 -10 16 -5
3 -10 2 -10 -4z"/>
<path d="M2957 1702 c-19 -9 -25 -17 -19 -25 5 -7 8 -25 7 -40 -1 -15 2 -30 7
-33 4 -3 8 4 8 15 0 11 5 23 11 26 6 4 8 13 5 20 -3 8 0 15 6 17 6 2 9 10 7
19 -4 13 -8 13 -32 1z"/>
<path d="M3215 1640 c-11 -13 -14 -20 -6 -20 21 0 52 21 46 31 -9 14 -20 11
-40 -11z"/>
<path d="M2991 1602 c-7 -15 -9 -24 -5 -20 4 4 14 2 23 -5 14 -10 14 -10 3 5
-11 14 -10 17 4 20 15 3 15 4 2 15 -12 11 -17 8 -27 -15z"/>
<path d="M3073 1590 c14 -9 16 -15 6 -26 -15 -18 -27 -18 -31 1 -2 10 -7 6
-15 -11 -10 -22 -10 -24 3 -14 9 8 14 9 14 2 0 -6 -8 -13 -17 -17 -10 -3 -29
-16 -43 -28 -14 -12 -24 -21 -22 -20 2 1 19 -5 39 -13 19 -8 32 -11 29 -5 -3
5 7 15 24 23 16 7 30 17 30 21 0 5 7 24 16 43 19 40 19 40 -21 49 -25 5 -27 4
-12 -5z"/>
<path d="M3050 1420 c-8 -5 -11 -12 -7 -16 4 -4 15 0 24 9 18 18 8 23 -17 7z"/>
<path d="M3091 1305 c-17 -19 -28 -35 -24 -35 15 0 73 46 73 58 0 21 -15 14
-49 -23z"/>
<path d="M3111 1224 c0 -11 3 -14 6 -6 3 7 2 16 -1 19 -3 4 -6 -2 -5 -13z"/>
<path d="M3192 1220 c0 -14 2 -19 5 -12 2 6 2 18 0 25 -3 6 -5 1 -5 -13z"/>
<path d="M3212 1166 c-13 -31 -8 -46 9 -29 6 6 9 21 7 34 -4 24 -5 23 -16 -5z"/>
<path d="M3610 990 c0 -5 5 -10 10 -10 6 0 10 5 10 10 0 6 -4 10 -10 10 -5 0
-10 -4 -10 -10z"/>
<path d="M3286 934 c-9 -8 -16 -21 -16 -27 0 -9 2 -9 8 0 4 7 17 10 30 6 12
-3 19 -9 16 -14 -3 -5 2 -6 10 -3 22 8 20 16 -9 36 -21 16 -25 16 -39 2z"/>
<path d="M3650 825 c0 -14 4 -25 9 -25 4 0 6 -11 4 -24 -3 -13 0 -27 6 -30 6
-4 11 -17 12 -29 0 -21 1 -21 10 2 6 15 6 28 -1 36 -8 10 -15 42 -19 88 -2 20
-21 4 -21 -18z"/>
<path d="M3530 816 c0 -9 5 -16 10 -16 6 0 10 4 10 9 0 6 -4 13 -10 16 -5 3
-10 -1 -10 -9z"/>
<path d="M3276 787 c3 -10 9 -15 12 -12 3 3 0 11 -7 18 -10 9 -11 8 -5 -6z"/>
<path d="M3511 734 c0 -11 3 -14 6 -6 3 7 2 16 -1 19 -3 4 -6 -2 -5 -13z"/>
<path d="M3350 710 c-6 -11 -7 -20 -2 -20 6 0 12 9 15 20 3 11 3 20 1 20 -2 0
-8 -9 -14 -20z"/>
<path d="M3710 675 c0 -8 5 -15 10 -15 6 0 10 7 10 15 0 8 -4 15 -10 15 -5 0
-10 -7 -10 -15z"/>
<path d="M3555 660 c-4 -7 -2 -16 6 -21 18 -11 23 -4 11 17 -7 12 -11 13 -17
4z"/>
<path d="M3330 625 c0 -8 4 -15 10 -15 5 0 7 7 4 15 -4 8 -8 15 -10 15 -2 0
-4 -7 -4 -15z"/>
<path d="M3476 588 c-18 -42 -21 -68 -6 -68 11 0 33 76 27 93 -3 7 -12 -5 -21
-25z"/>
<path d="M3377 583 c-10 -9 -9 -23 2 -23 5 0 11 7 15 15 5 15 -5 20 -17 8z"/>
<path d="M3650 570 c0 -5 5 -10 11 -10 5 0 7 5 4 10 -3 6 -8 10 -11 10 -2 0
-4 -4 -4 -10z"/>
<path d="M3351 544 c0 -11 3 -14 6 -6 3 7 2 16 -1 19 -3 4 -6 -2 -5 -13z"/>
<path d="M3710 549 c0 -5 5 -7 10 -4 6 3 10 8 10 11 0 2 -4 4 -10 4 -5 0 -10
-5 -10 -11z"/>
<path d="M3641 504 c-12 -15 -21 -32 -21 -38 0 -6 5 -4 10 4 9 13 11 13 21 0
9 -12 10 -11 6 7 -3 13 1 24 9 27 8 3 14 10 14 16 0 18 -18 11 -39 -16z"/>
<path d="M3506 481 c-4 -7 -5 -15 -2 -18 9 -9 19 4 14 18 -4 11 -6 11 -12 0z"/>
<path d="M3544 414 c5 -40 4 -45 -9 -34 -13 11 -13 8 -4 -18 8 -24 7 -37 -5
-60 -8 -16 -12 -32 -9 -36 12 -11 32 29 39 76 4 26 10 45 15 42 5 -3 9 0 9 5
0 6 -7 11 -15 11 -13 0 -14 4 -5 20 12 22 6 40 -12 40 -7 0 -9 -16 -4 -46z"/>
<path d="M3680 451 c0 -7 -5 -9 -12 -5 -7 4 -8 3 -4 -4 8 -14 -15 -122 -26
-122 -5 0 -6 -12 -3 -27 5 -24 5 -25 -5 -10 -8 13 -9 26 -2 45 16 43 22 92 12
92 -6 0 -10 -4 -10 -10 0 -5 -5 -10 -11 -10 -7 0 -9 10 -7 25 3 13 1 22 -3 19
-5 -3 -9 -29 -9 -59 0 -30 -4 -57 -10 -60 -5 -3 -10 -15 -10 -26 0 -11 4 -18
9 -14 6 3 6 -7 1 -26 -12 -40 -19 -47 -29 -30 -6 10 -11 5 -16 -18 -4 -17 -10
-29 -15 -26 -10 6 -20 -19 -20 -55 0 -16 -7 -36 -16 -44 -20 -20 -11 -20 29
-1 30 15 67 69 67 99 0 17 34 56 49 56 16 0 14 -15 -4 -30 -22 -18 -19 -50 5
-50 11 0 20 7 20 15 0 8 5 15 10 15 13 0 13 -13 -1 -27 -8 -8 -7 -17 4 -34
l16 -22 6 25 c4 13 5 35 4 49 -3 37 3 96 8 77 2 -10 9 -18 14 -18 6 0 7 9 3
23 -4 12 -7 45 -7 72 0 28 -2 37 -4 21 -3 -16 -11 -35 -19 -43 -8 -8 -14 -24
-14 -35 0 -12 -3 -19 -6 -15 -3 3 -1 47 6 97 6 51 8 95 5 98 -3 3 -5 0 -5 -7z
m-100 -271 c0 -11 -4 -20 -9 -20 -5 0 -11 -9 -14 -20 -3 -11 -13 -20 -22 -20
-18 0 -18 1 10 47 23 38 35 42 35 13z"/>
<path d="M3717 439 c4 -13 8 -18 11 -10 2 7 -1 18 -6 23 -8 8 -9 4 -5 -13z"/>
<path d="M3429 375 c-4 -5 -5 -19 -3 -30 3 -11 5 -40 6 -65 1 -25 3 -37 5 -27
4 17 13 29 60 79 9 10 13 24 8 35 -6 16 -9 15 -29 -9 -12 -16 -25 -28 -28 -28
-4 0 -8 12 -10 28 -2 15 -6 23 -9 17z"/>
<path d="M3737 323 c-4 -3 -7 -13 -7 -21 0 -18 13 -7 16 13 2 17 1 18 -9 8z"/>
<path d="M3560 274 c0 -8 5 -12 10 -9 6 4 8 11 5 16 -9 14 -15 11 -15 -7z"/>
<path d="M3747 252 c-22 -24 -23 -74 -2 -66 8 4 15 17 15 29 0 13 6 25 13 28
8 3 9 8 1 16 -8 9 -15 7 -27 -7z"/>
<path d="M3687 61 c-2 -10 -1 -25 4 -32 6 -10 9 -4 9 19 0 36 -5 42 -13 13z"/>
<path d="M3520 45 c0 -8 5 -15 10 -15 6 0 10 7 10 15 0 8 -4 15 -10 15 -5 0
-10 -7 -10 -15z"/>
</g>
</svg>
